<svg width="360" height="80" viewBox="0 0 360 80" fill="none" xmlns="http://www.w3.org/2000/svg">
  <path d="M0 48C45 58 88 57 126 44C144 38 154 17 162 17C170 17 174 38 180 38C186 38 190 17 198 17C206 17 216 38 234 44C272 57 315 58 360 48" stroke="#C73F50" stroke-width="2.2" stroke-linecap="round"/>
  <path d="M160 22C145 5 126 20 136 35C145 48 160 48 180 65C200 48 215 48 224 35C234 20 215 5 200 22C190 34 184 39 180 39C176 39 170 34 160 22Z" stroke="#C73F50" stroke-width="2.2" fill="none"/>
</svg>
