<svg
  xmlns="http://www.w3.org/2000/svg"
  viewBox="0 0 2048 495"
  width="2048"
  height="495"
  role="img"
  aria-label="priglasitelnoe.com logo"
  style="color: #46a9de;"
>
  <defs>
    <style>
      .logo-text {
        fill: var(--logo-text, currentColor);
        font-family: "Nunito", "Avenir Next", "Trebuchet MS", sans-serif;
        font-size: 224px;
        font-weight: 700;
        letter-spacing: -10px;
      }

      .logo-cursor {
        fill: var(--logo-cursor, var(--logo-text, currentColor));
      }

      .ray-gold {
        fill: var(--logo-ray-gold, #d8b05b);
      }

      .ray-coral {
        fill: var(--logo-ray-coral, #f67d73);
      }
    </style>
  </defs>

  <text class="logo-text" x="26" y="363">priglasitelnoe.com</text>

  <rect class="ray-gold" x="1758" y="99" width="24" height="114" transform="rotate(-46 1770 156)" rx="1" />
  <rect class="ray-gold" x="1821" y="67" width="24" height="103" transform="rotate(-2 1833 118.5)" rx="1" />
  <rect class="ray-coral" x="1897" y="85" width="24" height="109" transform="rotate(34 1909 139.5)" rx="1" />
  <rect class="ray-coral" x="1950" y="153" width="24" height="106" transform="rotate(78 1962 206)" rx="1" />
  <rect class="ray-gold" x="1718" y="186" width="24" height="104" transform="rotate(-84 1730 238)" rx="1" />

  <path
    class="logo-cursor"
    d="M1871 198L2025 274L1955 294L1996 345L1967 362L1927 308L1890 357L1871 198Z"
  />
</svg>
