<svg width="300" height="360" viewBox="0 0 300 360" fill="none" xmlns="http://www.w3.org/2000/svg">
  <rect width="300" height="360" fill="url(#paint0_linear)"/>
  <rect x="0" y="0" width="300" height="360" fill="url(#paint1_radial)" fill-opacity="0.5"/>
  <path d="M49 336C68 290 102 248 138 228C102 206 86 177 84 145C81 103 110 79 148 79C189 79 215 108 216 146C217 176 203 207 171 229C194 242 224 272 250 336H49Z" fill="#2F1B1B"/>
  <path d="M105 209C118 191 132 181 149 181C167 181 182 191 196 209C182 230 167 240 150 240C133 240 118 230 105 209Z" fill="#DCC9B7"/>
  <path d="M92 336C102 283 120 242 146 217C109 200 85 170 84 144C82 106 108 84 146 84C182 84 210 110 211 146C212 172 191 201 156 217C188 241 208 281 217 336H92Z" fill="#F1EAE3"/>
  <path d="M160 226C176 199 197 173 226 162C220 145 219 133 220 122C223 102 239 93 255 96C274 100 285 118 282 138C280 154 269 173 249 189C262 198 276 220 289 256L267 263C253 226 236 206 218 198C199 206 183 224 168 251L160 226Z" fill="#263033"/>
  <path d="M214 119C214 102 228 88 244 88C260 88 273 101 273 117C273 133 260 146 244 146C228 146 214 134 214 119Z" fill="#DAB39E"/>
  <circle cx="145" cy="122" r="31" fill="#DAB39E"/>
  <path d="M114 122C114 102 127 89 145 89C163 89 176 102 176 122C176 111 167 103 154 103C146 103 139 106 133 112C128 117 121 120 114 122Z" fill="#2B1B19"/>
  <path d="M214 121C214 101 227 88 245 88C263 88 276 101 276 121C268 114 259 111 250 111C238 111 226 115 214 121Z" fill="#2A1A18"/>
  <defs>
    <linearGradient id="paint0_linear" x1="150" y1="0" x2="150" y2="360" gradientUnits="userSpaceOnUse">
      <stop stop-color="#4D3029"/>
      <stop offset="1" stop-color="#B08772"/>
    </linearGradient>
    <radialGradient id="paint1_radial" cx="0" cy="0" r="1" gradientUnits="userSpaceOnUse" gradientTransform="translate(150 196) rotate(90) scale(170 140)">
      <stop stop-color="#E9D7C9" stop-opacity="0"/>
      <stop offset="1" stop-color="#211413"/>
    </radialGradient>
  </defs>
</svg>
