<?xml version="1.0" encoding="UTF-8"?>
<svg id="_Слой_2" data-name="Слой 2" xmlns="http://www.w3.org/2000/svg" viewBox="0 0 684.85 48.05">
  <defs>
    <style>
      .cls-1 {
        fill: #6aa0b8;
        fill-rule: evenodd;
        stroke-width: 0px;
      }
    </style>
  </defs>
  <g id="Layer_1" data-name="Layer 1">
    <path class="cls-1" d="M110.95,28.83c-.77,3.23-2.35,6.07-4.79,8.5-2.41,2.47-5.5,3.63-9.24,3.49-3.83-.11-9.04-1.96-15.62-5.58-6.58-3.6-14.68-8.31-24.35-14.06-8.33-5.19-15.96-9.61-22.88-13.24-6.92-3.66-12.7-5.47-17.32-5.47s-8.62,1.47-11.68,4.48C2.01,9.95.34,12.73,0,15.36v32.68c.57-.51,1.13-1.02,1.73-1.7.57-.71,1.16-1.59,1.56-2.32.4-.77.62-1.36.74-2.04.11-.65.11-1.39.14-2.13.6.77,1.19,1.53,2.07,2.24.85.74,2.01,1.39,3.29,1.98,1.25.6,2.61,1.13,4.03,1.53,1.42.4,2.92.65,4.22.77,1.28.11,2.38.06,3.77-.03,1.42-.06,3.15-.14,5.44-.43,2.32-.31,5.24-.82,7.71-1.33,2.47-.54,4.48-1.11,6.26-1.47,1.79-.4,3.34-.6,5.07-.79,1.73-.2,3.63-.37,5.47-.34,1.81.03,3.57.26,4.88.48,1.28.23,2.07.45,2.81.79.74.34,1.42.79,1.96,1.25.57.45.96.91,1.39,1.36-.17-.88-.31-1.76-.88-2.86-.54-1.13-1.5-2.52-2.64-3.66-1.16-1.13-2.49-2.04-3.66-2.58-1.19-.57-2.18-.82-3.12-.94-.96-.11-1.84-.09-2.72-.09.06-.68.09-1.39,0-2.07-.09-.65-.34-1.33-.71-1.81-.4-.51-.91-.85-1.45-1.22-.09.65-.17,1.3-.4,1.93-.26.62-.65,1.25-1.02,1.76-.37.54-.68.94-1.22,1.16-.54.26-1.3.37-2.04.48.26-.82.51-1.64.62-2.58.09-.94,0-1.98-.31-2.78-.28-.77-.79-1.28-1.36-1.56-.54-.28-1.16-.37-1.76-.43.28.45.57.94.6,1.62.06.71-.11,1.62-.45,2.49-.37.85-.91,1.64-1.64,2.41s-1.67,1.5-2.64,1.96c-.96.43-1.96.62-2.78.71-.85.09-1.53.09-1.5-.37.03-.45.77-1.33,1.42-2.21.65-.91,1.22-1.81,1.62-2.86.4-1.05.62-2.24.57-3.4-.03-1.19-.37-2.32-.79-3.32-.4-.99-.91-1.81-1.59-2.61-.65-.79-1.5-1.53-2.3-2.13-.79-.57-1.53-.96-2.35-1.33-.85-.37-1.76-.71-2.75-.91-.96-.23-2.04-.31-3.2-.28-1.19.03-2.47.17-3.69.45-1.22.31-2.35.79-3.26,1.42-.94.62-1.59,1.39-2.04,2.21-.45.85-.68,1.73-.77,2.52-.11.82-.09,1.53-.09,2.07s-.03.88-.14,1.25c-.11.34-.31.68-.65.91-.34.26-.85.37-1.42.37-.57.03-1.16-.09-1.59-.4-.43-.34-.68-.88-.91-1.45-.17.88-.31,1.79-.2,2.52.14.77.54,1.39,1.02,1.87.45.48.99.82,1.76.96.77.14,1.73.06,2.72,0,.28.85.57,1.73.88,2.32.34.6.74.96,1.05,1.22l.77.6c.43-.51.85-.99,1.16-1.45.28-.48.45-.88.54-1.33.11-.43.17-.88.2-1.33.77.06,1.53.11,2.32-.06.77-.14,1.56-.54,2.1-.96.57-.43.88-.85,1.05-1.39.2-.51.26-1.11.23-1.64,0-.54-.09-.96-.2-1.42-.28.37-.6.77-1.05,1.11-.43.34-.99.65-1.56.65-.6.03-1.16-.23-1.56-.6-.4-.34-.6-.79-.6-1.47.03-1.45.68-2.89,2.04-3.54,2.75-1.33,6.89-.6,8.33,2.35,2.64,5.24-3.09,11.03-7.71,12.42-3.32.99-7.14.94-10.29-.71-1.22-.62-2.3-1.53-3.29-2.49C2.89,31.07,1.93,24.69,3.17,19.16c.68-3.29,2.24-6.15,4.68-8.62,2.44-2.47,5.53-3.51,9.33-3.23,3.83.03,9.01,1.84,15.53,5.5,6.52,3.6,14.6,8.33,24.24,14.12,8.39,5.05,16.07,9.44,23.02,13.12,6.94,3.69,12.73,5.53,17.35,5.53s8.56-1.5,11.62-4.54c3.06-3,4.82-5.75,5.22-8.31v-.06c.34,2.64,2.01,5.41,5.07,8.42,3.06,2.98,6.94,4.48,11.68,4.48s10.4-1.81,17.32-5.47c6.92-3.63,14.54-8.05,22.88-13.27,9.67-5.73,17.77-10.43,24.35-14.03,6.55-3.63,11.76-5.5,15.62-5.58,3.71-.14,6.8,1.02,9.21,3.49,2.47,2.44,4.03,5.27,4.79,8.5,1.53,7.14-.48,15.11-7.34,18.65-3.66,1.93-9.24,1.79-12.78-.37-2.95-1.79-6.01-5.27-5.84-8.9.2-3.77,3.15-5.64,6.72-5.36.85.06,1.64.28,2.27.57,1.33.65,2.01,2.1,2.01,3.54.03.68-.2,1.13-.6,1.47-.37.37-.96.62-1.53.6-.57,0-1.13-.31-1.59-.65-.43-.34-.74-.74-1.05-1.11-.09.45-.17.88-.2,1.42,0,.54.06,1.13.23,1.64.2.54.51.96,1.05,1.39.57.43,1.33.82,2.13.96.77.17,1.53.11,2.3.06.06.45.11.91.2,1.33.11.45.28.85.57,1.33.28.45.71.94,1.16,1.45l.77-.6c.31-.26.68-.62,1.02-1.22.34-.6.62-1.47.91-2.32.99.06,1.96.14,2.72,0,.74-.14,1.28-.48,1.76-.96.45-.48.88-1.11.99-1.87.14-.74-.03-1.64-.17-2.52-.26.57-.48,1.11-.91,1.45-.43.31-1.05.43-1.59.4-.57,0-1.08-.11-1.42-.37-.37-.23-.54-.57-.65-.91-.11-.37-.14-.71-.17-1.25,0-.54.03-1.25-.06-2.04-.11-.82-.31-1.7-.77-2.55-.45-.82-1.13-1.59-2.04-2.21s-2.07-1.11-3.26-1.42c-1.22-.28-2.52-.43-3.69-.45-1.19-.03-2.24.06-3.23.28-.99.2-1.9.54-2.72.91-.82.37-1.59.77-2.38,1.33-.79.6-1.62,1.33-2.3,2.13-.65.79-1.16,1.62-1.59,2.61-.4.99-.74,2.13-.79,3.32-.06,1.16.17,2.35.57,3.4.43,1.05.99,1.96,1.64,2.86.65.88,1.36,1.76,1.39,2.21.03.45-.65.45-1.47.37-.82-.09-1.81-.28-2.78-.71-.96-.45-1.9-1.19-2.64-1.96-.74-.77-1.28-1.56-1.64-2.41-.34-.88-.54-1.79-.48-2.49.06-.68.34-1.16.62-1.62-.62.06-1.22.14-1.79.43-.54.28-1.05.79-1.36,1.56-.28.79-.37,1.84-.28,2.78.09.94.34,1.76.62,2.58-.77-.11-1.5-.23-2.04-.48-.54-.23-.88-.62-1.25-1.16-.34-.51-.77-1.13-.99-1.76-.26-.62-.34-1.28-.43-1.93-.51.37-1.05.71-1.42,1.22-.37.48-.62,1.16-.71,1.81-.11.68-.06,1.39,0,2.07-.88,0-1.79-.03-2.72.09-.94.11-1.96.37-3.12.94-1.16.54-2.52,1.45-3.66,2.58-1.13,1.13-2.1,2.52-2.66,3.66-.54,1.11-.71,1.98-.85,2.86.4-.45.82-.91,1.36-1.36.57-.45,1.25-.91,1.98-1.25.74-.34,1.53-.57,2.81-.79s3.03-.45,4.88-.48c1.84-.03,3.71.14,5.47.34,1.73.2,3.29.4,5.07.79,1.79.37,3.8.94,6.26,1.47,2.47.51,5.39,1.02,7.68,1.33,2.32.28,4.05.37,5.44.43,1.42.09,2.49.14,3.8.03,1.3-.11,2.78-.37,4.2-.77,1.45-.4,2.78-.94,4.05-1.53,1.25-.6,2.41-1.25,3.29-1.98.88-.71,1.47-1.47,2.07-2.24,0,.74.03,1.47.14,2.13.11.68.31,1.28.71,2.04.4.74.99,1.62,1.59,2.32.57.68,1.13,1.19,1.73,1.7h0c.57-.51,1.13-1.02,1.7-1.7.6-.71,1.19-1.59,1.59-2.32.4-.77.6-1.36.71-2.04.11-.65.14-1.39.14-2.13.6.77,1.19,1.53,2.07,2.24.88.74,2.04,1.39,3.29,1.98,1.28.6,2.61,1.13,4.05,1.53,1.42.4,2.89.65,4.2.77,1.3.11,2.38.06,3.8-.03,1.39-.06,3.12-.14,5.44-.43,2.32-.31,5.22-.82,7.68-1.33,2.47-.54,4.48-1.11,6.26-1.47,1.79-.4,3.34-.6,5.1-.79,1.73-.2,3.63-.37,5.44-.34,1.84.03,3.6.26,4.88.48,1.28.23,2.07.45,2.81.79.77.34,1.42.79,1.98,1.25.54.45.96.91,1.36,1.36-.14-.88-.31-1.76-.85-2.86-.57-1.13-1.53-2.52-2.66-3.66s-2.47-2.04-3.66-2.58c-1.16-.57-2.18-.82-3.12-.94-.94-.11-1.84-.09-2.72-.09.06-.68.11-1.39,0-2.07-.09-.65-.31-1.33-.71-1.81-.37-.51-.91-.85-1.42-1.22-.09.65-.17,1.3-.43,1.93-.23.62-.62,1.25-.99,1.76-.37.54-.71.94-1.25,1.16-.54.26-1.28.37-2.01.48.26-.82.51-1.64.6-2.58.09-.94,0-1.98-.28-2.78-.31-.77-.82-1.28-1.36-1.56-.57-.28-1.16-.37-1.79-.43.28.45.57.94.62,1.62.06.71-.11,1.62-.48,2.49-.37.85-.91,1.64-1.64,2.41-.74.77-1.67,1.5-2.64,1.96-.96.43-1.96.62-2.78.71-.82.09-1.5.09-1.47-.37.03-.45.74-1.33,1.39-2.21.65-.91,1.25-1.81,1.64-2.86.4-1.05.62-2.24.57-3.4-.06-1.19-.4-2.32-.79-3.32-.43-.99-.94-1.81-1.59-2.61-.68-.79-1.5-1.53-2.3-2.13-.79-.57-1.56-.96-2.38-1.33-.82-.37-1.73-.71-2.72-.91-.99-.23-2.04-.31-3.23-.28-1.16.03-2.47.17-3.66.45-1.22.31-2.38.79-3.29,1.42s-1.59,1.39-2.04,2.21c-.45.85-.65,1.73-.77,2.52-.09.82-.06,1.53-.06,2.07s-.06.88-.17,1.25c-.11.34-.28.68-.65.91-.34.26-.85.37-1.42.37-.54.03-1.16-.09-1.59-.4-.43-.34-.65-.88-.91-1.45-.14.88-.31,1.79-.17,2.52.11.77.54,1.39.99,1.87.48.48,1.02.82,1.76.96.77.14,1.76.06,2.72,0,.28.85.57,1.73.91,2.32.34.6.71.96,1.02,1.22l.79.6c.43-.51.85-.99,1.13-1.45.28-.48.45-.88.57-1.33.09-.43.14-.88.2-1.33.77.06,1.53.11,2.3-.06.79-.14,1.56-.54,2.13-.96.54-.43.85-.85,1.05-1.39.17-.51.23-1.11.23-1.64-.03-.54-.11-.96-.2-1.42-.31.37-.62.77-1.05,1.11-.45.34-1.02.65-1.59.65-.57.03-1.16-.23-1.53-.6-.4-.34-.62-.79-.6-1.47,0-1.45.68-2.89,2.01-3.54,2.75-1.33,6.89-.6,8.36,2.35,2.64,5.24-3.09,11.03-7.74,12.42-3.32.99-7.14.94-10.26-.71-1.22-.62-2.32-1.53-3.29-2.49-4.37-4.31-5.36-10.69-4.11-16.21.68-3.29,2.24-6.15,4.68-8.62,2.47-2.47,5.53-3.51,9.35-3.23,3.83.03,8.99,1.84,15.53,5.5,6.49,3.6,14.57,8.33,24.21,14.12,8.42,5.05,16.1,9.44,23.05,13.12,6.92,3.69,12.73,5.53,17.35,5.53s8.53-1.5,11.59-4.54c3.06-3,4.82-5.75,5.22-8.31v-.06c.34,2.64,2.01,5.41,5.07,8.42,3.06,2.98,6.97,4.48,11.68,4.48s10.43-1.81,17.35-5.47c6.92-3.63,14.51-8.05,22.85-13.27,9.67-5.73,17.77-10.43,24.38-14.03,6.55-3.63,11.76-5.5,15.59-5.58,3.74-.14,6.83,1.02,9.24,3.49,2.44,2.44,4.03,5.27,4.79,8.5,1.5,7.14-.51,15.11-7.34,18.65-3.69,1.93-9.24,1.79-12.81-.37-2.95-1.79-6.01-5.27-5.81-8.9.17-3.77,3.15-5.64,6.69-5.36.88.06,1.64.28,2.27.57,1.36.65,2.01,2.1,2.04,3.54,0,.68-.2,1.13-.6,1.47-.4.37-.96.62-1.53.6-.6,0-1.16-.31-1.59-.65-.45-.34-.77-.74-1.05-1.11-.11.45-.2.88-.2,1.42-.03.54.03,1.13.23,1.64.17.54.48.96,1.05,1.39.54.43,1.33.82,2.1.96.79.17,1.56.11,2.32.06.03.45.09.91.2,1.33.11.45.26.85.57,1.33.28.45.71.94,1.13,1.45l.77-.6c.31-.26.71-.62,1.05-1.22.31-.6.6-1.47.88-2.32.99.06,1.98.14,2.72,0,.77-.14,1.3-.48,1.76-.96.48-.48.88-1.11,1.02-1.87.11-.74-.03-1.64-.2-2.52-.23.57-.45,1.11-.88,1.45-.43.31-1.05.43-1.62.4-.57,0-1.08-.11-1.42-.37-.34-.23-.54-.57-.65-.91-.11-.37-.14-.71-.14-1.25s.03-1.25-.09-2.04c-.09-.82-.31-1.7-.77-2.55-.45-.82-1.11-1.59-2.04-2.21-.91-.62-2.04-1.11-3.26-1.42-1.22-.28-2.49-.43-3.69-.45-1.16-.03-2.24.06-3.2.28-.99.2-1.9.54-2.75.91-.82.37-1.56.77-2.35,1.33-.79.6-1.64,1.33-2.3,2.13-.68.79-1.16,1.62-1.59,2.61-.43.99-.74,2.13-.79,3.32-.06,1.16.17,2.35.57,3.4.4,1.05.96,1.96,1.62,2.86.65.88,1.39,1.76,1.42,2.21.03.45-.65.45-1.5.37-.82-.09-1.81-.28-2.78-.71-.96-.45-1.9-1.19-2.64-1.96-.74-.77-1.28-1.56-1.62-2.41-.37-.88-.54-1.79-.48-2.49.06-.68.31-1.16.6-1.62-.6.06-1.22.14-1.76.43-.57.28-1.08.79-1.36,1.56-.28.79-.4,1.84-.31,2.78.11.94.37,1.76.62,2.58-.74-.11-1.5-.23-2.04-.48-.54-.23-.85-.62-1.22-1.16-.37-.51-.77-1.13-1.02-1.76-.23-.62-.31-1.28-.4-1.93-.54.37-1.05.71-1.45,1.22-.37.48-.62,1.16-.71,1.81-.09.68-.03,1.39,0,2.07-.88,0-1.76-.03-2.69.09-.96.11-1.96.37-3.15.94-1.16.54-2.49,1.45-3.66,2.58-1.13,1.13-2.1,2.52-2.64,3.66-.57,1.11-.71,1.98-.88,2.86.43-.45.85-.91,1.39-1.36.54-.45,1.22-.91,1.96-1.25.74-.34,1.53-.57,2.81-.79,1.3-.23,3.06-.45,4.88-.48,1.84-.03,3.74.14,5.47.34,1.73.2,3.29.4,5.07.79,1.79.37,3.8.94,6.26,1.47,2.47.51,5.39,1.02,7.71,1.33,2.3.28,4.03.37,5.44.43,1.39.09,2.49.14,3.77.03,1.3-.11,2.81-.37,4.22-.77s2.78-.94,4.03-1.53c1.28-.6,2.44-1.25,3.32-1.98.85-.71,1.45-1.47,2.04-2.24.03.74.03,1.47.14,2.13.11.68.34,1.28.74,2.04.4.74.99,1.62,1.56,2.32.6.68,1.16,1.19,1.73,1.7h0c.57-.51,1.13-1.02,1.73-1.7.57-.71,1.16-1.59,1.56-2.32.4-.77.62-1.36.74-2.04.11-.65.11-1.39.14-2.13.6.77,1.16,1.53,2.04,2.24.88.74,2.04,1.39,3.32,1.98,1.25.6,2.61,1.13,4.03,1.53s2.92.65,4.22.77c1.28.11,2.38.06,3.77-.03,1.42-.06,3.12-.14,5.44-.43,2.32-.31,5.24-.82,7.71-1.33,2.47-.54,4.48-1.11,6.26-1.47,1.79-.4,3.34-.6,5.07-.79,1.73-.2,3.63-.37,5.47-.34,1.81.03,3.57.26,4.88.48,1.28.23,2.07.45,2.81.79.74.34,1.42.79,1.96,1.25.54.45.96.91,1.39,1.36-.17-.88-.31-1.76-.88-2.86-.54-1.13-1.5-2.52-2.66-3.66-1.13-1.13-2.47-2.04-3.63-2.58-1.19-.57-2.18-.82-3.15-.94-.94-.11-1.81-.09-2.69-.09.03-.68.09-1.39,0-2.07-.09-.65-.34-1.33-.74-1.81-.37-.51-.88-.85-1.42-1.22-.09.65-.17,1.3-.4,1.93-.26.62-.65,1.25-1.02,1.76-.37.54-.68.94-1.22,1.16-.54.26-1.3.37-2.04.48.26-.82.51-1.64.6-2.58.09-.94,0-1.98-.28-2.78-.28-.77-.79-1.28-1.36-1.56-.54-.28-1.16-.37-1.76-.43.28.45.54.94.6,1.62.06.71-.11,1.62-.48,2.49-.34.85-.88,1.64-1.62,2.41s-1.67,1.5-2.64,1.96c-.96.43-1.96.62-2.78.71-.85.09-1.53.09-1.5-.37.03-.45.77-1.33,1.42-2.21.65-.91,1.22-1.81,1.62-2.86.4-1.05.62-2.24.57-3.4-.06-1.19-.37-2.32-.79-3.32-.43-.99-.91-1.81-1.59-2.61-.68-.79-1.5-1.53-2.3-2.13-.79-.57-1.53-.96-2.38-1.33-.82-.37-1.73-.71-2.72-.91-.99-.23-2.04-.31-3.2-.28-1.19.03-2.47.17-3.69.45-1.22.31-2.35.79-3.29,1.42-.91.62-1.59,1.39-2.01,2.21-.45.85-.68,1.73-.77,2.52-.11.82-.09,1.53-.09,2.07s-.03.88-.14,1.25c-.11.34-.31.68-.65.91-.34.26-.85.37-1.42.37-.57.03-1.19-.09-1.62-.4-.43-.34-.65-.88-.88-1.45-.17.88-.31,1.79-.2,2.52.14.77.54,1.39,1.02,1.87.45.48.99.82,1.76.96.74.14,1.73.06,2.72,0,.26.85.54,1.73.88,2.32s.74.96,1.05,1.22l.77.6c.43-.51.85-.99,1.13-1.45.31-.48.45-.88.57-1.33.11-.43.14-.88.2-1.33.77.06,1.53.11,2.32-.06.77-.14,1.56-.54,2.1-.96.54-.43.85-.85,1.05-1.39.2-.51.26-1.11.23-1.64,0-.54-.11-.96-.2-1.42-.28.37-.6.77-1.05,1.11-.43.34-.99.65-1.59.65-.57.03-1.13-.23-1.53-.6-.4-.34-.6-.79-.6-1.47.03-1.45.68-2.89,2.04-3.54,2.72-1.33,6.89-.6,8.33,2.35,2.64,5.24-3.09,11.03-7.71,12.42-3.34.99-7.17.94-10.29-.71-1.22-.62-2.3-1.53-3.29-2.49-4.37-4.31-5.36-10.69-4.11-16.21.71-3.29,2.27-6.15,4.71-8.62,2.44-2.47,5.53-3.51,9.33-3.23,3.83.03,9.01,1.84,15.53,5.5,6.52,3.6,14.57,8.33,24.24,14.12,8.39,5.05,16.07,9.44,23.02,13.12s12.73,5.53,17.35,5.53,8.56-1.5,11.62-4.54c3.06-3,4.79-5.75,5.22-8.31v-.06c.31,2.64,2.01,5.41,5.07,8.42,3.06,2.98,6.94,4.48,11.68,4.48s10.4-1.81,17.32-5.47c6.92-3.63,14.54-8.05,22.85-13.27,9.67-5.73,17.8-10.43,24.38-14.03,6.55-3.63,11.76-5.5,15.59-5.58,3.74-.14,6.83,1.02,9.24,3.49,2.47,2.44,4.03,5.27,4.79,8.5,1.53,7.14-.48,15.11-7.34,18.65-3.66,1.93-9.24,1.79-12.81-.37-2.92-1.79-5.98-5.27-5.81-8.9.2-3.77,3.15-5.64,6.72-5.36.85.06,1.64.28,2.27.57,1.33.65,1.98,2.1,2.01,3.54,0,.68-.2,1.13-.6,1.47-.4.37-.96.62-1.53.6-.57,0-1.13-.31-1.59-.65-.43-.34-.74-.74-1.05-1.11-.09.45-.17.88-.2,1.42,0,.54.06,1.13.23,1.64.2.54.51.96,1.05,1.39s1.33.82,2.13.96c.77.17,1.53.11,2.3.06.06.45.11.91.2,1.33.11.45.28.85.57,1.33.28.45.71.94,1.13,1.45l.79-.6c.31-.26.68-.62,1.02-1.22s.62-1.47.91-2.32c.96.06,1.96.14,2.72,0,.74-.14,1.28-.48,1.76-.96.45-.48.88-1.11.99-1.87.14-.74-.03-1.64-.17-2.52-.26.57-.48,1.11-.91,1.45-.43.31-1.05.43-1.62.4-.54,0-1.05-.11-1.42-.37-.34-.23-.51-.57-.62-.91-.11-.37-.17-.71-.17-1.25s.03-1.25-.06-2.04c-.11-.82-.31-1.7-.77-2.55-.45-.82-1.13-1.59-2.04-2.21-.91-.62-2.07-1.11-3.29-1.42-1.22-.28-2.49-.43-3.66-.45-1.19-.03-2.24.06-3.23.28-.99.2-1.9.54-2.72.91-.82.37-1.59.77-2.38,1.33-.79.6-1.62,1.33-2.3,2.13-.65.79-1.16,1.62-1.59,2.61-.4.99-.74,2.13-.79,3.32-.06,1.16.17,2.35.57,3.4.4,1.05.99,1.96,1.64,2.86.65.88,1.36,1.76,1.39,2.21.03.45-.65.45-1.47.37-.85-.09-1.81-.28-2.78-.71-.96-.45-1.9-1.19-2.66-1.96-.74-.77-1.28-1.56-1.62-2.41-.37-.88-.54-1.79-.48-2.49.06-.68.34-1.16.62-1.62-.62.06-1.22.14-1.79.43-.57.28-1.05.79-1.36,1.56-.28.79-.37,1.84-.28,2.78.09.94.34,1.76.6,2.58-.74-.11-1.47-.23-2.01-.48-.54-.23-.88-.62-1.25-1.16-.37-.51-.77-1.13-.99-1.76-.26-.62-.34-1.28-.43-1.93-.51.37-1.05.71-1.42,1.22-.4.48-.62,1.16-.74,1.81-.09.68-.03,1.39.03,2.07-.88,0-1.79-.03-2.72.09-.94.11-1.96.37-3.12.94-1.19.54-2.52,1.45-3.66,2.58-1.16,1.13-2.1,2.52-2.66,3.66-.54,1.11-.71,1.98-.85,2.86.4-.45.82-.91,1.36-1.36.57-.45,1.22-.91,1.96-1.25.74-.34,1.56-.57,2.83-.79,1.28-.23,3.03-.45,4.88-.48,1.81-.03,3.71.14,5.44.34,1.73.2,3.32.4,5.1.79,1.79.37,3.8.94,6.26,1.47,2.47.51,5.36,1.02,7.68,1.33,2.32.28,4.03.37,5.44.43,1.42.09,2.49.14,3.8.03,1.28-.11,2.78-.37,4.2-.77,1.42-.4,2.78-.94,4.05-1.53,1.25-.6,2.41-1.25,3.29-1.98.88-.71,1.47-1.47,2.04-2.24.03.74.06,1.47.17,2.13.11.68.31,1.28.71,2.04.4.74.99,1.62,1.59,2.32.57.68,1.13,1.19,1.7,1.7V15.31c-.4-2.55-2.15-5.3-5.22-8.31-3.06-3.03-6.92-4.54-11.59-4.54s-10.4,1.84-17.35,5.53c-6.94,3.69-14.63,8.08-23.05,13.12-9.64,5.78-17.69,10.52-24.21,14.12-6.55,3.63-11.71,5.47-15.53,5.5-3.8.28-6.89-.79-9.33-3.26-2.47-2.44-4-5.3-4.71-8.59-1.25-5.53-.26-11.91,4.11-16.21.96-.96,2.07-1.87,3.29-2.49,3.12-1.64,6.94-1.7,10.29-.71,4.62,1.39,10.35,7.17,7.71,12.42-1.47,2.92-5.61,3.69-8.36,2.32-1.33-.65-1.98-2.07-2.01-3.51,0-.68.2-1.13.6-1.47.4-.37.96-.62,1.53-.6.57,0,1.13.31,1.59.65.43.34.74.71,1.05,1.11.09-.45.17-.91.2-1.42,0-.54-.06-1.13-.23-1.67-.2-.51-.51-.94-1.05-1.36-.54-.43-1.33-.82-2.13-.99-.77-.17-1.53-.09-2.3-.03-.06-.45-.11-.91-.2-1.33-.11-.45-.28-.88-.57-1.33-.28-.45-.71-.94-1.13-1.45l-.79.6c-.28.26-.68.62-1.02,1.22s-.62,1.47-.91,2.32c-.96-.09-1.96-.14-2.72,0-.74.14-1.28.48-1.76.96-.45.48-.88,1.11-.99,1.87-.14.74.03,1.62.17,2.49.26-.54.48-1.11.91-1.42.43-.31,1.05-.43,1.62-.4.54,0,1.05.11,1.42.34.34.26.51.6.62.94.11.37.17.71.17,1.25s-.03,1.25.06,2.04c.11.82.34,1.7.77,2.52.45.85,1.13,1.62,2.04,2.24.91.62,2.07,1.11,3.29,1.42,1.22.28,2.49.43,3.66.45,1.19,0,2.24-.06,3.23-.28.99-.2,1.9-.54,2.72-.91.82-.37,1.59-.77,2.38-1.36.79-.57,1.62-1.3,2.3-2.1.65-.79,1.16-1.62,1.59-2.61.4-.99.74-2.13.79-3.32.06-1.16-.17-2.35-.57-3.4-.4-1.05-.99-1.96-1.64-2.86-.62-.88-1.36-1.79-1.39-2.21-.03-.45.65-.45,1.47-.37.85.09,1.84.26,2.81.71.94.45,1.9,1.19,2.64,1.96.74.77,1.28,1.56,1.62,2.41.37.88.54,1.79.48,2.49-.06.68-.34,1.16-.62,1.62.62-.06,1.22-.14,1.79-.43.57-.28,1.05-.79,1.36-1.56.28-.79.37-1.84.28-2.78-.09-.94-.34-1.76-.6-2.58.74.11,1.47.23,2.01.45.54.26.88.65,1.25,1.16.37.51.77,1.16.99,1.79.26.62.34,1.28.43,1.93.51-.37,1.05-.71,1.42-1.22.4-.48.62-1.16.74-1.84.09-.65.03-1.36-.03-2.04.88,0,1.79.03,2.72-.09.94-.11,1.96-.37,3.12-.94,1.19-.57,2.52-1.45,3.66-2.58,1.16-1.13,2.1-2.52,2.66-3.66.54-1.13.71-1.98.85-2.86-.4.45-.82.91-1.36,1.36-.57.45-1.22.91-1.96,1.25-.74.34-1.56.57-2.83.79-1.28.23-3.03.45-4.88.48-1.81.03-3.71-.14-5.44-.34s-3.29-.43-5.1-.79c-1.79-.4-3.8-.94-6.26-1.47-2.44-.51-5.36-1.02-7.68-1.33-2.32-.28-4.03-.37-5.44-.45-1.42-.06-2.49-.11-3.8,0-1.28.11-2.78.37-4.2.77-1.42.4-2.78.94-4.05,1.53-1.25.6-2.41,1.25-3.29,1.96-.88.74-1.47,1.47-2.04,2.24-.03-.71-.06-1.45-.17-2.13-.11-.65-.31-1.28-.71-2.01s-.99-1.62-1.56-2.32c-.6-.68-1.16-1.19-1.73-1.7h0c-.57.51-1.16,1.02-1.73,1.7-.6.71-1.19,1.59-1.59,2.32s-.6,1.36-.71,2.01c-.11.68-.14,1.42-.14,2.13-.6-.77-1.19-1.5-2.07-2.24-.88-.71-2.04-1.36-3.29-1.96-1.25-.6-2.61-1.13-4.03-1.53-1.45-.4-2.92-.65-4.22-.77-1.3-.11-2.38-.06-3.8,0-1.39.09-3.12.17-5.44.45-2.3.31-5.22.82-7.68,1.33-2.47.54-4.48,1.08-6.26,1.47-1.79.37-3.34.6-5.07.79s-3.63.37-5.47.34c-1.84-.03-3.6-.26-4.88-.48-1.28-.23-2.07-.45-2.81-.79-.74-.34-1.42-.79-1.96-1.25-.57-.45-.96-.91-1.39-1.36.14.88.31,1.73.85,2.86.57,1.13,1.53,2.52,2.66,3.66,1.16,1.13,2.49,2.01,3.66,2.58,1.16.57,2.18.82,3.12.94.96.11,1.84.09,2.72.09-.06.68-.11,1.36,0,2.04.09.68.34,1.36.71,1.84.4.51.91.85,1.42,1.22.09-.65.17-1.3.43-1.93.26-.62.65-1.28,1.02-1.79.34-.51.68-.91,1.22-1.16.54-.23,1.28-.34,2.04-.45-.28.82-.54,1.64-.62,2.58s0,1.98.31,2.78c.28.77.79,1.28,1.33,1.56.57.28,1.16.37,1.79.43-.28-.45-.57-.94-.62-1.62-.03-.71.14-1.62.48-2.49.37-.85.91-1.64,1.64-2.41.74-.77,1.67-1.5,2.64-1.96.96-.45,1.96-.62,2.78-.71.82-.09,1.5-.09,1.47.37,0,.43-.74,1.33-1.39,2.21-.65.91-1.22,1.81-1.62,2.86-.4,1.05-.62,2.24-.6,3.4.06,1.19.4,2.32.82,3.32.4.99.91,1.81,1.59,2.61.65.79,1.5,1.53,2.27,2.1.79.6,1.56.99,2.38,1.36s1.76.71,2.72.91c.99.23,2.07.28,3.23.28,1.16-.03,2.47-.17,3.69-.45,1.22-.31,2.35-.79,3.26-1.42.91-.62,1.59-1.39,2.04-2.24.45-.82.68-1.7.77-2.52.09-.79.06-1.5.09-2.04,0-.54.03-.88.14-1.25.11-.34.28-.68.65-.94.34-.23.85-.34,1.42-.34.57-.03,1.16.09,1.59.4.43.31.68.88.91,1.42.14-.88.31-1.76.17-2.49-.11-.77-.54-1.39-.99-1.87-.48-.48-.99-.82-1.76-.96-.77-.14-1.73-.09-2.72,0-.28-.85-.57-1.73-.91-2.32s-.71-.96-1.02-1.22l-.77-.6c-.43.51-.85.99-1.16,1.45-.28.45-.45.88-.54,1.33-.11.43-.17.88-.2,1.33-.79-.06-1.56-.14-2.32.03-.77.17-1.56.57-2.13.99-.54.43-.85.85-1.02,1.36-.2.54-.26,1.13-.26,1.67.03.51.11.96.2,1.42.31-.4.62-.77,1.05-1.11.45-.34,1.02-.65,1.59-.65.57-.03,1.16.23,1.56.6.37.34.6.79.57,1.47,0,1.45-.68,2.86-2.01,3.51-.62.31-1.39.51-2.27.6-3.54.28-6.52-1.59-6.72-5.36-.17-3.66,2.89-7.14,5.84-8.9,3.57-2.15,9.13-2.3,12.81-.37,6.83,3.54,8.84,11.48,7.34,18.65-.77,3.23-2.35,6.07-4.79,8.5-2.44,2.47-5.5,3.63-9.24,3.49-3.83-.11-9.04-1.96-15.62-5.58-6.58-3.6-14.68-8.31-24.35-14.06-8.33-5.19-15.96-9.61-22.88-13.24-6.92-3.66-12.7-5.47-17.32-5.47s-8.62,1.47-11.68,4.48c-3.06,3-4.73,5.78-5.07,8.42v-.06c-.4-2.55-2.15-5.3-5.22-8.31-3.06-3.03-6.92-4.54-11.62-4.54s-10.4,1.84-17.35,5.53c-6.94,3.69-14.63,8.08-23.02,13.12-9.64,5.78-17.72,10.52-24.24,14.12-6.52,3.63-11.68,5.47-15.53,5.5-3.8.28-6.89-.79-9.33-3.26-2.44-2.44-4-5.3-4.68-8.59-1.25-5.53-.26-11.91,4.11-16.21.96-.96,2.04-1.87,3.26-2.49,3.15-1.64,6.97-1.7,10.29-.71,4.62,1.39,10.35,7.17,7.74,12.42-1.47,2.92-5.61,3.69-8.36,2.32-1.36-.65-2.01-2.07-2.01-3.51-.03-.68.2-1.13.57-1.47.4-.37.96-.62,1.56-.6.57,0,1.13.31,1.56.65.45.34.77.71,1.08,1.11.09-.45.17-.91.17-1.42.03-.54-.03-1.13-.23-1.67-.17-.51-.48-.94-1.05-1.36-.54-.43-1.33-.82-2.1-.99-.77-.17-1.53-.09-2.32-.03-.03-.45-.09-.91-.2-1.33-.09-.45-.26-.88-.54-1.33-.31-.45-.74-.94-1.16-1.45l-.77.6c-.31.26-.71.62-1.02,1.22-.34.6-.62,1.47-.91,2.32-.99-.09-1.96-.14-2.72,0-.77.14-1.28.48-1.76.96-.48.48-.88,1.11-.99,1.87-.14.74.03,1.62.17,2.49.23-.54.48-1.11.91-1.42.43-.31,1.02-.43,1.59-.4.57,0,1.08.11,1.42.34.34.26.54.6.65.94.11.37.14.71.14,1.25.03.54,0,1.25.09,2.04.09.82.31,1.7.77,2.52.45.85,1.13,1.62,2.04,2.24.91.62,2.04,1.11,3.26,1.42,1.22.28,2.52.43,3.69.45,1.16,0,2.24-.06,3.23-.28.96-.2,1.87-.54,2.72-.91.82-.37,1.59-.77,2.35-1.36.79-.57,1.64-1.3,2.3-2.1.68-.79,1.19-1.62,1.59-2.61.43-.99.77-2.13.79-3.32.06-1.16-.17-2.35-.57-3.4-.4-1.05-.96-1.96-1.62-2.86-.65-.88-1.39-1.79-1.42-2.21,0-.45.65-.45,1.5-.37.82.09,1.81.26,2.78.71s1.9,1.19,2.64,1.96c.74.77,1.28,1.56,1.64,2.41.34.88.51,1.79.48,2.49-.06.68-.34,1.16-.62,1.62.62-.06,1.22-.14,1.79-.43.54-.28,1.05-.79,1.33-1.56.31-.79.4-1.84.31-2.78-.09-.94-.37-1.76-.62-2.58.77.11,1.5.23,2.04.45.54.26.88.65,1.22,1.16.37.51.77,1.16,1.02,1.79.23.62.34,1.28.43,1.93.51-.37,1.02-.71,1.42-1.22.37-.48.62-1.16.71-1.84.11-.65.06-1.36,0-2.04.88,0,1.76.03,2.72-.09.94-.11,1.96-.37,3.12-.94,1.16-.57,2.49-1.45,3.66-2.58,1.13-1.13,2.1-2.52,2.64-3.66.57-1.13.74-1.98.88-2.86-.43.45-.82.91-1.39,1.36-.54.45-1.22.91-1.96,1.25-.74.34-1.53.57-2.81.79-1.28.23-3.06.45-4.88.48-1.84.03-3.74-.14-5.47-.34-1.73-.2-3.29-.43-5.07-.79-1.79-.4-3.8-.94-6.26-1.47-2.47-.51-5.39-1.02-7.68-1.33-2.32-.28-4.05-.37-5.44-.45-1.42-.06-2.52-.11-3.8,0-1.3.11-2.78.37-4.22.77-1.42.4-2.78.94-4.03,1.53-1.25.6-2.41,1.25-3.29,1.96-.88.74-1.47,1.47-2.07,2.24,0-.71-.03-1.45-.14-2.13-.11-.65-.31-1.28-.71-2.01-.43-.74-.99-1.62-1.59-2.32-.57-.68-1.16-1.19-1.73-1.7h0c-.57.51-1.13,1.02-1.73,1.7-.57.71-1.16,1.59-1.56,2.32s-.6,1.36-.71,2.01c-.11.68-.14,1.42-.17,2.13-.57-.77-1.16-1.5-2.04-2.24-.88-.71-2.04-1.36-3.32-1.96-1.25-.6-2.61-1.13-4.03-1.53s-2.92-.65-4.2-.77c-1.3-.11-2.41-.06-3.8,0-1.42.09-3.12.17-5.44.45-2.32.31-5.24.82-7.71,1.33-2.44.54-4.45,1.08-6.26,1.47-1.79.37-3.34.6-5.07.79s-3.63.37-5.44.34c-1.84-.03-3.6-.26-4.88-.48-1.3-.23-2.1-.45-2.83-.79-.74-.34-1.42-.79-1.96-1.25-.54-.45-.96-.91-1.39-1.36.17.88.31,1.73.88,2.86s1.5,2.52,2.66,3.66c1.13,1.13,2.47,2.01,3.66,2.58,1.16.57,2.15.82,3.12.94.94.11,1.81.09,2.72.09-.06.68-.11,1.36-.03,2.04.11.68.34,1.36.74,1.84.37.51.91.85,1.42,1.22.09-.65.17-1.3.43-1.93.23-.62.62-1.28.99-1.79s.71-.91,1.25-1.16c.54-.23,1.28-.34,2.01-.45-.26.82-.51,1.64-.6,2.58-.09.94,0,1.98.28,2.78.31.77.79,1.28,1.36,1.56.57.28,1.16.37,1.76.43-.26-.45-.54-.94-.6-1.62-.06-.71.11-1.62.48-2.49.34-.85.88-1.64,1.62-2.41.74-.77,1.67-1.5,2.64-1.96s1.96-.62,2.81-.71c.82-.09,1.5-.09,1.47.37-.03.43-.77,1.33-1.42,2.21-.65.91-1.22,1.81-1.62,2.86-.4,1.05-.62,2.24-.57,3.4.06,1.19.37,2.32.79,3.32.43.99.94,1.81,1.59,2.61.68.79,1.5,1.53,2.3,2.1.79.6,1.53.99,2.38,1.36.82.37,1.73.71,2.72.91.99.23,2.04.28,3.2.28,1.19-.03,2.47-.17,3.69-.45,1.22-.31,2.38-.79,3.29-1.42.91-.62,1.59-1.39,2.04-2.24.43-.82.65-1.7.74-2.52.11-.79.09-1.5.09-2.04s.06-.88.14-1.25c.11-.34.31-.68.65-.94.37-.23.88-.34,1.42-.34.57-.03,1.19.09,1.62.4.43.31.65.88.91,1.42.14-.88.28-1.76.17-2.49-.14-.77-.54-1.39-1.02-1.87-.45-.48-.99-.82-1.76-.96-.74-.14-1.73-.09-2.69,0-.28-.85-.57-1.73-.91-2.32-.34-.6-.74-.96-1.05-1.22l-.77-.6c-.43.51-.85.99-1.13,1.45-.31.45-.45.88-.57,1.33-.11.43-.14.88-.2,1.33-.77-.06-1.53-.14-2.32.03-.77.17-1.56.57-2.1.99-.54.43-.85.85-1.05,1.36-.17.54-.23,1.13-.23,1.67.03.51.11.96.2,1.42.31-.4.62-.77,1.05-1.11.43-.34,1.02-.65,1.59-.65.57-.03,1.13.23,1.53.6.4.34.6.79.6,1.47-.03,1.45-.68,2.86-2.01,3.51-.62.31-1.42.51-2.27.6-3.57.28-6.55-1.59-6.72-5.36-.2-3.66,2.89-7.14,5.81-8.9,3.57-2.15,9.16-2.3,12.81-.37,6.86,3.54,8.87,11.48,7.34,18.65-.77,3.23-2.35,6.07-4.79,8.5-2.41,2.47-5.5,3.63-9.24,3.49-3.83-.11-9.04-1.96-15.59-5.58-6.58-3.6-14.71-8.31-24.38-14.06-8.33-5.19-15.93-9.61-22.85-13.24-6.92-3.66-12.73-5.47-17.32-5.47s-8.62,1.47-11.71,4.48c-3.06,3-4.73,5.78-5.05,8.42v-.06c-.43-2.55-2.15-5.3-5.24-8.31-3.06-3.03-6.92-4.54-11.59-4.54s-10.4,1.84-17.35,5.53c-6.94,3.69-14.63,8.08-23.02,13.12-9.67,5.78-17.72,10.52-24.24,14.12-6.52,3.63-11.71,5.47-15.53,5.5-3.8.28-6.89-.79-9.33-3.26-2.44-2.44-4-5.3-4.71-8.59-1.25-5.53-.26-11.91,4.11-16.21.99-.96,2.07-1.87,3.29-2.49,3.12-1.64,6.94-1.7,10.29-.71,4.62,1.39,10.35,7.17,7.71,12.42-1.45,2.92-5.61,3.69-8.36,2.32-1.33-.65-1.98-2.07-2.01-3.51,0-.68.2-1.13.6-1.47.4-.37.96-.62,1.53-.6.57,0,1.16.31,1.59.65.45.34.74.71,1.05,1.11.09-.45.17-.91.2-1.42,0-.54-.06-1.13-.23-1.67-.2-.51-.51-.94-1.05-1.36-.54-.43-1.33-.82-2.1-.99-.79-.17-1.56-.09-2.32-.03-.06-.45-.09-.91-.2-1.33-.11-.45-.26-.88-.57-1.33-.28-.45-.71-.94-1.13-1.45l-.77.6c-.31.26-.71.62-1.05,1.22-.34.6-.62,1.47-.91,2.32-.96-.09-1.96-.14-2.69,0-.77.14-1.3.48-1.76.96-.48.48-.88,1.11-1.02,1.87-.11.74.03,1.62.2,2.49.23-.54.45-1.11.88-1.42.43-.31,1.05-.43,1.62-.4.57,0,1.05.11,1.42.34.34.26.54.6.65.94.11.37.14.71.14,1.25s-.03,1.25.09,2.04c.09.82.31,1.7.77,2.52.43.85,1.11,1.62,2.01,2.24.91.62,2.07,1.11,3.29,1.42,1.22.28,2.49.43,3.69.45,1.16,0,2.21-.06,3.2-.28.99-.2,1.9-.54,2.72-.91.85-.37,1.59-.77,2.38-1.36.79-.57,1.62-1.3,2.3-2.1.65-.79,1.16-1.62,1.59-2.61.43-.99.74-2.13.79-3.32.06-1.16-.17-2.35-.57-3.4-.4-1.05-.96-1.96-1.62-2.86-.65-.88-1.39-1.79-1.42-2.21-.03-.45.65-.45,1.47-.37.85.09,1.84.26,2.81.71.96.45,1.9,1.19,2.64,1.96.74.77,1.28,1.56,1.62,2.41.37.88.54,1.79.48,2.49-.06.68-.34,1.16-.6,1.62.6-.06,1.19-.14,1.76-.43.57-.28,1.05-.79,1.36-1.56.28-.79.37-1.84.28-2.78s-.34-1.76-.6-2.58c.74.11,1.5.23,2.01.45.54.26.88.65,1.25,1.16.37.51.77,1.16.99,1.79.26.62.34,1.28.43,1.93.54-.37,1.05-.71,1.42-1.22.4-.48.62-1.16.74-1.84.09-.65.03-1.36-.03-2.04.91,0,1.79.03,2.72-.09.96-.11,1.96-.37,3.12-.94,1.19-.57,2.52-1.45,3.66-2.58,1.16-1.13,2.1-2.52,2.66-3.66.57-1.13.71-1.98.88-2.86-.43.45-.85.91-1.39,1.36-.54.45-1.22.91-1.96,1.25-.74.34-1.53.57-2.83.79-1.28.23-3.03.45-4.88.48-1.81.03-3.71-.14-5.44-.34-1.73-.2-3.29-.43-5.07-.79-1.79-.4-3.8-.94-6.26-1.47-2.47-.51-5.39-1.02-7.71-1.33-2.32-.28-4.03-.37-5.44-.45-1.39-.06-2.49-.11-3.8,0-1.28.11-2.78.37-4.2.77s-2.78.94-4.03,1.53c-1.28.6-2.44,1.25-3.32,1.96-.88.74-1.45,1.47-2.04,2.24-.03-.71-.06-1.45-.14-2.13-.11-.65-.34-1.28-.74-2.01s-.99-1.62-1.56-2.32c-.6-.68-1.16-1.19-1.73-1.7h0c-.57.51-1.16,1.02-1.73,1.7-.6.71-1.16,1.59-1.56,2.32-.43.74-.62,1.36-.74,2.01-.11.68-.11,1.42-.14,2.13-.6-.77-1.19-1.5-2.07-2.24-.88-.71-2.04-1.36-3.29-1.96-1.25-.6-2.61-1.13-4.03-1.53-1.42-.4-2.92-.65-4.22-.77-1.28-.11-2.38-.06-3.8,0-1.39.09-3.12.17-5.41.45-2.32.31-5.24.82-7.71,1.33-2.47.54-4.48,1.08-6.26,1.47-1.79.37-3.34.6-5.07.79s-3.63.37-5.47.34c-1.81-.03-3.6-.26-4.88-.48-1.28-.23-2.07-.45-2.81-.79-.74-.34-1.42-.79-1.96-1.25-.57-.45-.96-.91-1.39-1.36.17.88.31,1.73.88,2.86.54,1.13,1.5,2.52,2.64,3.66,1.16,1.13,2.49,2.01,3.66,2.58,1.19.57,2.18.82,3.12.94.96.11,1.84.09,2.72.09-.06.68-.09,1.36,0,2.04.09.68.34,1.36.71,1.84.4.51.91.85,1.42,1.22.11-.65.2-1.3.43-1.93.26-.62.65-1.28,1.02-1.79s.68-.91,1.22-1.16c.54-.23,1.28-.34,2.04-.45-.26.82-.54,1.64-.62,2.58-.09.94,0,1.98.31,2.78.28.77.79,1.28,1.36,1.56.54.28,1.16.37,1.76.43-.28-.45-.57-.94-.6-1.62-.06-.71.11-1.62.45-2.49.37-.85.91-1.64,1.64-2.41s1.67-1.5,2.64-1.96c.96-.45,1.96-.62,2.78-.71.85-.09,1.53-.09,1.5.37-.03.43-.77,1.33-1.42,2.21-.65.91-1.22,1.81-1.62,2.86-.4,1.05-.62,2.24-.57,3.4.03,1.19.37,2.32.79,3.32.4.99.91,1.81,1.59,2.61.65.79,1.5,1.53,2.3,2.1.79.6,1.53.99,2.35,1.36.85.37,1.76.71,2.75.91.96.23,2.04.28,3.2.28,1.16-.03,2.47-.17,3.69-.45,1.22-.31,2.35-.79,3.26-1.42.91-.62,1.59-1.39,2.04-2.24.45-.82.68-1.7.77-2.52.09-.79.09-1.5.09-2.04s.03-.88.14-1.25c.11-.34.31-.68.65-.94.34-.23.85-.34,1.42-.34.57-.03,1.16.09,1.59.4.43.31.68.88.91,1.42.17-.88.31-1.76.17-2.49-.11-.77-.51-1.39-.99-1.87-.48-.48-.99-.82-1.76-.96-.77-.14-1.73-.09-2.72,0-.28-.85-.57-1.73-.91-2.32-.31-.6-.71-.96-1.02-1.22l-.77-.6c-.43.51-.85.99-1.16,1.45-.28.45-.45.88-.54,1.33-.11.43-.17.88-.2,1.33-.77-.06-1.56-.14-2.32.03-.77.17-1.56.57-2.1.99-.57.43-.88.85-1.05,1.36-.2.54-.26,1.13-.23,1.67,0,.51.09.96.17,1.42.31-.4.62-.77,1.08-1.11.43-.34.99-.65,1.56-.65.6-.03,1.16.23,1.56.6.4.34.6.79.6,1.47-.03,1.45-.68,2.86-2.04,3.51-.62.31-1.39.51-2.27.6-3.54.28-6.52-1.59-6.72-5.36-.17-3.66,2.89-7.14,5.84-8.9,3.57-2.15,9.13-2.3,12.81-.37,6.83,3.54,8.84,11.48,7.34,18.65h0Z"/>
  </g>
</svg>