<?xml version="1.0" encoding="UTF-8"?>
<svg id="_Слой_2" data-name="Слой 2" xmlns="http://www.w3.org/2000/svg" viewBox="0 0 481.92 151.11">
  <defs>
    <style>
      .cls-1 {
        fill: #E0F2F1;
        fill-rule: evenodd;
        stroke-width: 0px;
      }
    </style>
  </defs>
  <g id="Layer_1" data-name="Layer 1">
    <path class="cls-1" d="M240.96,88.93c1.24,4,2.49,8,3.98,11.82,13.11,33.4,52.78,43.38,82.37,27.49,6.92-3.71,12.97-8.23,18.95-13.67,5.98-5.42,11.87-11.76,17.27-16.9,5.39-5.13,10.27-9.08,15.89-11.94,5.6-2.88,11.94-4.7,18.68-4.23s13.89,3.24,18.88,6.92,7.84,8.27,9.26,12.79c4.5,14.36-5.91,28.87-21.22,28.24-13.87-.58-16.05-15.82-4.72-21.8,3.24-1.71,7.31-2.5,11.4-3.31-5.76-7.85-11.06-13.1-21.65-10.75-18.64,4.12-18.43,19.85-15.55,34.98-23.18,2.04-29.72,3.33-45.23,22.55,3.91-1.06,7.8-2.11,11.51-3.08,23.18-6,33.18-6.07,56.65-2.05,13.65,2.34,24.82,1.21,35.2-8.86,4.36-4.23,6.99-8.2,9.76-13.92,13.51,7.13,26.8,5.91,34.33-8.72,2.4-4.67,3.8-9.46,5.19-14.25-5.87,4.49-10.61,7.46-18.36,6.79-16.73-1.44-25.06-23.92-38.64-34.51-24.48-19.09-47.36-11.74-68.74,6.36-14.79,12.52-30.05,32.48-49.79,35.54-16.5,2.56-35.31-3.8-41.79-20.81-7.17-18.77,4.43-43.61,23.98-42.11,8.72.68,17.36,12.54,8.25,17.76-1.6.92-3.78,1.37-5.73.88-1.96-.5-3.69-1.96-4.95-3.46-1.24-1.5-2-3.04-2.77-4.61-.65,1.48-1.28,2.94-1.73,4.74-.45,1.8-.7,3.93-.45,5.87,1.03,8.05,10.07,11.4,16.97,12.36-.18,1.59-.34,3.17-.32,4.74.04,1.57.27,3.13.94,4.94.67,1.78,1.75,3.82,2.83,5.85l3.12-1.48c1.26-.65,2.85-1.57,4.45-3.39,1.6-1.84,3.22-4.58,4.85-7.31,7.87,2.32,17.09,4,20.95-5.6,1.01-2.49,1.13-5.62,1.28-8.77-1.24,1.73-2.47,3.46-4.18,4.25-1.69.79-3.89.65-5.8.2-1.93-.47-3.57-1.26-4.59-2.32-1.03-1.06-1.41-2.4-1.53-3.69-.11-1.28.18-2.5.41-4.38,4.03-32.59-38.19-46.28-63.24-25.52-1.84-19-4.5-27.24-16.36-42.53-11.85,15.29-14.52,23.52-16.36,42.53-25.06-20.75-67.26-7.06-63.24,25.52.23,1.87.54,3.1.41,4.38-.11,1.3-.5,2.63-1.51,3.69-1.03,1.06-2.68,1.86-4.59,2.32-1.93.45-4.11.59-5.82-.2-1.71-.79-2.94-2.52-4.16-4.25.13,3.15.27,6.29,1.26,8.77,3.87,9.6,13.1,7.93,20.95,5.6,1.62,2.74,3.24,5.48,4.85,7.31,1.6,1.82,3.21,2.74,4.47,3.39l3.1,1.48c1.08-2.04,2.18-4.07,2.85-5.85.65-1.8.88-3.37.92-4.94.04-1.57-.14-3.15-.32-4.74,6.9-.95,15.96-4.31,16.99-12.36.23-1.95-.02-4.07-.47-5.87-.43-1.8-1.08-3.26-1.71-4.74-.77,1.57-1.55,3.12-2.79,4.61-1.24,1.5-2.99,2.95-4.94,3.46-1.96.49-4.12.04-5.73-.88-9.11-5.22-.47-17.08,8.23-17.76,19.54-1.5,31.14,23.34,23.99,42.11-6.5,17-25.31,23.36-41.81,20.81-19.72-3.06-35-23.02-49.77-35.54-21.38-18.1-44.26-25.45-68.76-6.36-13.56,10.59-21.89,33.07-38.62,34.51-7.76.67-12.5-2.31-18.37-6.79,1.41,4.79,2.79,9.58,5.19,14.25,7.53,14.63,20.84,15.85,34.35,8.72,2.76,5.73,5.39,9.69,9.75,13.92,10.39,10.07,21.56,11.2,35.2,8.86,23.47-4.02,33.47-3.94,56.65,2.05,3.71.97,7.62,2.02,11.51,3.08-15.51-19.22-22.05-20.52-45.23-22.55,2.9-15.13,3.1-30.86-15.55-34.98-10.57-2.34-15.87,2.9-21.63,10.75,4.07.81,8.16,1.6,11.4,3.31,11.33,5.98,9.15,21.22-4.74,21.8-15.31.63-25.72-13.89-21.2-28.24,1.42-4.52,4.27-9.11,9.26-12.79s12.12-6.45,18.86-6.92c6.75-.47,13.1,1.35,18.7,4.23,5.6,2.86,10.5,6.81,15.89,11.94,5.39,5.13,11.29,11.47,17.27,16.9,5.96,5.44,12.01,9.96,18.93,13.67,29.61,15.89,69.28,5.91,82.39-27.49,1.5-3.82,2.72-7.82,3.96-11.82h0Z"/>
  </g>
</svg>