<svg width="420" height="120" viewBox="0 0 420 120" fill="none" xmlns="http://www.w3.org/2000/svg">
  <rect width="420" height="120" fill="url(#paint0_linear)"/>
  <g opacity="0.95">
    <circle cx="45" cy="34" r="28" fill="#6B0E15"/>
    <circle cx="73" cy="42" r="22" fill="#8B1621"/>
    <circle cx="98" cy="25" r="26" fill="#77111B"/>
    <circle cx="150" cy="30" r="30" fill="#8C1823"/>
    <circle cx="186" cy="46" r="22" fill="#6E0F17"/>
    <circle cx="228" cy="28" r="34" fill="#8D1722"/>
    <circle cx="270" cy="42" r="26" fill="#71101A"/>
    <circle cx="320" cy="30" r="30" fill="#8C1620"/>
    <circle cx="355" cy="42" r="24" fill="#6E0D15"/>
    <circle cx="387" cy="26" r="28" fill="#7F1118"/>
  </g>
  <g opacity="0.85" fill="#45624D">
    <ellipse cx="30" cy="83" rx="16" ry="8" transform="rotate(-35 30 83)"/>
    <ellipse cx="65" cy="86" rx="18" ry="9" transform="rotate(25 65 86)"/>
    <ellipse cx="120" cy="86" rx="18" ry="9" transform="rotate(-28 120 86)"/>
    <ellipse cx="170" cy="86" rx="18" ry="9" transform="rotate(20 170 86)"/>
    <ellipse cx="225" cy="84" rx="18" ry="9" transform="rotate(-22 225 84)"/>
    <ellipse cx="280" cy="86" rx="18" ry="9" transform="rotate(28 280 86)"/>
    <ellipse cx="335" cy="84" rx="18" ry="9" transform="rotate(-20 335 84)"/>
    <ellipse cx="388" cy="84" rx="16" ry="8" transform="rotate(30 388 84)"/>
  </g>
  <defs>
    <linearGradient id="paint0_linear" x1="210" y1="0" x2="210" y2="120" gradientUnits="userSpaceOnUse">
      <stop stop-color="#39080D" stop-opacity="0"/>
      <stop offset="1" stop-color="#39080D" stop-opacity="0.12"/>
    </linearGradient>
  </defs>
</svg>
