<?xml version="1.0" encoding="UTF-8"?>
<svg id="_Слой_2" data-name="Слой 2" xmlns="http://www.w3.org/2000/svg" viewBox="0 0 663.01 51">
  <defs>
    <style>
      .cls-1 {
        fill: #8e4047;
        fill-rule: evenodd;
        stroke-width: 0px;
      }
    </style>
  </defs>
  <g id="Layer_1" data-name="Layer 1">
    <g>
      <path class="cls-1" d="M620.7,2.49c.26-.45.62-.99.96-1.45.37-.43.74-.74,1.08-1.05.23.2.43.43.68.68.23.26.48.57.77,1.02.28.48.6,1.08.79,1.64.17.57.26,1.08.37,1.59.65-.65,1.33-1.3,1.98-1.81.65-.54,1.28-.91,2.07-1.25.79-.31,1.73-.54,2.75-.71,1.02-.14,2.13-.17,3.4-.11s2.72.2,4.34.43c1.59.26,3.34.6,5.3.94,1.93.37,4.03.74,5.73,1.02,1.7.26,3.03.43,4.14.48,1.08.06,1.98,0,2.81-.14.82-.17,1.59-.4,2.21-.85.62-.43,1.11-1.05,1.56-1.7-.03.45-.03.91-.14,1.33-.11.43-.34.79-.6,1.22s-.6.88-.99,1.33c-.4.48-.85.96-1.28,1.33-.43.37-.82.62-1.28.85-.45.23-.99.43-1.53.51-.51.11-.99.11-1.39.09-.4-.06-.68-.14-.96-.23.06.51.14,1.02.06,1.53-.11.48-.34.96-.6,1.28-.28.34-.57.51-.85.71-.03-.43-.06-.85-.17-1.28-.14-.45-.37-.88-.62-1.19-.26-.31-.51-.51-.82-.65-.34-.11-.74-.17-1.13-.23.11.37.23.77.26,1.16.06.43,0,.88-.14,1.3-.17.45-.45.88-.79,1.16-.31.28-.68.45-1.05.62.11-.28.26-.57.28-.91.03-.34-.06-.77-.2-1.22-.14-.48-.37-.99-.68-1.47-.31-.45-.74-.85-1.16-1.16-.43-.31-.85-.57-1.36-.74-.48-.17-1.05-.26-1.53-.31-.48-.06-.88-.09-1.3-.11.4.4.79.77,1.13,1.19.37.4.68.85.96,1.33.28.51.51,1.02.62,1.59.14.57.14,1.16.09,1.76s-.2,1.16-.43,1.7c-.2.54-.51,1.05-.88,1.53s-.79.94-1.28,1.3c-.48.4-.99.68-1.56.94-.57.28-1.22.54-1.84.71-.65.2-1.28.28-1.9.28s-1.19-.06-1.76-.14c-.6-.11-1.13-.26-1.59-.45-.43-.17-.74-.37-1.11-.65-.34-.28-.74-.62-1.02-1.08-.28-.43-.43-.94-.51-1.45-.09-.51-.09-1.02-.09-1.42s0-.65-.14-.91c-.14-.28-.4-.57-.77-.65-.37-.11-.82-.03-1.19.2-.37.2-.65.54-.91.88-.09-.45-.14-.94-.11-1.33.03-.4.17-.74.4-1.05.23-.31.57-.6.94-.77.37-.17.79-.26,1.16-.28.37-.03.68-.03.99,0,0-.26.03-.51.11-.79.09-.26.23-.57.4-.85.2-.28.45-.57.68-.85.31.23.62.43.82.68.23.26.37.54.51.85.11.31.23.68.34,1.02.57-.03,1.13-.09,1.62,0,.51.09.94.31,1.25.65s.54.79.6,1.25c.06.48-.06.94-.17,1.42-.06-.23-.14-.45-.31-.65-.14-.2-.43-.4-.74-.48-.34-.09-.71-.09-1.02.03-.34.11-.6.31-.74.62-.17.28-.2.68-.17,1.08.06.4.2.79.45,1.13s.62.62,1.16.79c.54.17,1.22.23,1.9.11.68-.09,1.33-.37,1.84-.74.51-.34.85-.77,1.05-1.33s.2-1.3.09-2.04c-.14-.74-.4-1.47-.82-2.13-.45-.68-1.02-1.33-1.67-1.87-.62-.57-1.3-1.02-2.13-1.33-.82-.31-1.76-.45-2.66-.48-.88,0-1.7.09-2.44.28-.77.17-1.47.45-2.13.88-.68.43-1.3.96-1.87,1.56-.57.62-1.05,1.3-1.36,2.01-.34.71-.51,1.45-.57,2.24s0,1.59.2,2.41c.17.82.51,1.62.85,2.3.37.68.77,1.22,1.19,1.7.45.48.94.91,1.5,1.3.54.43,1.13.79,1.9,1.08.74.28,1.64.43,2.61.45.94,0,1.93-.14,2.92-.37.99-.23,1.98-.54,3.09-.96,1.13-.45,2.38-.99,3.8-1.59l4.31-1.9c1.39-.6,2.61-1.11,3.88-1.47s2.61-.6,3.86-.65,2.44.03,3.37.23c.96.2,1.7.48,2.32.91.62.4,1.16.91,1.53,1.53.37.6.6,1.3.71,2.01.11.68.09,1.36-.06,2.04-.11.65-.4,1.33-.94,1.98-.54.68-1.39,1.39-2.21,2.04l-9.24.03h.03l9.21-.03c.82.65,1.67,1.42,2.21,2.07.54.65.82,1.33.94,2.01.14.65.17,1.33.06,2.04-.11.68-.34,1.39-.71,1.98-.37.62-.91,1.13-1.53,1.53-.62.43-1.36.71-2.32.91-.94.2-2.13.28-3.37.23-1.25-.06-2.58-.28-3.86-.65s-2.49-.88-3.88-1.47l-4.31-1.9c-1.42-.6-2.66-1.13-3.8-1.56-1.11-.45-2.1-.77-3.09-.99-.99-.23-1.98-.37-2.92-.37-.96.03-1.87.17-2.61.45-.77.28-1.36.68-1.9,1.08-.57.43-1.05.85-1.5,1.33-.43.48-.82,1.02-1.19,1.67-.34.68-.68,1.5-.85,2.3-.2.82-.26,1.64-.2,2.41.06.79.23,1.53.57,2.24.31.74.79,1.39,1.36,2.01.57.6,1.19,1.16,1.87,1.56.65.43,1.36.71,2.13.91.74.17,1.56.28,2.44.26.91-.03,1.84-.17,2.66-.48.82-.28,1.5-.77,2.13-1.33.65-.54,1.22-1.16,1.67-1.84.43-.68.68-1.42.82-2.15.11-.71.11-1.45-.09-2.04-.2-.57-.54-.99-1.05-1.33-.51-.34-1.16-.62-1.84-.74-.68-.11-1.36-.06-1.9.11-.54.17-.91.45-1.16.79-.26.34-.4.74-.45,1.13-.03.4,0,.79.17,1.11.14.28.4.48.74.6.31.11.68.11,1.02.03.31-.09.6-.26.74-.45.17-.2.26-.45.31-.68.11.48.23.94.17,1.42-.06.45-.28.94-.6,1.28-.31.34-.74.54-1.25.62-.48.09-1.05.06-1.62,0-.11.34-.23.71-.34,1.02-.14.31-.28.62-.51.85-.2.26-.51.48-.82.68-.23-.28-.48-.57-.68-.85-.17-.28-.31-.57-.4-.85-.09-.28-.11-.54-.11-.79-.31.03-.62.06-.99,0-.37-.03-.79-.09-1.16-.28-.37-.17-.71-.45-.94-.77-.23-.31-.37-.65-.4-1.05-.03-.4.03-.85.11-1.33.26.34.54.68.91.91.37.2.82.28,1.19.17.37-.09.62-.37.77-.62.14-.28.14-.54.14-.94s0-.91.09-1.42c.09-.51.23-1.02.51-1.45s.68-.79,1.02-1.08c.37-.28.68-.48,1.11-.65.45-.17.99-.34,1.59-.43.57-.11,1.13-.17,1.76-.17.62.03,1.25.11,1.9.28.62.17,1.28.43,1.84.71.57.26,1.08.57,1.56.94.48.37.91.82,1.28,1.3.37.48.68.99.88,1.53.23.54.37,1.13.43,1.7.06.6.06,1.19-.09,1.76-.11.57-.34,1.08-.62,1.59-.28.48-.6.94-.96,1.33-.34.43-.74.79-1.13,1.19.43-.03.82-.06,1.3-.11s1.05-.14,1.53-.31c.51-.17.94-.4,1.36-.74.43-.31.85-.71,1.16-1.16.31-.45.54-.99.68-1.45.14-.48.23-.91.2-1.25-.03-.34-.17-.62-.28-.88.37.14.74.31,1.05.6.34.31.62.74.79,1.16.14.45.2.88.14,1.3-.03.43-.14.79-.26,1.16.4-.06.79-.11,1.13-.23.31-.14.57-.34.82-.65.26-.31.48-.74.62-1.16.11-.45.14-.88.17-1.3.28.2.57.37.85.71.26.31.48.79.6,1.28.09.51,0,1.02-.06,1.53.28-.09.57-.17.96-.2.4-.06.88-.03,1.39.06.54.09,1.08.28,1.53.51.45.23.85.48,1.28.85.43.37.88.88,1.28,1.33s.74.91.99,1.33.48.82.6,1.22c.11.43.11.88.14,1.33-.45-.62-.94-1.28-1.56-1.7-.62-.45-1.39-.68-2.21-.82-.82-.17-1.73-.2-2.81-.17-1.11.06-2.44.23-4.14.51-1.7.26-3.8.62-5.73.99-1.96.34-3.71.68-5.3.94-1.62.23-3.06.4-4.34.45s-2.38,0-3.4-.14c-1.02-.14-1.96-.4-2.75-.71-.79-.31-1.42-.71-2.07-1.22-.65-.54-1.33-1.19-1.98-1.81-.11.51-.2.99-.37,1.56-.2.57-.51,1.19-.79,1.64-.28.45-.54.77-.77,1.05-.26.26-.45.45-.68.65-.34-.31-.71-.62-1.08-1.05-.34-.43-.71-.99-.96-1.45-.26-.45-.37-.85-.45-1.25-.06-.43-.09-.88-.09-1.33-.37.48-.74.94-1.28,1.39-.54.45-1.28.85-2.04,1.22-.79.37-1.64.71-2.52.96-.88.26-1.81.4-2.61.48-.82.06-1.47.03-2.35-.03-.88-.03-1.96-.09-3.4-.28-1.42-.17-3.23-.48-4.76-.82-1.53-.31-2.78-.68-3.91-.91-1.11-.23-2.07-.37-3.15-.48-1.08-.11-2.27-.23-3.4-.23-1.13.03-2.21.17-3.03.31-.79.14-1.28.28-1.73.48-.45.23-.88.51-1.22.79-.34.26-.6.54-.88.82.11-.54.2-1.08.54-1.79.37-.68.96-1.56,1.67-2.27.71-.71,1.53-1.25,2.27-1.59.71-.37,1.36-.51,1.93-.6.6-.06,1.13-.06,1.7-.03-.03-.43-.06-.88,0-1.3.06-.4.2-.82.43-1.13.26-.31.57-.51.91-.74.06.4.09.79.26,1.19.14.4.4.79.62,1.11.23.31.43.57.77.71.34.17.79.23,1.25.28-.14-.51-.31-.99-.37-1.59s0-1.25.17-1.73c.2-.48.51-.79.85-.96.34-.2.74-.23,1.11-.28-.17.31-.34.6-.37,1.02-.03.43.06,1.02.28,1.53.23.54.57,1.05,1.02,1.5.45.48,1.05.94,1.64,1.22.6.28,1.19.4,1.73.45.51.06.94.06.91-.23,0-.28-.45-.82-.88-1.39-.4-.54-.74-1.11-.99-1.76s-.4-1.39-.37-2.13c.03-.74.26-1.45.51-2.07.26-.6.57-1.13.99-1.62.4-.48.94-.96,1.42-1.3.48-.37.96-.62,1.47-.85.51-.23,1.08-.43,1.7-.57.6-.11,1.28-.17,1.98-.17.74.03,1.53.11,2.3.28.77.2,1.47.51,2.04.88.57.4.96.88,1.25,1.39.28.51.43,1.08.48,1.56.06.51.06.96.06,1.28,0,.34.03.57.09.79.06.2.2.43.4.57.23.14.54.23.88.23.37,0,.74-.06.99-.26.28-.2.43-.54.57-.88.09.54.2,1.08.11,1.56-.09.45-.34.85-.62,1.16-.28.28-.62.51-1.08.6-.48.09-1.11.03-1.7,0-.17.54-.34,1.05-.57,1.45-.2.37-.45.6-.62.74l-.48.37c-.28-.31-.54-.6-.71-.88-.2-.31-.28-.57-.37-.82-.06-.28-.09-.57-.11-.85-.48.06-.96.09-1.45-.03-.48-.09-.96-.34-1.3-.6-.34-.26-.54-.54-.65-.85-.11-.34-.14-.71-.14-1.02,0-.34.06-.62.11-.91.2.26.4.48.65.71.28.2.62.4.99.4.37.03.71-.14.96-.37.23-.23.37-.51.37-.91,0-.43-.14-.96-.37-1.36-.23-.4-.51-.65-.91-.85-.37-.17-.85-.31-1.39-.37-.54-.03-1.13,0-1.62.14-.51.11-.94.31-1.3.6-.34.28-.65.65-.88,1.08-.23.45-.37.99-.37,1.53-.03.54.06,1.11.2,1.59.14.51.37.94.71,1.42.37.48.85.99,1.33,1.42.45.45.88.82,1.36,1.11.48.28.99.48,1.59.65.57.2,1.19.31,1.87.4.65.06,1.36.06,2.13-.09.79-.11,1.62-.34,2.38-.74.77-.37,1.45-.94,2.04-1.53s1.13-1.25,1.56-1.87c.4-.62.65-1.25.79-2.04.11-.82.11-1.81-.09-2.81-.2-.96-.57-1.93-1.19-2.83-.62-.94-1.47-1.87-2.32-2.55-.88-.68-1.73-1.13-2.44-1.39-.68-.26-1.25-.34-1.84-.37-.6-.03-1.22-.06-1.9.03-.68.06-1.42.2-2.32.57-.91.37-1.98.96-3.29,1.7-1.3.74-2.86,1.64-4.39,2.49-1.5.85-3.03,1.64-4.31,2.32-1.3.68-2.35,1.25-3.88,2.04-1.53.79-3.51,1.81-6.15,3.23s-5.95,3.2-8.31,4.48c-2.32,1.25-3.71,1.96-4.96,2.49s-2.35.94-3.46,1.25c-1.08.34-2.15.6-3.2.74-1.08.17-2.1.2-3.09.2s-1.96-.06-2.83-.17c-.88-.14-1.64-.31-2.49-.62-.85-.31-1.81-.77-2.64-1.33-.82-.57-1.53-1.22-2.18-1.98-.65-.74-1.25-1.59-1.73-2.41-.45-.85-.79-1.7-1.02-2.52-.26-.82-.4-1.62-.51-2.44s-.17-1.67-.11-2.47c.06-.79.17-1.56.34-2.27.17-.74.37-1.42.65-2.1.28-.71.65-1.36,1.08-1.96.4-.6.88-1.11,1.42-1.62.54-.48,1.16-.96,1.81-1.39.65-.4,1.36-.71,2.04-1.02.68-.34,1.87-.88,2.44-.99h0c-.57-.14-1.76-.74-2.44-1.05-.68-.31-1.39-.65-2.04-1.05-.65-.4-1.28-.91-1.81-1.39-.54-.51-1.02-.99-1.42-1.59-.43-.6-.79-1.28-1.08-1.96-.28-.71-.48-1.39-.65-2.1-.17-.74-.28-1.5-.34-2.3s0-1.62.11-2.44c.11-.82.26-1.62.51-2.47.23-.82.57-1.67,1.02-2.49.48-.85,1.08-1.7,1.73-2.44.65-.77,1.36-1.42,2.18-1.98.82-.54,1.79-.99,2.64-1.33.85-.31,1.62-.48,2.49-.6.88-.14,1.84-.2,2.83-.2s2.01.06,3.09.2c1.05.14,2.13.4,3.2.74,1.11.31,2.21.71,3.46,1.25s2.64,1.25,4.96,2.49c2.35,1.28,5.67,3.09,8.31,4.48,2.64,1.42,4.62,2.44,6.15,3.23s2.58,1.36,3.88,2.04c1.28.71,2.81,1.5,4.31,2.35,1.53.82,3.09,1.73,4.39,2.47,1.3.74,2.38,1.33,3.29,1.7.91.37,1.64.51,2.32.57.68.09,1.3.06,1.9.03.6-.03,1.16-.11,1.84-.37.71-.26,1.56-.71,2.44-1.39.85-.68,1.7-1.59,2.32-2.52.62-.94.99-1.9,1.19-2.86.2-.99.2-1.98.09-2.81-.14-.79-.4-1.42-.79-2.04-.43-.62-.96-1.25-1.56-1.84-.6-.62-1.28-1.16-2.04-1.56-.77-.4-1.59-.62-2.38-.74-.77-.11-1.47-.14-2.13-.09-.68.09-1.3.23-1.87.4-.6.17-1.11.37-1.59.65-.48.28-.91.65-1.36,1.11-.48.43-.96.96-1.33,1.42-.34.48-.57.91-.71,1.42-.14.48-.23,1.05-.2,1.59,0,.57.14,1.08.37,1.53.23.43.54.79.88,1.08.37.28.79.48,1.3.6.48.14,1.08.17,1.62.14.54-.06,1.02-.17,1.39-.37.4-.2.68-.43.91-.82.23-.43.37-.96.37-1.39,0-.4-.14-.68-.37-.91-.26-.23-.6-.37-.96-.37-.37.03-.71.2-.99.43-.26.2-.45.43-.65.68-.06-.28-.11-.57-.11-.88,0-.34.03-.71.14-1.05.11-.31.31-.6.65-.85.34-.26.82-.51,1.3-.6.48-.11.96-.09,1.45-.03.03-.28.06-.57.11-.85.09-.26.17-.51.37-.79.17-.28.43-.6.71-.91l.48.37c.17.17.43.37.62.77.23.37.4.91.57,1.45.6-.06,1.22-.11,1.7-.03.45.09.79.31,1.08.62.28.28.54.68.62,1.16.09.45-.03.99-.11,1.56-.14-.34-.28-.71-.57-.91-.26-.2-.62-.26-.99-.26-.34.03-.65.09-.88.23-.2.14-.34.37-.4.6-.06.2-.09.43-.09.77s0,.77-.06,1.28c-.06.48-.2,1.05-.48,1.56-.28.51-.68.99-1.25,1.39-.57.4-1.28.68-2.04.88s-1.56.26-2.3.28c-.71,0-1.39-.03-1.98-.17-.62-.14-1.19-.34-1.7-.57-.51-.23-.99-.48-1.47-.85-.48-.34-1.02-.82-1.42-1.3-.43-.48-.74-.99-.99-1.62s-.48-1.33-.51-2.07c-.03-.71.11-1.47.37-2.13.26-.65.6-1.19.99-1.76.43-.57.88-1.11.88-1.39.03-.26-.4-.26-.91-.2-.54.03-1.13.14-1.73.43-.6.28-1.19.74-1.64,1.22s-.79.96-1.02,1.5c-.23.54-.31,1.11-.28,1.53.03.43.2.74.37,1.02-.37-.06-.77-.09-1.11-.28-.34-.17-.65-.48-.85-.96-.17-.48-.23-1.13-.17-1.73.06-.57.23-1.08.37-1.59-.45.06-.91.11-1.25.28-.34.14-.54.4-.77.71-.23.34-.48.71-.62,1.11-.17.4-.2.79-.26,1.19-.34-.2-.65-.43-.91-.74-.23-.31-.37-.71-.43-1.13-.06-.43-.03-.85,0-1.3-.57.03-1.11.03-1.7-.03-.57-.09-1.22-.23-1.93-.57-.74-.37-1.56-.91-2.27-1.62-.71-.71-1.3-1.56-1.67-2.27-.34-.71-.43-1.25-.54-1.79.28.28.54.57.88.85.34.28.77.54,1.22.77.45.2.94.34,1.73.48.82.14,1.9.31,3.03.31,1.13.03,2.32-.09,3.4-.23,1.08-.11,2.04-.23,3.15-.48,1.13-.23,2.38-.57,3.91-.91s3.34-.65,4.76-.82c1.45-.2,2.52-.23,3.4-.28.88-.06,1.53-.09,2.35,0,.79.06,1.73.23,2.61.45.88.26,1.73.6,2.52.96.77.37,1.5.79,2.04,1.22.54.45.91.94,1.28,1.39,0-.45.03-.91.09-1.3.09-.43.2-.79.45-1.28h0ZM595.22,25.48c-.79.54-1.59,1.13-2.47,1.64-.85.54-1.76,1.02-2.72,1.3-.96.31-1.96.37-2.83.34-.85-.03-1.53-.14-2.18-.4-.62-.28-1.16-.68-1.73-1.08.26.62.54,1.25.65,2.07.14.82.11,1.87-.06,2.78-.2.91-.57,1.67-1.13,2.3-.57.62-1.33,1.11-2.04,1.45-.71.31-1.36.45-2.01.6.34-.43.68-.88.91-1.47.23-.62.31-1.42.31-2.24.03-.82-.03-1.67-.28-2.38-.26-.71-.74-1.28-1.39-1.76-.62-.45-1.47-.82-2.35-.99-.91-.14-1.87-.09-2.81.11-.91.2-1.76.54-2.49,1.05-.74.54-1.36,1.28-1.73,2.1-.4.82-.54,1.73-.51,2.49.03.79.2,1.47.48,1.98.31.51.74.82,1.19,1.02s.96.26,1.42.17c.48-.09.94-.28,1.19-.57s.31-.65.34-1.02c.17.43.31.85.37,1.36.06.54.06,1.13-.11,1.67-.17.51-.48.94-.74,1.22-.26.28-.48.4-.79.51-.31.11-.68.23-1.08.26-.43.06-.85.06-1.25,0-.37-.06-.68-.14-1.02-.23,0,.68-.03,1.36-.17,1.9-.14.51-.43.88-.71,1.19-.28.31-.6.57-.94.82-.31-.31-.65-.6-.91-.94-.26-.31-.43-.65-.54-.99-.11-.34-.14-.65-.17-.99,0-.34.03-.68.03-1.02-.62.2-1.25.37-1.84.4-.6,0-1.19-.17-1.7-.48-.51-.31-.91-.79-1.16-1.33s-.37-1.13-.31-1.7c.06-.6.28-1.16.48-1.73.14.45.26.91.51,1.22.28.31.71.48,1.13.48.45.03.91-.11,1.28-.34.37-.26.65-.6.82-1.02.2-.43.31-.91.34-1.45.03-.57,0-1.19-.2-1.7-.2-.54-.57-.96-.96-1.3-.43-.34-.91-.6-1.5-.77-.57-.17-1.28-.23-1.84-.2-.6.03-1.08.14-1.73.45-.65.28-1.45.77-2.15,1.39-.68.6-1.28,1.36-1.73,2.21-.45.82-.77,1.76-.88,2.75-.11,1.02-.03,2.1.2,3.12.23.99.6,1.9,1.08,2.75.48.85,1.11,1.64,1.81,2.32.74.68,1.56,1.25,2.49,1.64.94.4,1.98.62,3.17.74,1.22.11,2.58.11,4.03-.06s3-.51,4.45-.96c1.47-.43,2.83-.96,5.19-2.18,2.38-1.19,5.73-3.12,9.41-5.19,3.69-2.07,7.71-4.31,10.69-6.01,3-1.7,4.96-2.86,6.72-3.8,1.76-.94,3.29-1.67,4.48-2.15,1.19-.45,2.07-.65,2.95-.77.91-.14,1.81-.17,2.78-.03.99.11,2.04.4,3,.77.96.37,1.84.82,2.64,1.36.77.57,1.47,1.22,2.18,1.98.71.79,1.39,1.73,2.1,2.66.43-.65.82-1.33,1.28-1.9.43-.6.91-1.11,1.39-1.59.48-.51.99-1.02,1.64-1.47.62-.45,1.36-.85,2.24-1.22.88-.34,1.9-.65,3.2-.79,1.3-.14,2.89-.09,4.37.2,1.47.28,2.86.79,4.28,1.36,1.45.6,2.95,1.28,4.65,2.04,1.67.77,3.51,1.59,4.99,2.13,1.45.57,2.49.82,3.37.94.85.11,1.47.06,2.01-.14.54-.23.94-.57,1.08-1.16.11-.57-.09-1.36-.6-2.1-.51-.77-1.36-1.45-2.47-2.04-1.11-.6-2.47-1.11-3.83-1.59,1.36-.48,2.72-.96,3.83-1.56,1.11-.57,1.96-1.28,2.47-2.04.51-.74.71-1.53.6-2.1-.14-.57-.54-.94-1.08-1.13-.54-.23-1.16-.26-2.01-.17-.88.11-1.93.4-3.37.94-1.47.54-3.32,1.36-4.99,2.13-1.7.77-3.2,1.45-4.65,2.04-1.42.6-2.81,1.08-4.28,1.36-1.47.28-3.06.34-4.37.2-1.3-.11-2.32-.45-3.2-.79-.88-.37-1.62-.77-2.24-1.22-.65-.45-1.16-.96-1.64-1.45-.48-.51-.96-1.02-1.39-1.62-.45-.57-.85-1.25-1.28-1.9-.71.94-1.39,1.87-2.1,2.66-.71.79-1.42,1.42-2.18,1.98-.79.54-1.67.99-2.64,1.36-.96.37-2.01.65-3,.79-.96.11-1.87.09-2.78-.03-.88-.11-1.76-.31-2.95-.79-1.19-.45-2.72-1.19-4.48-2.15-1.76-.94-3.71-2.1-6.72-3.8-2.98-1.67-7-3.94-10.69-6.01s-7.03-3.97-9.41-5.19c-2.35-1.22-3.71-1.73-5.19-2.18-1.45-.43-3-.79-4.45-.96-1.45-.17-2.81-.17-4.03-.03-1.19.11-2.24.31-3.17.71-.94.4-1.76.96-2.49,1.64-.71.68-1.33,1.47-1.81,2.32-.48.85-.85,1.76-1.08,2.78-.23.99-.31,2.07-.2,3.09.11.99.43,1.93.88,2.78.45.82,1.05,1.59,1.73,2.21.71.6,1.5,1.08,2.15,1.39.65.28,1.13.4,1.73.43.57.03,1.28-.03,1.84-.2.6-.17,1.08-.43,1.5-.77.4-.34.77-.77.96-1.28.2-.54.23-1.16.2-1.73-.03-.54-.14-1.02-.34-1.45-.17-.4-.45-.77-.82-1.02-.37-.23-.82-.37-1.28-.34-.43.03-.85.17-1.13.48-.26.31-.37.77-.51,1.25-.2-.6-.43-1.16-.48-1.76-.06-.57.06-1.16.31-1.7s.65-1.02,1.16-1.33c.51-.31,1.11-.48,1.7-.45.6,0,1.22.2,1.84.37,0-.34-.03-.68-.03-1.02.03-.34.06-.65.17-.99.11-.34.28-.68.54-.99.26-.34.6-.62.91-.91.34.26.65.51.94.79.28.31.57.68.71,1.22.14.51.17,1.19.17,1.87.34-.09.65-.17,1.02-.23.4-.03.82-.06,1.25,0,.4.06.77.17,1.08.28.31.09.54.23.79.48.26.28.57.71.74,1.25.17.51.17,1.11.11,1.64-.06.51-.2.94-.37,1.39-.03-.4-.09-.77-.34-1.05-.26-.28-.71-.48-1.19-.57-.45-.06-.96,0-1.42.17-.45.2-.88.51-1.19,1.02-.28.51-.45,1.19-.48,1.98-.03.79.11,1.67.51,2.49.37.82.99,1.56,1.73,2.1.74.54,1.59.85,2.49,1.05.94.2,1.9.26,2.81.11.88-.14,1.73-.54,2.35-.99.65-.48,1.13-1.02,1.39-1.73.26-.71.31-1.59.28-2.41,0-.82-.09-1.62-.31-2.24-.23-.6-.57-1.02-.91-1.47.65.14,1.3.31,2.01.62.71.31,1.47.79,2.04,1.42.57.62.94,1.42,1.13,2.32.17.91.2,1.93.06,2.75-.11.85-.4,1.45-.65,2.07.57-.4,1.11-.79,1.73-1.05.65-.28,1.33-.4,2.18-.43.88-.03,1.87.06,2.83.34.96.28,1.87.79,2.72,1.3.74.43,1.45.94,2.15,1.42h.03l.03.03.03.03.23.14Z"/>
      <path class="cls-1" d="M183.8,2.49c.26-.45.6-.99.96-1.45.37-.43.71-.74,1.08-1.05h0c.37.31.71.62,1.08,1.05.37.45.74.99.96,1.45.26.48.4.85.45,1.28.09.4.09.85.09,1.3.37-.45.74-.94,1.28-1.39.57-.43,1.28-.85,2.07-1.22.77-.37,1.62-.71,2.49-.96.88-.23,1.81-.4,2.61-.45.82-.09,1.5-.06,2.38,0,.85.06,1.93.09,3.37.28,1.45.17,3.26.48,4.79.82,1.53.34,2.78.68,3.88.91,1.11.26,2.07.37,3.15.48,1.08.14,2.27.26,3.4.23,1.13,0,2.24-.17,3.03-.31s1.28-.28,1.76-.48c.45-.23.88-.48,1.22-.77.31-.28.6-.57.85-.85-.11.54-.2,1.08-.54,1.79-.34.71-.94,1.56-1.64,2.27-.74.71-1.56,1.25-2.3,1.62-.71.34-1.33.48-1.93.57-.6.06-1.13.06-1.7.03.06.45.09.88.03,1.3-.06.43-.23.82-.45,1.13-.26.31-.57.54-.88.74-.06-.4-.11-.79-.26-1.19-.17-.4-.43-.77-.65-1.11-.23-.31-.43-.57-.77-.71-.31-.17-.79-.23-1.25-.28.17.51.31,1.02.37,1.59.06.6,0,1.25-.17,1.73-.2.48-.51.79-.85.96-.34.2-.71.23-1.11.28.17-.28.34-.6.4-1.02.03-.43-.09-.99-.31-1.53-.23-.54-.54-1.02-1.02-1.5-.45-.48-1.02-.94-1.62-1.22-.62-.28-1.22-.4-1.76-.43-.51-.06-.94-.06-.91.2.03.28.48.82.88,1.39.4.57.77,1.11.99,1.76.26.65.4,1.42.37,2.13-.03.74-.23,1.45-.51,2.07-.26.62-.57,1.13-.96,1.62-.43.48-.94.96-1.45,1.3-.48.37-.96.62-1.47.85-.51.23-1.08.43-1.67.57-.62.14-1.28.17-2.01.17-.74-.03-1.53-.09-2.3-.28-.74-.2-1.45-.48-2.01-.88s-.99-.88-1.28-1.39c-.28-.51-.43-1.08-.48-1.56-.06-.51-.03-.94-.03-1.28-.03-.34-.03-.57-.11-.77-.06-.23-.17-.45-.4-.6s-.54-.2-.88-.23c-.34,0-.74.06-.99.26s-.43.57-.57.91c-.09-.57-.2-1.11-.11-1.56.09-.48.34-.88.62-1.16.31-.31.62-.54,1.11-.62.45-.09,1.08-.03,1.67.03.17-.54.37-1.08.57-1.45.2-.4.45-.6.65-.77l.48-.37c.26.31.51.62.71.91.17.28.28.54.34.79.06.28.09.57.11.85.48-.06.96-.09,1.45.03.48.09.96.34,1.3.6.34.26.54.54.65.85.11.34.17.71.14,1.05,0,.31-.06.6-.11.88-.2-.26-.37-.48-.65-.68-.28-.23-.62-.4-.99-.43-.34,0-.71.14-.96.37-.23.23-.37.51-.34.91,0,.43.14.96.34,1.39.23.4.51.62.91.82s.88.31,1.39.37c.54.03,1.13,0,1.64-.14.48-.11.91-.31,1.28-.6.37-.28.65-.65.88-1.08.23-.45.37-.96.4-1.53.03-.54-.06-1.11-.23-1.59-.14-.51-.37-.94-.71-1.42-.37-.45-.85-.99-1.33-1.42-.45-.45-.88-.82-1.36-1.11s-.99-.48-1.56-.65c-.6-.17-1.22-.31-1.9-.4-.65-.06-1.36-.03-2.13.09-.77.11-1.62.34-2.38.74-.74.4-1.42.94-2.04,1.56-.6.6-1.13,1.22-1.53,1.84-.43.62-.68,1.25-.82,2.04-.11.82-.11,1.81.09,2.81.2.96.57,1.93,1.19,2.86.62.94,1.47,1.84,2.35,2.52.85.68,1.7,1.13,2.41,1.39.71.26,1.28.34,1.84.37.6.03,1.22.06,1.9-.03.68-.06,1.42-.2,2.32-.57.91-.37,1.98-.96,3.29-1.7,1.33-.74,2.86-1.64,4.39-2.47,1.53-.85,3.03-1.64,4.31-2.35,1.3-.68,2.38-1.25,3.88-2.04,1.53-.79,3.51-1.81,6.15-3.23,2.66-1.39,5.95-3.2,8.31-4.48,2.35-1.25,3.74-1.96,4.99-2.49,1.25-.54,2.32-.94,3.43-1.25,1.08-.34,2.15-.6,3.23-.74,1.05-.14,2.07-.2,3.09-.2s1.96.06,2.81.2c.88.11,1.64.28,2.49.6.88.34,1.81.79,2.64,1.33.82.57,1.53,1.22,2.18,1.98.65.74,1.25,1.59,1.73,2.44.45.82.79,1.67,1.02,2.49.26.85.4,1.64.51,2.47.11.82.17,1.64.11,2.44-.03.79-.17,1.56-.34,2.3-.17.71-.37,1.39-.65,2.1-.28.68-.65,1.36-1.05,1.96-.43.6-.91,1.08-1.45,1.59-.54.48-1.13.99-1.81,1.39-.65.4-1.36.74-2.04,1.05-.68.31-1.84.91-2.41,1.05h-.03.03c.57.11,1.73.65,2.41.99.68.31,1.39.62,2.04,1.02.68.43,1.28.91,1.81,1.39.54.51,1.02,1.02,1.45,1.62.4.6.77,1.25,1.05,1.96.28.68.48,1.36.65,2.1.17.71.31,1.47.34,2.27.06.79,0,1.64-.11,2.47-.11.82-.26,1.62-.51,2.44-.23.82-.57,1.67-1.02,2.52-.48.82-1.08,1.67-1.73,2.41-.65.77-1.36,1.42-2.18,1.98s-1.76,1.02-2.64,1.33c-.85.31-1.62.48-2.49.62-.85.11-1.81.17-2.81.17s-2.04-.03-3.09-.2c-1.08-.14-2.15-.4-3.23-.74-1.11-.31-2.18-.71-3.43-1.25-1.25-.54-2.64-1.25-4.99-2.49-2.35-1.28-5.64-3.06-8.31-4.48-2.64-1.42-4.62-2.44-6.15-3.23-1.5-.79-2.58-1.36-3.88-2.04-1.28-.68-2.78-1.47-4.31-2.32-1.53-.85-3.06-1.76-4.39-2.49-1.3-.74-2.38-1.33-3.29-1.7-.91-.37-1.64-.51-2.32-.57-.68-.09-1.3-.06-1.9-.03-.57.03-1.13.11-1.84.37s-1.56.71-2.41,1.39c-.88.68-1.73,1.62-2.35,2.55-.62.91-.99,1.87-1.19,2.83-.2.99-.2,1.98-.09,2.81.14.79.4,1.42.82,2.04.4.62.94,1.28,1.53,1.87.62.6,1.3,1.16,2.04,1.53.77.4,1.62.62,2.38.74.77.14,1.47.14,2.13.09.68-.09,1.3-.2,1.9-.4.57-.17,1.08-.37,1.56-.65.48-.28.91-.65,1.36-1.11.48-.43.96-.94,1.33-1.42.34-.48.57-.91.71-1.42.17-.48.26-1.05.23-1.59-.03-.54-.17-1.08-.4-1.53-.23-.43-.51-.79-.88-1.08-.37-.28-.79-.48-1.28-.6-.51-.14-1.11-.17-1.64-.14-.51.06-.99.2-1.39.37-.4.2-.68.45-.91.85-.2.4-.34.94-.34,1.36-.03.4.11.68.34.91.26.23.62.4.96.37.37,0,.71-.2.99-.4.28-.23.45-.45.65-.71.06.28.11.57.11.91.03.31-.03.68-.14,1.02-.11.31-.31.6-.65.85-.34.26-.82.51-1.3.6-.48.11-.96.09-1.45.03-.03.28-.06.57-.11.85-.06.26-.17.51-.34.82-.2.28-.45.57-.71.88l-.48-.37c-.2-.14-.45-.37-.65-.74-.2-.4-.4-.91-.57-1.45-.6.03-1.22.09-1.67,0-.48-.09-.79-.31-1.11-.6-.28-.31-.54-.71-.62-1.16-.09-.48.03-1.02.11-1.56.14.34.31.68.57.88s.65.26.99.26.65-.09.88-.23.34-.37.4-.57c.09-.23.09-.45.11-.79,0-.31-.03-.77.03-1.28.06-.48.2-1.05.48-1.56.28-.51.71-.99,1.28-1.39.57-.37,1.28-.68,2.01-.88.77-.17,1.56-.26,2.3-.28.74,0,1.39.06,2.01.17.6.14,1.16.34,1.67.57s.99.48,1.47.85c.51.34,1.02.82,1.45,1.3.4.48.71,1.02.96,1.62.28.62.48,1.33.51,2.07.03.74-.11,1.47-.37,2.13-.23.65-.6,1.22-.99,1.76-.4.57-.85,1.11-.88,1.39-.03.28.4.28.91.23.54-.06,1.13-.17,1.76-.45.6-.28,1.16-.74,1.62-1.22.48-.45.79-.96,1.02-1.5.23-.51.34-1.11.31-1.53-.06-.43-.23-.71-.4-1.02.4.06.77.09,1.11.28.34.17.65.48.85.96.17.48.23,1.13.17,1.73s-.2,1.08-.37,1.59c.45-.06.94-.11,1.25-.28.34-.14.54-.4.77-.71.23-.31.48-.71.65-1.11.14-.4.2-.79.26-1.19.31.23.62.43.88.74.23.31.4.74.45,1.13.06.43.03.88-.03,1.3.57-.03,1.11-.03,1.7.03.6.09,1.22.23,1.93.6.74.34,1.56.88,2.3,1.59.71.71,1.3,1.59,1.64,2.27.34.71.43,1.25.54,1.79-.26-.28-.54-.57-.85-.82-.34-.28-.77-.57-1.22-.79-.48-.2-.96-.34-1.76-.48-.79-.14-1.9-.28-3.03-.31-1.13,0-2.32.11-3.4.23s-2.04.26-3.15.48c-1.11.23-2.35.6-3.88.91-1.53.34-3.34.65-4.79.82-1.45.2-2.52.26-3.37.28-.88.06-1.56.09-2.38.03-.79-.09-1.73-.23-2.61-.48-.88-.26-1.73-.6-2.49-.96-.79-.37-1.5-.77-2.07-1.22-.54-.45-.91-.91-1.28-1.39,0,.45,0,.91-.09,1.33-.06.4-.2.79-.45,1.25-.23.45-.6,1.02-.96,1.45s-.71.74-1.08,1.05h0c-.37-.31-.71-.62-1.08-1.05s-.71-.99-.96-1.45c-.26-.45-.4-.85-.45-1.25-.09-.43-.09-.88-.09-1.33-.37.48-.74.94-1.28,1.39-.57.45-1.28.85-2.07,1.22-.77.37-1.62.71-2.49.96-.88.26-1.81.4-2.61.48-.82.06-1.5.03-2.35-.03-.88-.03-1.96-.09-3.4-.28-1.45-.17-3.23-.48-4.76-.82-1.56-.31-2.81-.68-3.91-.91-1.11-.23-2.07-.37-3.15-.48s-2.27-.23-3.4-.23c-1.13.03-2.24.17-3.03.31-.79.14-1.28.28-1.73.48-.48.23-.88.51-1.22.79-.34.26-.62.54-.88.82.11-.54.2-1.08.54-1.79.34-.68.94-1.56,1.67-2.27.71-.71,1.53-1.25,2.27-1.59.71-.37,1.33-.51,1.93-.6.6-.06,1.13-.06,1.7-.03-.06-.43-.09-.88-.03-1.3.09-.4.23-.82.45-1.13.26-.31.57-.51.88-.74.06.4.11.79.28,1.19.14.4.4.79.62,1.11.23.31.43.57.77.71.31.17.79.23,1.25.28-.17-.51-.31-.99-.37-1.59s0-1.25.17-1.73c.2-.48.51-.79.85-.96.34-.2.71-.23,1.11-.28-.17.31-.34.6-.4,1.02-.03.43.09,1.02.31,1.53.23.54.57,1.05,1.02,1.5.45.48,1.02.94,1.62,1.22.62.28,1.22.4,1.76.45.51.06.94.06.91-.23,0-.28-.45-.82-.88-1.39-.4-.54-.77-1.11-.99-1.76-.26-.65-.4-1.39-.37-2.13.03-.74.26-1.45.51-2.07.26-.6.57-1.13.96-1.62.43-.48.94-.96,1.45-1.3.48-.37.96-.62,1.47-.85s1.08-.43,1.7-.57c.6-.11,1.25-.17,1.98-.17.74.03,1.53.11,2.3.28.74.2,1.47.51,2.01.88.57.4.99.88,1.28,1.39.28.51.43,1.08.48,1.56.06.51.03.96.03,1.28.03.34.03.57.11.79.06.2.17.43.4.57s.54.23.88.23.74-.06.99-.26c.28-.2.43-.54.57-.88.09.54.2,1.08.11,1.56-.09.45-.34.85-.62,1.16-.28.28-.62.51-1.11.6-.45.09-1.08.03-1.67,0-.17.54-.37,1.05-.57,1.45-.2.37-.45.6-.65.74l-.48.37c-.26-.31-.51-.6-.71-.88-.17-.31-.28-.57-.34-.82-.06-.28-.09-.57-.11-.85-.48.06-.96.09-1.45-.03-.48-.09-.96-.34-1.3-.6-.34-.26-.54-.54-.65-.85-.11-.34-.14-.71-.14-1.02,0-.34.06-.62.11-.91.2.26.4.48.65.71.28.2.62.4.99.4.34.03.71-.14.96-.37.23-.23.37-.51.37-.91-.03-.43-.17-.96-.37-1.36-.23-.4-.51-.65-.91-.85-.4-.17-.88-.31-1.39-.37-.54-.03-1.13,0-1.64.14-.48.11-.91.31-1.28.6-.37.28-.65.65-.88,1.08-.23.45-.37.99-.4,1.53-.03.54.06,1.11.23,1.59.14.51.37.94.71,1.42.37.48.85.99,1.33,1.42.45.45.88.82,1.36,1.11.48.28.99.48,1.56.65.6.2,1.22.31,1.9.4.65.06,1.36.06,2.13-.09.77-.11,1.62-.34,2.38-.74.77-.37,1.42-.94,2.04-1.53.6-.6,1.13-1.25,1.53-1.87.43-.62.68-1.25.82-2.04.11-.82.11-1.81-.09-2.81-.2-.96-.57-1.93-1.19-2.83-.62-.94-1.47-1.87-2.35-2.55-.85-.68-1.7-1.13-2.41-1.39s-1.25-.34-1.84-.37c-.6-.03-1.22-.06-1.9.03-.68.06-1.42.2-2.32.57-.91.37-1.98.96-3.29,1.7-1.33.74-2.86,1.64-4.39,2.49-1.53.85-3.03,1.64-4.31,2.32-1.3.68-2.38,1.25-3.88,2.04-1.53.79-3.51,1.81-6.15,3.23-2.66,1.42-5.95,3.2-8.31,4.48-2.35,1.25-3.74,1.96-4.99,2.49-1.22.54-2.32.94-3.43,1.25-1.08.34-2.15.6-3.2.74-1.08.17-2.1.2-3.09.2s-1.98-.06-2.83-.17c-.88-.14-1.64-.31-2.49-.62-.88-.31-1.81-.77-2.64-1.33-.82-.57-1.53-1.22-2.18-1.98-.65-.74-1.25-1.59-1.73-2.41-.45-.85-.79-1.7-1.02-2.52-.26-.82-.4-1.62-.51-2.44-.11-.82-.17-1.67-.11-2.47.03-.79.17-1.56.34-2.27.17-.74.37-1.42.65-2.1.28-.71.65-1.36,1.05-1.96.43-.6.91-1.11,1.45-1.62.54-.48,1.13-.96,1.81-1.39.65-.4,1.36-.71,2.04-1.02.68-.34,1.84-.88,2.41-.99h.03-.03c-.57-.14-1.73-.74-2.41-1.05-.68-.31-1.39-.65-2.04-1.05-.68-.4-1.28-.91-1.81-1.39-.54-.51-1.02-.99-1.45-1.59-.4-.6-.77-1.28-1.05-1.96-.28-.71-.48-1.39-.65-2.1-.17-.74-.31-1.5-.34-2.3-.06-.79,0-1.62.11-2.44.11-.82.26-1.62.51-2.47.23-.82.57-1.67,1.02-2.49.48-.85,1.08-1.7,1.73-2.44.65-.77,1.36-1.42,2.18-1.98.82-.54,1.76-.99,2.64-1.33.85-.31,1.62-.48,2.49-.6.85-.14,1.81-.2,2.83-.2s2.01.06,3.09.2c1.05.14,2.13.4,3.2.74,1.11.31,2.21.71,3.43,1.25,1.25.54,2.64,1.25,4.99,2.49,2.35,1.28,5.64,3.09,8.31,4.48,2.64,1.42,4.62,2.44,6.15,3.23,1.5.79,2.58,1.36,3.88,2.04,1.28.71,2.78,1.5,4.31,2.35,1.53.82,3.06,1.73,4.39,2.47,1.3.74,2.38,1.33,3.29,1.7.91.37,1.64.51,2.32.57.68.09,1.3.06,1.9.03.6-.03,1.13-.11,1.84-.37.71-.26,1.56-.71,2.41-1.39.88-.68,1.73-1.59,2.35-2.52.62-.94.99-1.9,1.19-2.86.2-.99.2-1.98.09-2.81-.14-.79-.4-1.42-.82-2.04-.4-.62-.94-1.25-1.53-1.84-.62-.62-1.28-1.16-2.04-1.56s-1.62-.62-2.38-.74c-.77-.11-1.47-.14-2.13-.09-.68.09-1.3.23-1.9.4-.57.17-1.08.37-1.56.65s-.91.65-1.36,1.11c-.48.43-.96.96-1.33,1.42-.34.48-.57.91-.71,1.42-.17.48-.26,1.05-.23,1.59.03.57.17,1.08.4,1.53.23.43.51.79.88,1.08.37.28.79.48,1.28.6.51.14,1.11.17,1.64.14.51-.06.99-.17,1.39-.37s.68-.43.91-.82c.2-.43.34-.96.37-1.39,0-.4-.14-.68-.37-.91-.26-.23-.62-.37-.96-.37-.37.03-.71.2-.99.43-.26.2-.45.43-.65.68-.06-.28-.11-.57-.11-.88,0-.34.03-.71.14-1.05.11-.31.31-.6.65-.85.34-.26.82-.51,1.3-.6.48-.11.96-.09,1.45-.03.03-.28.06-.57.11-.85.06-.26.17-.51.34-.79.2-.28.45-.6.71-.91l.48.37c.2.17.45.37.65.77.2.37.4.91.57,1.45.6-.06,1.22-.11,1.67-.03.48.09.82.31,1.11.62.28.28.54.68.62,1.16.09.45-.03.99-.11,1.56-.14-.34-.28-.71-.57-.91-.26-.2-.65-.26-.99-.26-.34.03-.65.09-.88.23s-.34.37-.4.6c-.09.2-.09.43-.11.77,0,.34.03.77-.03,1.28-.06.48-.2,1.05-.48,1.56-.28.51-.71.99-1.28,1.39-.54.4-1.28.68-2.01.88-.77.2-1.56.26-2.3.28-.74,0-1.39-.03-1.98-.17-.62-.14-1.19-.34-1.7-.57-.51-.23-.99-.48-1.47-.85-.51-.34-1.02-.82-1.45-1.3-.4-.48-.71-.99-.96-1.62-.26-.62-.48-1.33-.51-2.07-.03-.71.11-1.47.37-2.13.23-.65.6-1.19.99-1.76.43-.57.88-1.11.88-1.39.03-.26-.4-.26-.91-.2-.54.03-1.13.14-1.76.43-.6.28-1.16.74-1.62,1.22s-.79.96-1.02,1.5c-.23.54-.34,1.11-.31,1.53.06.43.23.74.4,1.02-.4-.06-.77-.09-1.11-.28-.34-.17-.65-.48-.85-.96-.17-.48-.23-1.13-.17-1.73.06-.57.2-1.08.37-1.59-.45.06-.94.11-1.25.28-.34.14-.54.4-.77.71-.23.34-.48.71-.62,1.11-.17.4-.23.79-.28,1.19-.31-.2-.62-.43-.88-.74-.23-.31-.37-.71-.45-1.13-.06-.43-.03-.85.03-1.3-.57.03-1.11.03-1.7-.03-.6-.09-1.22-.23-1.93-.57-.74-.37-1.56-.91-2.27-1.62-.74-.71-1.33-1.56-1.67-2.27-.34-.71-.43-1.25-.54-1.79.26.28.54.57.88.85.34.28.74.54,1.22.77.45.2.94.34,1.73.48s1.9.31,3.03.31c1.13.03,2.32-.09,3.4-.23,1.08-.11,2.04-.23,3.15-.48,1.11-.23,2.35-.57,3.91-.91,1.53-.34,3.32-.65,4.76-.82,1.45-.2,2.52-.23,3.4-.28.85-.06,1.53-.09,2.35,0,.79.06,1.73.23,2.61.45.88.26,1.73.6,2.49.96.79.37,1.5.79,2.07,1.22.54.45.91.94,1.28,1.39,0-.45,0-.91.09-1.3.06-.43.2-.79.45-1.28h0ZM185.84,18.31c-.65.88-1.33,1.76-1.98,2.52-.71.79-1.42,1.42-2.21,1.98-.79.54-1.67.99-2.64,1.36-.94.37-1.98.65-2.98.79-.96.11-1.9.09-2.78-.03s-1.76-.31-2.95-.79c-1.19-.45-2.72-1.19-4.48-2.15-1.76-.94-3.71-2.1-6.72-3.8-3-1.67-7-3.94-10.69-6.01-3.69-2.07-7.06-3.97-9.41-5.19-2.35-1.22-3.74-1.73-5.19-2.18-1.45-.43-3-.79-4.45-.96-1.45-.17-2.83-.17-4.03-.03-1.22.11-2.24.31-3.17.71-.94.4-1.79.96-2.49,1.64-.71.68-1.33,1.47-1.81,2.32-.48.85-.85,1.76-1.08,2.78-.23.99-.31,2.07-.2,3.09.11.99.43,1.93.88,2.78.45.82,1.02,1.59,1.73,2.21.68.6,1.5,1.08,2.15,1.39.65.28,1.13.4,1.73.43.57.03,1.25-.03,1.84-.2.6-.17,1.08-.43,1.47-.77.43-.34.79-.77.99-1.28.17-.54.23-1.16.2-1.73-.03-.54-.14-1.02-.34-1.45-.2-.4-.45-.77-.82-1.02-.37-.23-.85-.37-1.28-.34-.45.03-.88.17-1.13.48-.28.31-.4.77-.51,1.25-.2-.6-.43-1.16-.48-1.76-.06-.57.06-1.16.31-1.7s.65-1.02,1.16-1.33c.48-.31,1.08-.48,1.7-.45.6,0,1.22.2,1.84.37-.03-.34-.03-.68-.03-1.02s.06-.65.17-.99.28-.68.54-.99c.26-.34.6-.62.91-.91.31.26.65.51.94.79.28.31.57.68.71,1.22.14.51.14,1.19.17,1.87.31-.09.65-.17,1.02-.23.37-.03.82-.06,1.22,0,.43.06.79.17,1.11.28.31.09.51.23.79.48.26.28.57.71.74,1.25.14.51.17,1.11.11,1.64-.06.51-.23.94-.37,1.39-.06-.4-.09-.77-.34-1.05-.26-.28-.71-.48-1.19-.57-.48-.06-.96,0-1.45.17-.45.2-.85.51-1.16,1.02-.28.51-.48,1.19-.48,1.98-.03.79.11,1.67.51,2.49.37.82.96,1.56,1.7,2.1.74.54,1.62.85,2.52,1.05.94.2,1.9.26,2.81.11.88-.14,1.7-.54,2.35-.99.65-.48,1.13-1.02,1.39-1.73.26-.71.31-1.59.28-2.41,0-.82-.11-1.62-.31-2.24-.23-.6-.57-1.02-.91-1.47.65.14,1.3.31,2.01.62s1.47.79,2.04,1.42c.57.62.94,1.42,1.11,2.32.2.91.23,1.93.09,2.75-.11.85-.4,1.45-.65,2.07.54-.4,1.11-.79,1.73-1.05.62-.28,1.33-.4,2.18-.43.85-.03,1.87.06,2.83.34.96.28,1.87.79,2.72,1.3.74.43,1.45.94,2.15,1.42h0l.06.03.03.03.23.14c-.79.54-1.62,1.13-2.47,1.64-.85.54-1.76,1.02-2.72,1.3-.96.31-1.98.37-2.83.34-.85-.03-1.56-.14-2.18-.4-.62-.28-1.19-.68-1.73-1.08.26.62.54,1.25.65,2.07.14.82.11,1.87-.09,2.78-.17.91-.54,1.67-1.11,2.3-.57.62-1.33,1.11-2.04,1.45-.71.31-1.36.45-2.01.6.34-.43.68-.88.91-1.47.2-.62.31-1.42.31-2.24.03-.82-.03-1.67-.28-2.38-.26-.71-.74-1.28-1.39-1.76-.65-.45-1.47-.82-2.35-.99-.91-.14-1.87-.09-2.81.11-.91.2-1.79.54-2.52,1.05-.74.54-1.33,1.28-1.7,2.1-.4.82-.54,1.73-.51,2.49,0,.79.2,1.47.48,1.98.31.51.71.82,1.16,1.02.48.2.96.26,1.45.17.48-.09.94-.28,1.19-.57.26-.28.28-.65.34-1.02.14.43.31.85.37,1.36.06.54.03,1.13-.11,1.67-.17.51-.48.94-.74,1.22-.28.28-.48.4-.79.51-.31.11-.68.23-1.11.26-.4.06-.85.06-1.22,0-.37-.06-.71-.14-1.02-.23-.03.68-.03,1.36-.17,1.9-.14.51-.43.88-.71,1.19-.28.31-.62.57-.94.82-.31-.31-.65-.6-.91-.94-.26-.31-.43-.65-.54-.99-.11-.34-.17-.65-.17-.99s0-.68.03-1.02c-.62.2-1.25.37-1.84.4-.62,0-1.22-.17-1.7-.48-.51-.31-.91-.79-1.16-1.33s-.37-1.13-.31-1.7c.06-.6.28-1.16.48-1.73.11.45.23.91.51,1.22.26.31.68.48,1.13.48.43.03.91-.11,1.28-.34.37-.26.62-.6.82-1.02s.31-.91.34-1.45c.03-.57-.03-1.19-.2-1.7-.2-.54-.57-.96-.99-1.3-.4-.34-.88-.6-1.47-.77s-1.28-.23-1.84-.2c-.6.03-1.08.14-1.73.45-.65.28-1.47.77-2.15,1.39-.71.6-1.28,1.36-1.73,2.21-.45.82-.77,1.76-.88,2.75-.11,1.02-.03,2.1.2,3.12.23.99.6,1.9,1.08,2.75.48.85,1.11,1.64,1.81,2.32.71.68,1.56,1.25,2.49,1.64.94.4,1.96.62,3.17.74,1.19.11,2.58.11,4.03-.06s3-.51,4.45-.96c1.45-.43,2.83-.96,5.19-2.18,2.35-1.19,5.73-3.12,9.41-5.19,3.69-2.07,7.68-4.31,10.69-6.01,3-1.7,4.96-2.86,6.72-3.8,1.76-.94,3.29-1.67,4.48-2.15,1.19-.45,2.07-.65,2.95-.77.88-.14,1.81-.17,2.78-.03.99.11,2.04.4,2.98.77.96.37,1.84.82,2.64,1.36.79.57,1.5,1.22,2.21,1.98.65.77,1.33,1.64,1.98,2.52.65-.88,1.33-1.76,1.98-2.52.71-.77,1.42-1.42,2.21-1.98.79-.54,1.67-.99,2.64-1.36.94-.37,1.98-.65,2.98-.77.96-.14,1.9-.11,2.78.03.88.11,1.76.31,2.95.77,1.19.48,2.72,1.22,4.48,2.15,1.76.94,3.74,2.1,6.72,3.8,3,1.7,7,3.94,10.69,6.01,3.69,2.07,7.06,4,9.41,5.19,2.35,1.22,3.74,1.76,5.19,2.18,1.45.45,3,.79,4.45.96,1.47.17,2.83.17,4.03.06,1.22-.11,2.24-.34,3.17-.74.94-.4,1.79-.96,2.49-1.64.71-.68,1.33-1.47,1.81-2.32.48-.85.85-1.76,1.08-2.75.23-1.02.31-2.1.2-3.12-.09-.99-.43-1.93-.88-2.75-.45-.85-1.02-1.62-1.73-2.21-.68-.62-1.5-1.11-2.15-1.39-.65-.31-1.13-.43-1.73-.45-.57-.03-1.25.03-1.84.2s-1.08.43-1.47.77c-.43.34-.77.77-.96,1.3-.2.51-.26,1.13-.23,1.7.03.54.14,1.02.34,1.45s.45.77.82,1.02c.37.23.85.37,1.28.34.45,0,.88-.17,1.13-.48.28-.31.4-.77.51-1.22.2.57.43,1.13.48,1.73.06.57-.06,1.16-.31,1.7s-.65,1.02-1.16,1.33c-.48.31-1.08.48-1.7.48-.6-.03-1.22-.2-1.84-.4.03.34.03.68.03,1.02s-.06.65-.17.99c-.11.34-.28.68-.54.99-.26.34-.6.62-.91.94-.31-.26-.65-.51-.94-.82-.28-.31-.54-.68-.71-1.19-.14-.54-.14-1.22-.17-1.9-.31.09-.65.17-1.02.23-.37.06-.82.06-1.22,0-.43-.03-.79-.14-1.11-.26-.31-.11-.51-.23-.79-.51-.26-.28-.57-.71-.74-1.22-.14-.54-.17-1.13-.11-1.67.09-.51.23-.94.37-1.36.06.37.09.74.34,1.02.26.28.71.48,1.19.57.48.09.96.03,1.45-.17.45-.2.85-.51,1.16-1.02.28-.51.48-1.19.48-1.98.03-.77-.11-1.67-.51-2.49-.37-.82-.96-1.56-1.7-2.1-.74-.51-1.62-.85-2.52-1.05-.94-.2-1.9-.26-2.78-.11-.91.17-1.73.54-2.38.99-.65.48-1.11,1.05-1.39,1.76-.26.71-.31,1.56-.28,2.38.03.82.11,1.62.31,2.24.23.6.57,1.05.91,1.47-.65-.14-1.3-.28-2.01-.6-.71-.34-1.47-.82-2.04-1.45-.57-.62-.94-1.39-1.11-2.3-.2-.91-.23-1.96-.09-2.78.11-.82.4-1.45.65-2.07-.54.4-1.11.79-1.73,1.08-.62.26-1.33.37-2.18.4-.85.03-1.87-.03-2.83-.34-.96-.28-1.87-.77-2.72-1.3-.85-.51-1.67-1.11-2.47-1.64l.23-.14.03-.03.06-.03h0c.71-.48,1.42-.99,2.15-1.42.85-.51,1.76-1.02,2.72-1.3.96-.28,1.98-.37,2.83-.34.85.03,1.56.14,2.18.43.62.26,1.19.65,1.73,1.05-.26-.62-.54-1.22-.65-2.07-.14-.82-.11-1.84.09-2.75.17-.91.54-1.7,1.11-2.32.57-.62,1.33-1.11,2.04-1.42s1.36-.48,2.01-.62c-.34.45-.68.88-.91,1.47-.2.62-.28,1.42-.31,2.24-.03.82.03,1.7.28,2.41.28.71.74,1.25,1.39,1.73.65.45,1.47.85,2.38.99.88.14,1.84.09,2.78-.11.91-.2,1.79-.51,2.52-1.05.74-.54,1.33-1.28,1.7-2.1.4-.82.54-1.7.51-2.49,0-.79-.2-1.47-.48-1.98-.31-.51-.71-.82-1.16-1.02-.48-.17-.96-.23-1.45-.17-.48.09-.94.28-1.19.57-.26.28-.28.65-.34,1.05-.14-.45-.28-.88-.37-1.39-.06-.54-.03-1.13.11-1.64.17-.54.48-.96.74-1.25.28-.26.48-.4.79-.48.31-.11.68-.23,1.11-.28.4-.06.85-.03,1.22,0,.37.06.71.14,1.02.23.03-.68.03-1.36.17-1.87.17-.54.43-.91.71-1.22.28-.28.62-.54.94-.79.31.28.65.57.91.91.26.31.43.65.54.99s.17.65.17.99,0,.68-.03,1.02c.62-.17,1.25-.37,1.84-.37.62-.03,1.22.14,1.7.45.51.31.91.79,1.16,1.33s.37,1.13.31,1.7c-.06.6-.28,1.16-.48,1.76-.11-.48-.23-.94-.51-1.25-.26-.31-.68-.45-1.13-.48-.43-.03-.91.11-1.28.34-.37.26-.62.62-.82,1.02-.2.43-.31.91-.34,1.45-.03.57.03,1.19.23,1.73.2.51.54.94.96,1.28.4.34.88.6,1.47.77.6.17,1.28.23,1.84.2.6-.03,1.08-.14,1.73-.43.65-.31,1.47-.79,2.15-1.39.71-.62,1.28-1.39,1.73-2.21.45-.85.79-1.79.88-2.78.11-1.02.03-2.1-.2-3.09-.23-1.02-.6-1.93-1.08-2.78-.48-.85-1.11-1.64-1.81-2.32-.71-.68-1.56-1.25-2.49-1.64-.94-.4-1.96-.6-3.17-.71-1.19-.14-2.55-.14-4.03.03-1.45.17-3,.54-4.45.96-1.45.45-2.83.96-5.19,2.18-2.35,1.22-5.73,3.12-9.41,5.19-3.69,2.07-7.68,4.34-10.69,6.01-2.98,1.7-4.96,2.86-6.72,3.8-1.76.96-3.29,1.7-4.48,2.15-1.19.48-2.07.68-2.95.79s-1.81.14-2.78.03c-.99-.14-2.04-.43-2.98-.79-.96-.37-1.84-.82-2.64-1.36-.79-.57-1.5-1.19-2.21-1.98-.65-.77-1.33-1.64-1.98-2.52h0Z"/>
      <path class="cls-1" d="M329.47,2.49c.26-.45.62-.99.99-1.45.34-.43.71-.74,1.05-1.05h.03c.34.31.71.62,1.05,1.05.37.45.74.99.99,1.45.26.48.37.85.45,1.28.06.4.06.85.09,1.3.37-.45.74-.94,1.28-1.39.54-.43,1.28-.85,2.04-1.22.79-.37,1.62-.71,2.52-.96.88-.23,1.81-.4,2.61-.45.79-.09,1.47-.06,2.35,0,.88.06,1.93.09,3.37.28,1.45.17,3.26.48,4.79.82,1.53.34,2.78.68,3.88.91,1.13.26,2.1.37,3.17.48,1.08.14,2.24.26,3.37.23,1.16,0,2.24-.17,3.03-.31s1.3-.28,1.76-.48c.45-.23.88-.48,1.22-.77.34-.28.6-.57.85-.85-.09.54-.2,1.08-.54,1.79-.34.71-.94,1.56-1.64,2.27-.71.71-1.53,1.25-2.27,1.62-.74.34-1.36.48-1.96.57-.57.06-1.13.06-1.67.03.03.45.06.88,0,1.3-.06.43-.2.82-.45,1.13-.23.31-.54.54-.88.74-.06-.4-.11-.79-.26-1.19s-.4-.77-.62-1.11c-.23-.31-.43-.57-.77-.71-.34-.17-.79-.23-1.28-.28.17.51.34,1.02.4,1.59.06.6,0,1.25-.2,1.73-.17.48-.48.79-.82.96-.37.2-.74.23-1.11.28.17-.28.34-.6.37-1.02.03-.43-.09-.99-.28-1.53-.23-.54-.57-1.02-1.02-1.5s-1.05-.94-1.64-1.22c-.6-.28-1.22-.4-1.73-.43-.51-.06-.94-.06-.94.2.03.28.48.82.88,1.39.43.57.77,1.11,1.02,1.76.26.65.4,1.42.34,2.13-.03.74-.23,1.45-.48,2.07-.26.62-.57,1.13-.99,1.62-.43.48-.94.96-1.42,1.3-.51.37-.96.62-1.47.85-.51.23-1.08.43-1.7.57s-1.28.17-2.01.17c-.71-.03-1.53-.09-2.27-.28-.77-.2-1.47-.48-2.04-.88s-.99-.88-1.28-1.39c-.26-.51-.4-1.08-.45-1.56-.06-.51-.06-.94-.06-1.28s-.03-.57-.09-.77c-.09-.23-.2-.45-.4-.6-.23-.14-.54-.2-.91-.23-.34,0-.71.06-.99.26-.26.2-.4.57-.54.91-.11-.57-.2-1.11-.11-1.56.06-.48.31-.88.62-1.16.28-.31.62-.54,1.08-.62.48-.09,1.08-.03,1.7.03.17-.54.34-1.08.57-1.45.2-.4.43-.6.62-.77l.48-.37c.26.31.54.62.71.91.2.28.28.54.34.79.09.28.11.57.14.85.48-.06.94-.09,1.45.03.48.09.96.34,1.3.6.34.26.54.54.65.85.11.34.14.71.14,1.05-.03.31-.09.6-.14.88-.17-.26-.37-.48-.65-.68-.26-.23-.62-.4-.96-.43-.37,0-.71.14-.96.37-.26.23-.37.51-.37.91,0,.43.14.96.37,1.39.2.4.51.62.88.82.4.2.88.31,1.42.37.54.03,1.11,0,1.62-.14.51-.11.94-.31,1.28-.6.37-.28.68-.65.91-1.08.2-.45.34-.96.37-1.53.03-.54-.06-1.11-.2-1.59-.17-.51-.37-.94-.74-1.42-.34-.45-.85-.99-1.3-1.42-.45-.45-.91-.82-1.36-1.11-.48-.28-.99-.48-1.59-.65-.57-.17-1.22-.31-1.87-.4-.68-.06-1.36-.03-2.15.09-.77.11-1.62.34-2.35.74-.77.4-1.45.94-2.04,1.56-.62.6-1.16,1.22-1.56,1.84-.4.62-.68,1.25-.79,2.04-.14.82-.11,1.81.06,2.81.2.96.6,1.93,1.22,2.86.6.94,1.47,1.84,2.32,2.52.85.68,1.7,1.13,2.41,1.39.71.26,1.28.34,1.87.37.6.03,1.22.06,1.9-.03.68-.06,1.42-.2,2.32-.57.91-.37,1.98-.96,3.29-1.7,1.3-.74,2.86-1.64,4.37-2.47,1.53-.85,3.03-1.64,4.34-2.35,1.28-.68,2.35-1.25,3.88-2.04s3.51-1.81,6.15-3.23c2.64-1.39,5.95-3.2,8.28-4.48,2.35-1.25,3.74-1.96,4.99-2.49s2.35-.94,3.43-1.25c1.11-.34,2.18-.6,3.23-.74,1.05-.14,2.1-.2,3.09-.2s1.96.06,2.83.2c.85.11,1.64.28,2.49.6.85.34,1.79.79,2.61,1.33.82.57,1.56,1.22,2.21,1.98.65.74,1.25,1.59,1.7,2.44.48.82.79,1.67,1.05,2.49.23.85.4,1.64.51,2.47.09.82.14,1.64.11,2.44-.06.79-.2,1.56-.37,2.3-.17.71-.34,1.39-.62,2.1-.28.68-.65,1.36-1.08,1.96s-.91,1.08-1.45,1.59c-.54.48-1.13.99-1.79,1.39-.65.4-1.36.74-2.04,1.05-.68.31-1.87.91-2.44,1.05h0c.57.11,1.76.65,2.44.99.68.31,1.39.62,2.04,1.02.65.43,1.25.91,1.79,1.39.54.51,1.02,1.02,1.45,1.62s.79,1.25,1.08,1.96c.28.68.45,1.36.62,2.1.17.71.31,1.47.37,2.27.03.79-.03,1.64-.11,2.47-.11.82-.28,1.62-.51,2.44-.26.82-.57,1.67-1.05,2.52-.45.82-1.05,1.67-1.7,2.41-.65.77-1.39,1.42-2.21,1.98-.82.57-1.76,1.02-2.61,1.33-.85.31-1.64.48-2.49.62-.88.11-1.84.17-2.83.17s-2.04-.03-3.09-.2c-1.05-.14-2.13-.4-3.23-.74-1.08-.31-2.18-.71-3.43-1.25s-2.64-1.25-4.99-2.49c-2.32-1.28-5.64-3.06-8.28-4.48s-4.62-2.44-6.15-3.23c-1.53-.79-2.61-1.36-3.88-2.04-1.3-.68-2.81-1.47-4.34-2.32-1.5-.85-3.06-1.76-4.37-2.49-1.3-.74-2.38-1.33-3.29-1.7-.91-.37-1.64-.51-2.32-.57-.68-.09-1.3-.06-1.9-.03-.6.03-1.16.11-1.87.37-.71.26-1.56.71-2.41,1.39-.85.68-1.73,1.62-2.32,2.55-.62.91-1.02,1.87-1.22,2.83-.17.99-.2,1.98-.06,2.81.11.79.4,1.42.79,2.04s.94,1.28,1.56,1.87c.6.6,1.28,1.16,2.04,1.53.74.4,1.59.62,2.35.74.79.14,1.47.14,2.15.09.65-.09,1.3-.2,1.87-.4.6-.17,1.11-.37,1.59-.65.45-.28.91-.65,1.36-1.11.45-.43.96-.94,1.3-1.42.37-.48.57-.91.74-1.42.14-.48.23-1.05.2-1.59s-.17-1.08-.37-1.53c-.23-.43-.54-.79-.91-1.08-.34-.28-.77-.48-1.28-.6-.51-.14-1.08-.17-1.62-.14-.54.06-1.02.2-1.42.37-.37.2-.68.45-.88.85-.23.4-.37.94-.37,1.36,0,.4.11.68.37.91.26.23.6.4.96.37.34,0,.71-.2.96-.4.28-.23.48-.45.65-.71.06.28.11.57.14.91,0,.31-.03.68-.14,1.02-.11.31-.31.6-.65.85-.34.26-.82.51-1.3.6-.51.11-.96.09-1.45.03-.03.28-.06.57-.14.85-.06.26-.14.51-.34.82-.17.28-.45.57-.71.88l-.48-.37c-.2-.14-.43-.37-.62-.74-.23-.4-.4-.91-.57-1.45-.62.03-1.22.09-1.7,0-.45-.09-.79-.31-1.08-.6-.31-.31-.57-.71-.62-1.16-.09-.48,0-1.02.11-1.56.14.34.28.68.54.88.28.2.65.26.99.26.37,0,.68-.09.91-.23.2-.14.31-.37.4-.57.06-.23.09-.45.09-.79,0-.31,0-.77.06-1.28.06-.48.2-1.05.45-1.56.28-.51.71-.99,1.28-1.39.57-.37,1.28-.68,2.04-.88.74-.17,1.56-.26,2.27-.28.74,0,1.39.06,2.01.17.62.14,1.19.34,1.7.57.51.23.96.48,1.47.85.48.34.99.82,1.42,1.3.43.48.74,1.02.99,1.62.26.62.45,1.33.48,2.07.06.74-.09,1.47-.34,2.13s-.6,1.22-1.02,1.76c-.4.57-.85,1.11-.88,1.39,0,.28.43.28.94.23.51-.06,1.13-.17,1.73-.45.6-.28,1.19-.74,1.64-1.22.45-.45.79-.96,1.02-1.5.2-.51.31-1.11.28-1.53s-.2-.71-.37-1.02c.37.06.74.09,1.11.28.34.17.65.48.82.96.2.48.26,1.13.2,1.73-.06.6-.23,1.08-.4,1.59.48-.06.94-.11,1.28-.28.34-.14.54-.4.77-.71.23-.31.48-.71.62-1.11s.2-.79.26-1.19c.34.23.65.43.88.74.26.31.4.74.45,1.13.06.43.03.88,0,1.3.54-.03,1.11-.03,1.67.03.6.09,1.22.23,1.96.6.74.34,1.56.88,2.27,1.59.71.71,1.3,1.59,1.64,2.27.34.71.45,1.25.54,1.79-.26-.28-.51-.57-.85-.82-.34-.28-.77-.57-1.22-.79-.45-.2-.96-.34-1.76-.48-.79-.14-1.87-.28-3.03-.31-1.13,0-2.3.11-3.37.23-1.08.11-2.04.26-3.17.48-1.11.23-2.35.6-3.88.91-1.53.34-3.34.65-4.79.82-1.45.2-2.49.26-3.37.28-.88.06-1.56.09-2.35.03-.79-.09-1.73-.23-2.61-.48-.91-.26-1.73-.6-2.52-.96-.77-.37-1.5-.77-2.04-1.22-.54-.45-.91-.91-1.28-1.39-.03.45-.03.91-.09,1.33-.09.4-.2.79-.45,1.25-.26.45-.62,1.02-.99,1.45-.34.43-.71.74-1.05,1.05h-.03c-.34-.31-.71-.62-1.05-1.05-.37-.43-.74-.99-.99-1.45-.26-.45-.37-.85-.45-1.25-.06-.43-.06-.88-.09-1.33-.37.48-.74.94-1.28,1.39-.54.45-1.28.85-2.04,1.22-.79.37-1.62.71-2.52.96-.88.26-1.81.4-2.61.48-.79.06-1.47.03-2.35-.03-.88-.03-1.93-.09-3.37-.28-1.45-.17-3.26-.48-4.79-.82-1.53-.31-2.78-.68-3.88-.91-1.13-.23-2.1-.37-3.17-.48-1.08-.11-2.24-.23-3.37-.23-1.16.03-2.24.17-3.03.31-.79.14-1.3.28-1.76.48-.45.23-.88.51-1.22.79-.34.26-.6.54-.85.82.09-.54.2-1.08.54-1.79.34-.68.94-1.56,1.64-2.27.71-.71,1.53-1.25,2.27-1.59.74-.37,1.36-.51,1.96-.6.57-.06,1.13-.06,1.67-.03-.03-.43-.06-.88,0-1.3.06-.4.2-.82.45-1.13.23-.31.54-.51.88-.74.06.4.11.79.26,1.19s.4.79.62,1.11c.23.31.43.57.77.71.34.17.79.23,1.28.28-.17-.51-.34-.99-.4-1.59-.06-.6,0-1.25.2-1.73.17-.48.48-.79.82-.96.37-.2.74-.23,1.11-.28-.17.31-.34.6-.37,1.02s.09,1.02.28,1.53c.23.54.57,1.05,1.02,1.5.45.48,1.05.94,1.64,1.22.6.28,1.22.4,1.73.45.51.06.94.06.94-.23-.03-.28-.48-.82-.88-1.39-.4-.54-.77-1.11-1.02-1.76s-.37-1.39-.34-2.13c.03-.74.23-1.45.48-2.07.26-.6.57-1.13.99-1.62.43-.48.94-.96,1.42-1.3.51-.37.96-.62,1.47-.85.51-.23,1.08-.43,1.7-.57.62-.11,1.28-.17,2.01-.17.71.03,1.53.11,2.27.28.77.2,1.47.51,2.04.88.57.4.99.88,1.28,1.39.26.51.4,1.08.45,1.56.06.51.06.96.06,1.28,0,.34.03.57.09.79.09.2.2.43.43.57.2.14.51.23.88.23.34,0,.71-.06.99-.26.26-.2.4-.54.54-.88.11.54.2,1.08.11,1.56-.06.45-.31.85-.62,1.16-.28.28-.62.51-1.08.6-.48.09-1.08.03-1.7,0-.17.54-.34,1.05-.57,1.45-.2.37-.43.6-.62.74l-.48.37c-.26-.31-.54-.6-.71-.88-.2-.31-.28-.57-.34-.82-.09-.28-.11-.57-.14-.85-.48.06-.94.09-1.42-.03-.51-.09-.99-.34-1.33-.6-.34-.26-.54-.54-.65-.85-.11-.34-.14-.71-.14-1.02.03-.34.09-.62.14-.91.17.26.37.48.65.71.26.2.62.4.96.4.37.03.71-.14.96-.37.26-.23.37-.51.37-.91,0-.43-.14-.96-.37-1.36-.2-.4-.51-.65-.88-.85-.4-.17-.88-.31-1.42-.37-.54-.03-1.11,0-1.62.14-.51.11-.94.31-1.28.6-.37.28-.68.65-.91,1.08-.2.45-.34.99-.37,1.53s.06,1.11.2,1.59c.17.51.37.94.74,1.42.34.48.85.99,1.3,1.42.45.45.91.82,1.36,1.11.48.28.99.48,1.59.65.57.2,1.22.31,1.87.4.68.06,1.39.06,2.15-.09.77-.11,1.62-.34,2.35-.74.77-.37,1.45-.94,2.04-1.53.62-.6,1.16-1.25,1.56-1.87s.68-1.25.79-2.04c.14-.82.11-1.81-.06-2.81-.2-.96-.6-1.93-1.19-2.83-.62-.94-1.5-1.87-2.35-2.55-.85-.68-1.7-1.13-2.41-1.39-.71-.26-1.28-.34-1.87-.37-.6-.03-1.22-.06-1.9.03-.68.06-1.42.2-2.32.57-.91.37-1.98.96-3.29,1.7-1.3.74-2.86,1.64-4.37,2.49-1.53.85-3.03,1.64-4.34,2.32-1.28.68-2.35,1.25-3.88,2.04-1.53.79-3.51,1.81-6.15,3.23s-5.95,3.2-8.28,4.48c-2.35,1.25-3.74,1.96-4.99,2.49s-2.35.94-3.43,1.25c-1.11.34-2.18.6-3.23.74-1.05.17-2.1.2-3.09.2s-1.96-.06-2.83-.17c-.85-.14-1.64-.31-2.49-.62-.85-.31-1.79-.77-2.61-1.33-.82-.57-1.56-1.22-2.21-1.98-.65-.74-1.25-1.59-1.7-2.41-.48-.85-.79-1.7-1.05-2.52-.23-.82-.4-1.62-.51-2.44-.09-.82-.14-1.67-.11-2.47.06-.79.2-1.56.37-2.27.17-.74.34-1.42.62-2.1.28-.71.65-1.36,1.08-1.96s.91-1.11,1.45-1.62c.54-.48,1.13-.96,1.79-1.39.65-.4,1.36-.71,2.04-1.02.68-.34,1.87-.88,2.44-.99h0c-.57-.14-1.76-.74-2.44-1.05-.68-.31-1.39-.65-2.04-1.05-.65-.4-1.25-.91-1.79-1.39-.54-.51-1.02-.99-1.45-1.59s-.79-1.28-1.08-1.96c-.28-.71-.45-1.39-.62-2.1-.17-.74-.31-1.5-.37-2.3-.03-.79.03-1.62.11-2.44.11-.82.28-1.62.51-2.47.26-.82.57-1.67,1.05-2.49.45-.85,1.05-1.7,1.7-2.44.65-.77,1.39-1.42,2.21-1.98.82-.54,1.76-.99,2.61-1.33.85-.31,1.64-.48,2.49-.6.88-.14,1.84-.2,2.83-.2s2.04.06,3.09.2c1.05.14,2.13.4,3.23.74,1.08.31,2.18.71,3.43,1.25s2.64,1.25,4.99,2.49c2.32,1.28,5.64,3.09,8.28,4.48,2.64,1.42,4.62,2.44,6.15,3.23s2.61,1.36,3.88,2.04c1.3.71,2.81,1.5,4.34,2.35,1.5.82,3.06,1.73,4.37,2.47,1.3.74,2.38,1.33,3.29,1.7.91.37,1.64.51,2.32.57.68.09,1.3.06,1.9.03.6-.03,1.16-.11,1.87-.37.71-.26,1.56-.71,2.41-1.39.85-.68,1.73-1.59,2.35-2.52.6-.94.99-1.9,1.19-2.86.17-.99.2-1.98.06-2.81-.11-.79-.4-1.42-.79-2.04-.4-.62-.94-1.25-1.56-1.84-.6-.62-1.28-1.16-2.04-1.56-.74-.4-1.59-.62-2.35-.74-.77-.11-1.47-.14-2.15-.09-.65.09-1.3.23-1.87.4-.6.17-1.11.37-1.59.65-.45.28-.91.65-1.36,1.11-.45.43-.96.96-1.3,1.42-.37.48-.57.91-.74,1.42-.14.48-.23,1.05-.2,1.59.03.57.17,1.08.37,1.53.23.43.54.79.91,1.08.34.28.77.48,1.28.6.51.14,1.08.17,1.62.14.54-.06,1.02-.17,1.42-.37.37-.2.68-.43.88-.82.23-.43.37-.96.37-1.39,0-.4-.11-.68-.37-.91-.26-.23-.6-.37-.96-.37-.34.03-.71.2-.96.43-.28.2-.48.43-.65.68-.06-.28-.11-.57-.14-.88,0-.34.03-.71.14-1.05.11-.31.31-.6.65-.85s.82-.51,1.33-.6c.48-.11.94-.09,1.42-.03.03-.28.06-.57.14-.85.06-.26.14-.51.34-.79.17-.28.45-.6.71-.91l.48.37c.2.17.43.37.62.77.23.37.4.91.57,1.45.62-.06,1.22-.11,1.7-.03.45.09.79.31,1.08.62.31.28.57.68.62,1.16.09.45,0,.99-.11,1.56-.14-.34-.28-.71-.54-.91-.28-.2-.65-.26-.99-.26-.37.03-.68.09-.88.23-.23.14-.34.37-.43.6-.06.2-.09.43-.09.77s0,.77-.06,1.28c-.06.48-.2,1.05-.45,1.56-.28.51-.71.99-1.28,1.39s-1.28.68-2.04.88c-.74.2-1.56.26-2.27.28-.74,0-1.39-.03-2.01-.17s-1.19-.34-1.7-.57c-.51-.23-.96-.48-1.47-.85-.48-.34-.99-.82-1.42-1.3-.43-.48-.74-.99-.99-1.62s-.45-1.33-.48-2.07c-.03-.71.09-1.47.34-2.13.26-.65.62-1.19,1.02-1.76.4-.57.85-1.11.88-1.39,0-.26-.43-.26-.94-.2-.51.03-1.13.14-1.73.43-.6.28-1.19.74-1.64,1.22s-.79.96-1.02,1.5c-.2.54-.31,1.11-.28,1.53.03.43.2.74.37,1.02-.37-.06-.74-.09-1.11-.28-.34-.17-.65-.48-.82-.96-.2-.48-.26-1.13-.2-1.73.06-.57.23-1.08.4-1.59-.48.06-.94.11-1.28.28-.34.14-.54.4-.77.71-.23.34-.48.71-.62,1.11s-.2.79-.26,1.19c-.34-.2-.65-.43-.88-.74-.26-.31-.4-.71-.45-1.13-.06-.43-.03-.85,0-1.3-.54.03-1.11.03-1.67-.03-.6-.09-1.22-.23-1.96-.57-.74-.37-1.56-.91-2.27-1.62-.71-.71-1.3-1.56-1.64-2.27-.34-.71-.45-1.25-.54-1.79.26.28.51.57.85.85.34.28.77.54,1.22.77.45.2.96.34,1.76.48s1.87.31,3.03.31c1.13.03,2.3-.09,3.37-.23,1.08-.11,2.04-.23,3.17-.48,1.11-.23,2.35-.57,3.88-.91,1.53-.34,3.34-.65,4.79-.82,1.45-.2,2.49-.23,3.37-.28.88-.06,1.56-.09,2.35,0,.79.06,1.73.23,2.61.45.91.26,1.73.6,2.52.96.77.37,1.5.79,2.04,1.22.54.45.91.94,1.28,1.39.03-.45.03-.91.09-1.3.09-.43.2-.79.45-1.28h0ZM331.54,18.31c-.68.88-1.33,1.76-2.01,2.52-.71.79-1.39,1.42-2.18,1.98-.79.54-1.67.99-2.64,1.36s-2.01.65-2.98.79c-.99.11-1.9.09-2.81-.03-.88-.11-1.73-.31-2.95-.79-1.19-.45-2.72-1.19-4.45-2.15-1.76-.94-3.74-2.1-6.75-3.8-2.98-1.67-7-3.94-10.69-6.01-3.69-2.07-7.03-3.97-9.38-5.19-2.38-1.22-3.74-1.73-5.19-2.18-1.47-.43-3-.79-4.48-.96-1.45-.17-2.81-.17-4.03-.03-1.19.11-2.24.31-3.17.71-.94.4-1.76.96-2.47,1.64-.74.68-1.33,1.47-1.81,2.32-.51.85-.85,1.76-1.08,2.78-.23.99-.34,2.07-.23,3.09.11.99.43,1.93.88,2.78.45.82,1.05,1.59,1.73,2.21.71.6,1.53,1.08,2.18,1.39.62.28,1.13.4,1.7.43.6.03,1.28-.03,1.84-.2.6-.17,1.08-.43,1.5-.77.43-.34.77-.77.96-1.28.2-.54.26-1.16.2-1.73-.03-.54-.11-1.02-.31-1.45-.2-.4-.48-.77-.85-1.02-.37-.23-.82-.37-1.28-.34-.43.03-.85.17-1.13.48-.26.31-.37.77-.48,1.25-.23-.6-.45-1.16-.48-1.76-.06-.57.03-1.16.28-1.7.28-.54.68-1.02,1.16-1.33.51-.31,1.11-.48,1.7-.45.62,0,1.25.2,1.84.37,0-.34-.03-.68-.03-1.02.03-.34.06-.65.17-.99s.31-.68.57-.99c.26-.34.57-.62.91-.91.31.26.62.51.91.79.31.31.57.68.71,1.22.14.51.17,1.19.2,1.87.31-.09.62-.17,1.02-.23.37-.03.79-.06,1.22,0,.4.06.79.17,1.08.28.31.09.54.23.79.48.28.28.57.71.74,1.25.17.51.17,1.11.11,1.64-.06.51-.2.94-.34,1.39-.06-.4-.11-.77-.37-1.05-.26-.28-.68-.48-1.16-.57-.48-.06-.99,0-1.45.17-.45.2-.88.51-1.16,1.02-.31.51-.48,1.19-.51,1.98,0,.79.14,1.67.51,2.49.37.82.99,1.56,1.73,2.1.74.54,1.59.85,2.52,1.05.91.2,1.87.26,2.78.11.91-.14,1.73-.54,2.38-.99.65-.48,1.11-1.02,1.36-1.73.26-.71.31-1.59.31-2.41-.03-.82-.11-1.62-.34-2.24-.2-.6-.54-1.02-.88-1.47.62.14,1.28.31,1.98.62s1.5.79,2.07,1.42c.57.62.91,1.42,1.11,2.32s.2,1.93.09,2.75c-.14.85-.4,1.45-.68,2.07.57-.4,1.13-.79,1.76-1.05.62-.28,1.33-.4,2.18-.43s1.84.06,2.81.34c.96.28,1.9.79,2.75,1.3.74.43,1.45.94,2.13,1.42h.03l.03.03.06.03.2.14c-.79.54-1.59,1.13-2.44,1.64-.85.54-1.79,1.02-2.75,1.3-.96.31-1.96.37-2.81.34-.85-.03-1.56-.14-2.18-.4-.62-.28-1.19-.68-1.76-1.08.28.62.54,1.25.68,2.07.11.82.11,1.87-.09,2.78s-.54,1.67-1.11,2.3c-.57.62-1.36,1.11-2.07,1.45-.71.31-1.36.45-1.98.6.34-.43.68-.88.88-1.47.23-.62.31-1.42.34-2.24,0-.82-.06-1.67-.31-2.38-.26-.71-.71-1.28-1.36-1.76-.65-.45-1.47-.82-2.38-.99-.91-.14-1.87-.09-2.78.11-.94.2-1.79.54-2.52,1.05-.74.54-1.36,1.28-1.73,2.1-.37.82-.51,1.73-.51,2.49.03.79.2,1.47.51,1.98.28.51.71.82,1.16,1.02s.96.26,1.45.17c.48-.09.91-.28,1.16-.57s.31-.65.37-1.02c.14.43.28.85.34,1.36.06.54.06,1.13-.11,1.67-.17.51-.45.94-.74,1.22-.26.28-.48.4-.79.51-.28.11-.68.23-1.08.26-.43.06-.85.06-1.22,0-.4-.06-.71-.14-1.02-.23-.03.68-.06,1.36-.2,1.9-.14.51-.4.88-.71,1.19-.28.31-.6.57-.91.82-.34-.31-.65-.6-.91-.94-.26-.31-.45-.65-.57-.99-.11-.34-.14-.65-.17-.99,0-.34.03-.68.03-1.02-.6.2-1.22.37-1.84.4-.6,0-1.19-.17-1.7-.48-.48-.31-.88-.79-1.16-1.33-.26-.54-.34-1.13-.28-1.7.03-.6.26-1.16.48-1.73.11.45.23.91.48,1.22.28.31.71.48,1.13.48.45.03.91-.11,1.28-.34.37-.26.65-.6.85-1.02s.28-.91.31-1.45c.06-.57,0-1.19-.2-1.7-.2-.54-.54-.96-.96-1.3s-.91-.6-1.5-.77c-.57-.17-1.25-.23-1.84-.2-.57.03-1.08.14-1.7.45-.65.28-1.47.77-2.18,1.39-.68.6-1.28,1.36-1.73,2.21-.45.82-.77,1.76-.88,2.75-.11,1.02,0,2.1.23,3.12.23.99.57,1.9,1.08,2.75.48.85,1.08,1.64,1.81,2.32.71.68,1.53,1.25,2.47,1.64.94.4,1.98.62,3.17.74,1.22.11,2.58.11,4.03-.06,1.47-.17,3-.51,4.48-.96,1.45-.43,2.81-.96,5.19-2.18,2.35-1.19,5.7-3.12,9.38-5.19,3.69-2.07,7.71-4.31,10.69-6.01,3-1.7,4.99-2.86,6.75-3.8,1.73-.94,3.26-1.67,4.45-2.15,1.22-.45,2.07-.65,2.95-.77.91-.14,1.81-.17,2.81-.03.96.11,2.01.4,2.98.77.96.37,1.84.82,2.64,1.36.79.57,1.47,1.22,2.18,1.98.68.77,1.33,1.64,2.01,2.52.65-.88,1.3-1.76,1.98-2.52.71-.77,1.39-1.42,2.18-1.98.79-.54,1.67-.99,2.64-1.36.96-.37,2.01-.65,2.98-.77.99-.14,1.9-.11,2.81.03.88.11,1.73.31,2.95.77,1.19.48,2.72,1.22,4.45,2.15,1.76.94,3.74,2.1,6.75,3.8,2.98,1.7,7,3.94,10.69,6.01,3.69,2.07,7.03,4,9.38,5.19,2.38,1.22,3.74,1.76,5.19,2.18,1.47.45,3,.79,4.48.96,1.45.17,2.81.17,4.03.06,1.19-.11,2.24-.34,3.17-.74.94-.4,1.76-.96,2.47-1.64.74-.68,1.33-1.47,1.81-2.32.51-.85.85-1.76,1.08-2.75.23-1.02.34-2.1.23-3.12-.11-.99-.43-1.93-.88-2.75-.45-.85-1.05-1.62-1.73-2.21-.71-.62-1.53-1.11-2.18-1.39-.62-.31-1.13-.43-1.7-.45-.6-.03-1.28.03-1.84.2-.6.17-1.08.43-1.5.77s-.77.77-.96,1.3c-.2.51-.26,1.13-.2,1.7.03.54.11,1.02.31,1.45s.48.77.85,1.02c.37.23.82.37,1.28.34.43,0,.85-.17,1.13-.48.26-.31.37-.77.48-1.22.23.57.45,1.13.48,1.73.06.57-.03,1.16-.28,1.7-.28.54-.68,1.02-1.16,1.33-.51.31-1.11.48-1.7.48-.62-.03-1.25-.2-1.84-.4,0,.34.03.68.03,1.02-.03.34-.06.65-.17.99-.11.34-.31.68-.57.99-.26.34-.57.62-.91.94-.31-.26-.62-.51-.91-.82-.31-.31-.57-.68-.71-1.19-.14-.54-.17-1.22-.2-1.9-.31.09-.62.17-1.02.23-.37.06-.79.06-1.22,0-.4-.03-.79-.14-1.08-.26-.31-.11-.54-.23-.79-.51-.28-.28-.57-.71-.74-1.22-.17-.54-.17-1.13-.11-1.67.06-.51.2-.94.34-1.36.06.37.11.74.37,1.02s.71.48,1.16.57c.48.09.99.03,1.45-.17s.88-.51,1.16-1.02c.31-.51.48-1.19.51-1.98,0-.77-.14-1.67-.51-2.49-.37-.82-.99-1.56-1.73-2.1-.74-.51-1.59-.85-2.52-1.05-.91-.2-1.87-.26-2.78-.11-.91.17-1.73.54-2.38.99-.65.48-1.11,1.05-1.36,1.76-.26.71-.31,1.56-.31,2.38.03.82.11,1.62.34,2.24.2.6.54,1.05.88,1.47-.62-.14-1.28-.28-1.98-.6-.71-.34-1.5-.82-2.07-1.45-.54-.62-.91-1.39-1.11-2.3-.17-.91-.2-1.96-.09-2.78.14-.82.4-1.45.68-2.07-.57.4-1.13.79-1.76,1.08-.62.26-1.33.37-2.18.4-.85.03-1.84-.03-2.81-.34-.96-.28-1.9-.77-2.75-1.3-.85-.51-1.64-1.11-2.44-1.64l.2-.14.06-.03.03-.03h.03c.68-.48,1.39-.99,2.13-1.42.85-.51,1.79-1.02,2.75-1.3.96-.28,1.96-.37,2.81-.34s1.56.14,2.18.43c.62.26,1.19.65,1.76,1.05-.28-.62-.54-1.22-.68-2.07-.11-.82-.09-1.84.09-2.75.2-.91.57-1.7,1.11-2.32.57-.62,1.36-1.11,2.07-1.42.71-.31,1.36-.48,1.98-.62-.34.45-.68.88-.88,1.47-.23.62-.31,1.42-.34,2.24,0,.82.06,1.7.31,2.41.26.71.71,1.25,1.36,1.73.65.45,1.47.85,2.38.99.91.14,1.87.09,2.78-.11.94-.2,1.79-.51,2.52-1.05.74-.54,1.36-1.28,1.73-2.1.37-.82.51-1.7.51-2.49-.03-.79-.2-1.47-.51-1.98-.28-.51-.71-.82-1.16-1.02-.45-.17-.96-.23-1.45-.17-.45.09-.91.28-1.16.57-.26.28-.31.65-.37,1.05-.14-.45-.28-.88-.34-1.39-.06-.54-.06-1.13.11-1.64.17-.54.45-.96.74-1.25.26-.26.48-.4.79-.48.28-.11.68-.23,1.08-.28.43-.06.85-.03,1.22,0,.4.06.71.14,1.02.23.03-.68.06-1.36.2-1.87.14-.54.4-.91.71-1.22.28-.28.6-.54.91-.79.34.28.65.57.91.91.26.31.45.65.57.99.11.34.14.65.17.99,0,.34-.03.68-.03,1.02.6-.17,1.22-.37,1.84-.37.6-.03,1.19.14,1.7.45.48.31.88.79,1.16,1.33.26.54.34,1.13.28,1.7-.03.6-.26,1.16-.48,1.76-.11-.48-.23-.94-.48-1.25-.28-.31-.71-.45-1.13-.48-.45-.03-.91.11-1.28.34-.37.26-.65.62-.85,1.02-.2.43-.28.91-.31,1.45-.06.57,0,1.19.2,1.73.2.51.54.94.96,1.28.43.34.91.6,1.5.77.57.17,1.25.23,1.84.2.57-.03,1.08-.14,1.7-.43.65-.31,1.47-.79,2.18-1.39.68-.62,1.28-1.39,1.73-2.21.45-.85.77-1.79.88-2.78.11-1.02,0-2.1-.23-3.09-.23-1.02-.57-1.93-1.08-2.78-.48-.85-1.08-1.64-1.81-2.32-.71-.68-1.53-1.25-2.47-1.64-.94-.4-1.98-.6-3.17-.71-1.22-.14-2.58-.14-4.03.03-1.47.17-3,.54-4.48.96-1.45.45-2.81.96-5.19,2.18-2.35,1.22-5.7,3.12-9.38,5.19-3.69,2.07-7.71,4.34-10.69,6.01-3,1.7-4.99,2.86-6.75,3.8-1.73.96-3.26,1.7-4.45,2.15-1.22.48-2.07.68-2.95.79-.91.11-1.81.14-2.81.03-.96-.14-2.01-.43-2.98-.79s-1.84-.82-2.64-1.36c-.79-.57-1.47-1.19-2.18-1.98-.68-.77-1.33-1.64-1.98-2.52h0Z"/>
      <path class="cls-1" d="M475.17,2.49c.23-.45.6-.99.96-1.45.37-.43.71-.74,1.08-1.05h0c.37.31.71.62,1.08,1.05.37.45.74.99.96,1.45.26.48.4.85.45,1.28.09.4.09.85.09,1.3.37-.45.74-.94,1.28-1.39.57-.43,1.28-.85,2.07-1.22.77-.37,1.62-.71,2.49-.96.88-.23,1.81-.4,2.61-.45.82-.09,1.5-.06,2.35,0,.88.06,1.96.09,3.4.28,1.45.17,3.23.48,4.79.82,1.53.34,2.78.68,3.88.91,1.11.26,2.07.37,3.15.48,1.08.14,2.27.26,3.4.23,1.13,0,2.24-.17,3.03-.31s1.28-.28,1.76-.48c.45-.23.85-.48,1.19-.77.34-.28.62-.57.88-.85-.11.54-.2,1.08-.54,1.79-.34.71-.94,1.56-1.64,2.27-.74.71-1.56,1.25-2.3,1.62-.71.34-1.33.48-1.93.57-.6.06-1.13.06-1.7.03.06.45.09.88.03,1.3-.09.43-.23.82-.45,1.13-.26.31-.57.54-.88.74-.06-.4-.11-.79-.28-1.19-.14-.4-.4-.77-.62-1.11-.23-.31-.43-.57-.77-.71-.31-.17-.79-.23-1.25-.28.17.51.31,1.02.37,1.59.06.6,0,1.25-.17,1.73-.2.48-.51.79-.85.96-.34.2-.71.23-1.11.28.17-.28.34-.6.4-1.02.03-.43-.09-.99-.31-1.53s-.54-1.02-1.02-1.5c-.45-.48-1.02-.94-1.62-1.22-.62-.28-1.22-.4-1.76-.43-.51-.06-.94-.06-.91.2,0,.28.45.82.88,1.39.4.57.77,1.11.99,1.76.26.65.4,1.42.37,2.13-.03.74-.23,1.45-.51,2.07-.26.62-.57,1.13-.96,1.62-.43.48-.94.96-1.45,1.3-.48.37-.96.62-1.47.85-.51.23-1.08.43-1.7.57-.6.14-1.25.17-1.98.17-.74-.03-1.53-.09-2.3-.28-.74-.2-1.45-.48-2.01-.88s-.99-.88-1.28-1.39c-.28-.51-.43-1.08-.48-1.56-.06-.51-.03-.94-.03-1.28-.03-.34-.03-.57-.11-.77-.06-.23-.17-.45-.4-.6s-.54-.2-.88-.23c-.34,0-.74.06-.99.26-.28.2-.43.57-.57.91-.09-.57-.2-1.11-.11-1.56.09-.48.34-.88.62-1.16.28-.31.62-.54,1.11-.62.45-.09,1.08-.03,1.67.03.17-.54.37-1.08.57-1.45.2-.4.45-.6.65-.77l.48-.37c.26.31.51.62.71.91.17.28.28.54.34.79.06.28.09.57.11.85.48-.06.96-.09,1.45.03.48.09.96.34,1.3.6.34.26.54.54.65.85.11.34.17.71.14,1.05,0,.31-.06.6-.11.88-.2-.26-.37-.48-.65-.68-.28-.23-.62-.4-.99-.43-.34,0-.71.14-.96.37-.23.23-.37.51-.34.91,0,.43.14.96.34,1.39.23.4.51.62.91.82s.88.31,1.39.37c.54.03,1.13,0,1.64-.14.48-.11.91-.31,1.28-.6.37-.28.65-.65.88-1.08.23-.45.37-.96.4-1.53.03-.54-.06-1.11-.23-1.59-.14-.51-.37-.94-.71-1.42-.37-.45-.85-.99-1.33-1.42-.45-.45-.88-.82-1.36-1.11-.48-.28-.99-.48-1.56-.65-.6-.17-1.22-.31-1.9-.4-.65-.06-1.36-.03-2.13.09-.77.11-1.62.34-2.38.74s-1.42.94-2.04,1.56c-.6.6-1.13,1.22-1.53,1.84-.43.62-.68,1.25-.82,2.04-.11.82-.11,1.81.09,2.81.2.96.57,1.93,1.19,2.86.62.94,1.47,1.84,2.35,2.52.85.68,1.7,1.13,2.41,1.39.71.26,1.25.34,1.84.37.6.03,1.22.06,1.9-.03.68-.06,1.42-.2,2.32-.57.91-.37,1.98-.96,3.29-1.7,1.33-.74,2.86-1.64,4.39-2.47,1.53-.85,3.03-1.64,4.31-2.35,1.3-.68,2.38-1.25,3.88-2.04,1.53-.79,3.51-1.81,6.15-3.23,2.66-1.39,5.95-3.2,8.31-4.48,2.35-1.25,3.74-1.96,4.99-2.49,1.22-.54,2.32-.94,3.43-1.25,1.08-.34,2.15-.6,3.2-.74,1.08-.14,2.1-.2,3.09-.2s1.98.06,2.83.2c.88.11,1.64.28,2.49.6.88.34,1.81.79,2.64,1.33.82.57,1.53,1.22,2.18,1.98.65.74,1.25,1.59,1.73,2.44.45.82.79,1.67,1.02,2.49.26.85.4,1.64.51,2.47.11.82.17,1.64.11,2.44-.03.79-.17,1.56-.34,2.3-.17.71-.37,1.39-.65,2.1-.28.68-.65,1.36-1.05,1.96-.43.6-.91,1.08-1.45,1.59-.54.48-1.13.99-1.81,1.39-.65.4-1.36.74-2.04,1.05-.68.31-1.84.91-2.41,1.05h-.03.03c.57.11,1.73.65,2.41.99.68.31,1.39.62,2.04,1.02.68.43,1.28.91,1.81,1.39.54.51,1.02,1.02,1.45,1.62.4.6.77,1.25,1.05,1.96.28.68.48,1.36.65,2.1.17.71.31,1.47.34,2.27.06.79,0,1.64-.11,2.47s-.26,1.62-.51,2.44c-.23.82-.57,1.67-1.02,2.52-.48.82-1.08,1.67-1.73,2.41-.65.77-1.36,1.42-2.18,1.98s-1.76,1.02-2.64,1.33c-.85.31-1.62.48-2.49.62-.85.11-1.81.17-2.83.17s-2.01-.03-3.09-.2c-1.05-.14-2.13-.4-3.2-.74-1.11-.31-2.21-.71-3.43-1.25-1.25-.54-2.64-1.25-4.99-2.49-2.35-1.28-5.64-3.06-8.31-4.48-2.64-1.42-4.62-2.44-6.15-3.23-1.5-.79-2.58-1.36-3.88-2.04-1.28-.68-2.78-1.47-4.31-2.32s-3.06-1.76-4.39-2.49c-1.3-.74-2.38-1.33-3.29-1.7-.91-.37-1.64-.51-2.32-.57-.68-.09-1.3-.06-1.9-.03-.6.03-1.13.11-1.84.37-.71.26-1.56.71-2.41,1.39-.88.68-1.73,1.62-2.35,2.55-.62.91-.99,1.87-1.19,2.83-.2.99-.2,1.98-.09,2.81.14.79.4,1.42.82,2.04.4.62.94,1.28,1.53,1.87.62.6,1.28,1.16,2.04,1.53.77.4,1.62.62,2.38.74.77.14,1.47.14,2.13.09.68-.09,1.3-.2,1.9-.4.57-.17,1.08-.37,1.56-.65.48-.28.91-.65,1.36-1.11.48-.43.96-.94,1.33-1.42.34-.48.57-.91.71-1.42.17-.48.26-1.05.23-1.59s-.17-1.08-.4-1.53c-.23-.43-.51-.79-.88-1.08-.37-.28-.79-.48-1.28-.6-.51-.14-1.11-.17-1.64-.14-.51.06-.99.2-1.39.37-.4.2-.68.45-.91.85-.2.4-.34.94-.34,1.36-.03.4.11.68.34.91.26.23.62.4.96.37.37,0,.71-.2.99-.4.28-.23.45-.45.65-.71.06.28.11.57.11.91.03.31-.03.68-.14,1.02-.11.31-.31.6-.65.85-.34.26-.82.51-1.3.6-.48.11-.96.09-1.45.03-.03.28-.06.57-.11.85-.06.26-.17.51-.34.82-.2.28-.45.57-.71.88l-.48-.37c-.2-.14-.45-.37-.65-.74-.2-.4-.4-.91-.57-1.45-.6.03-1.22.09-1.67,0-.48-.09-.82-.31-1.11-.6-.28-.31-.54-.71-.62-1.16-.09-.48.03-1.02.11-1.56.14.34.28.68.57.88.26.2.65.26.99.26s.65-.09.88-.23.34-.37.4-.57c.09-.23.09-.45.11-.79,0-.31-.03-.77.03-1.28.06-.48.2-1.05.48-1.56.28-.51.71-.99,1.28-1.39.57-.37,1.28-.68,2.01-.88.77-.17,1.56-.26,2.3-.28.74,0,1.39.06,1.98.17.62.14,1.19.34,1.7.57s.99.48,1.47.85c.51.34,1.02.82,1.45,1.3.4.48.71,1.02.96,1.62.28.62.48,1.33.51,2.07s-.11,1.47-.37,2.13c-.23.65-.6,1.22-.99,1.76-.43.57-.88,1.11-.88,1.39-.03.28.4.28.91.23.54-.06,1.13-.17,1.76-.45.6-.28,1.16-.74,1.62-1.22.48-.45.79-.96,1.02-1.5.23-.51.34-1.11.31-1.53-.06-.43-.23-.71-.4-1.02.4.06.77.09,1.11.28.34.17.65.48.85.96.17.48.23,1.13.17,1.73s-.2,1.08-.37,1.59c.45-.06.94-.11,1.25-.28.34-.14.54-.4.77-.71.23-.31.48-.71.62-1.11.17-.4.23-.79.28-1.19.31.23.62.43.88.74.23.31.37.74.45,1.13.06.43.03.88-.03,1.3.57-.03,1.11-.03,1.7.03.6.09,1.22.23,1.93.6.74.34,1.56.88,2.3,1.59.71.71,1.3,1.59,1.64,2.27.34.71.43,1.25.54,1.79-.26-.28-.54-.57-.88-.82-.34-.28-.74-.57-1.19-.79-.48-.2-.96-.34-1.76-.48-.79-.14-1.9-.28-3.03-.31-1.13,0-2.32.11-3.4.23-1.08.11-2.04.26-3.15.48-1.11.23-2.35.6-3.88.91-1.56.34-3.34.65-4.79.82-1.45.2-2.52.26-3.4.28-.85.06-1.53.09-2.35.03-.79-.09-1.73-.23-2.61-.48-.88-.26-1.73-.6-2.49-.96-.79-.37-1.5-.77-2.07-1.22-.54-.45-.91-.91-1.28-1.39,0,.45,0,.91-.09,1.33-.06.4-.2.79-.45,1.25-.23.45-.6,1.02-.96,1.45-.37.43-.71.74-1.08,1.05h0c-.37-.31-.71-.62-1.08-1.05-.37-.43-.74-.99-.96-1.45-.26-.45-.4-.85-.45-1.25-.09-.43-.09-.88-.09-1.33-.37.48-.74.94-1.28,1.39-.57.45-1.28.85-2.07,1.22-.77.37-1.62.71-2.49.96-.88.26-1.81.4-2.61.48-.82.06-1.5.03-2.38-.03-.85-.03-1.93-.09-3.37-.28-1.45-.17-3.23-.48-4.79-.82-1.53-.31-2.78-.68-3.88-.91-1.11-.23-2.07-.37-3.15-.48-1.08-.11-2.27-.23-3.4-.23-1.13.03-2.24.17-3.03.31-.79.14-1.28.28-1.76.48-.45.23-.88.51-1.19.79-.34.26-.62.54-.88.82.11-.54.2-1.08.54-1.79.34-.68.94-1.56,1.64-2.27.74-.71,1.56-1.25,2.3-1.59.71-.37,1.33-.51,1.93-.6.6-.06,1.13-.06,1.7-.03-.06-.43-.09-.88-.03-1.3.09-.4.23-.82.45-1.13.26-.31.57-.51.88-.74.06.4.11.79.28,1.19.14.4.4.79.62,1.11.23.31.43.57.77.71.31.17.79.23,1.25.28-.17-.51-.31-.99-.37-1.59s0-1.25.17-1.73c.2-.48.51-.79.85-.96.34-.2.71-.23,1.11-.28-.17.31-.34.6-.4,1.02-.03.43.09,1.02.31,1.53.23.54.54,1.05,1.02,1.5.45.48,1.02.94,1.62,1.22.62.28,1.22.4,1.76.45.51.06.94.06.91-.23,0-.28-.45-.82-.88-1.39-.4-.54-.77-1.11-.99-1.76-.26-.65-.4-1.39-.37-2.13s.23-1.45.51-2.07c.26-.6.57-1.13.96-1.62.43-.48.94-.96,1.45-1.3.48-.37.96-.62,1.47-.85.51-.23,1.08-.43,1.7-.57.6-.11,1.25-.17,1.98-.17.74.03,1.53.11,2.3.28.74.2,1.45.51,2.01.88.57.4.99.88,1.28,1.39.28.51.43,1.08.48,1.56.06.51.03.96.03,1.28.03.34.03.57.11.79.06.2.17.43.4.57s.54.23.88.23.74-.06.99-.26c.26-.2.43-.54.57-.88.09.54.2,1.08.11,1.56-.09.45-.34.85-.62,1.16-.31.28-.62.51-1.11.6-.45.09-1.08.03-1.67,0-.17.54-.37,1.05-.57,1.45-.2.37-.45.6-.65.74l-.48.37c-.26-.31-.51-.6-.71-.88-.17-.31-.28-.57-.34-.82-.06-.28-.09-.57-.11-.85-.48.06-.96.09-1.45-.03-.48-.09-.96-.34-1.3-.6-.34-.26-.54-.54-.65-.85-.11-.34-.17-.71-.14-1.02,0-.34.06-.62.11-.91.2.26.37.48.65.71.28.2.62.4.99.4.34.03.71-.14.96-.37.23-.23.37-.51.34-.91,0-.43-.14-.96-.34-1.36-.23-.4-.51-.65-.91-.85-.4-.17-.88-.31-1.39-.37-.54-.03-1.13,0-1.64.14-.48.11-.91.31-1.28.6-.37.28-.65.65-.88,1.08-.23.45-.37.99-.4,1.53-.03.54.06,1.11.23,1.59.14.51.37.94.71,1.42.37.48.85.99,1.33,1.42.45.45.88.82,1.36,1.11.48.28.99.48,1.56.65.6.2,1.22.31,1.9.4.65.06,1.36.06,2.13-.09.77-.11,1.62-.34,2.38-.74.77-.37,1.42-.94,2.04-1.53.6-.6,1.13-1.25,1.53-1.87.43-.62.68-1.25.82-2.04.11-.82.11-1.81-.09-2.81-.2-.96-.57-1.93-1.19-2.83-.62-.94-1.47-1.87-2.35-2.55-.85-.68-1.7-1.13-2.41-1.39-.71-.26-1.25-.34-1.84-.37-.6-.03-1.22-.06-1.9.03-.68.06-1.42.2-2.32.57-.91.37-1.98.96-3.29,1.7-1.33.74-2.86,1.64-4.39,2.49s-3.03,1.64-4.31,2.32c-1.3.68-2.38,1.25-3.88,2.04-1.53.79-3.51,1.81-6.15,3.23-2.66,1.42-5.95,3.2-8.31,4.48-2.35,1.25-3.74,1.96-4.99,2.49-1.25.54-2.32.94-3.43,1.25-1.08.34-2.15.6-3.2.74-1.08.17-2.1.2-3.09.2s-1.98-.06-2.83-.17c-.88-.14-1.64-.31-2.49-.62-.88-.31-1.81-.77-2.64-1.33s-1.53-1.22-2.18-1.98c-.65-.74-1.25-1.59-1.73-2.41-.45-.85-.79-1.7-1.02-2.52-.26-.82-.4-1.62-.51-2.44-.11-.82-.17-1.67-.11-2.47.03-.79.17-1.56.34-2.27.17-.74.37-1.42.65-2.1.28-.71.65-1.36,1.05-1.96.43-.6.91-1.11,1.45-1.62.54-.48,1.13-.96,1.81-1.39.65-.4,1.36-.71,2.04-1.02.68-.34,1.84-.88,2.41-.99h.03-.03c-.57-.14-1.73-.74-2.41-1.05-.68-.31-1.39-.65-2.04-1.05-.68-.4-1.28-.91-1.81-1.39-.54-.51-1.02-.99-1.45-1.59-.4-.6-.77-1.28-1.05-1.96-.28-.71-.48-1.39-.65-2.1-.17-.74-.31-1.5-.34-2.3-.06-.79,0-1.62.11-2.44.11-.82.26-1.62.51-2.47.23-.82.57-1.67,1.02-2.49.48-.85,1.08-1.7,1.73-2.44.65-.77,1.36-1.42,2.18-1.98.82-.54,1.76-.99,2.64-1.33.85-.31,1.62-.48,2.49-.6.85-.14,1.81-.2,2.83-.2s2.01.06,3.09.2c1.05.14,2.13.4,3.2.74,1.11.31,2.18.71,3.43,1.25,1.25.54,2.64,1.25,4.99,2.49,2.35,1.28,5.64,3.09,8.31,4.48,2.64,1.42,4.62,2.44,6.15,3.23,1.5.79,2.58,1.36,3.88,2.04,1.28.71,2.78,1.5,4.31,2.35,1.53.82,3.06,1.73,4.39,2.47,1.3.74,2.38,1.33,3.29,1.7.91.37,1.64.51,2.32.57.68.09,1.3.06,1.9.03.6-.03,1.13-.11,1.84-.37.71-.26,1.56-.71,2.41-1.39.88-.68,1.73-1.59,2.35-2.52s.99-1.9,1.19-2.86c.2-.99.2-1.98.09-2.81-.14-.79-.4-1.42-.82-2.04-.4-.62-.94-1.25-1.53-1.84-.62-.62-1.28-1.16-2.04-1.56s-1.62-.62-2.38-.74c-.77-.11-1.47-.14-2.13-.09-.68.09-1.3.23-1.9.4-.57.17-1.08.37-1.56.65-.48.28-.91.65-1.36,1.11-.48.43-.96.96-1.33,1.42-.34.48-.57.91-.71,1.42-.17.48-.26,1.05-.23,1.59.03.57.17,1.08.4,1.53.23.43.51.79.88,1.08.37.28.79.48,1.28.6.51.14,1.11.17,1.64.14.51-.06.99-.17,1.39-.37s.68-.43.91-.82c.2-.43.34-.96.34-1.39.03-.4-.11-.68-.34-.91-.26-.23-.62-.37-.96-.37-.37.03-.71.2-.99.43-.28.2-.45.43-.65.68-.06-.28-.11-.57-.11-.88-.03-.34.03-.71.14-1.05.11-.31.31-.6.65-.85.34-.26.82-.51,1.3-.6.48-.11.96-.09,1.45-.03.03-.28.06-.57.11-.85.06-.26.17-.51.34-.79.2-.28.45-.6.71-.91l.48.37c.2.17.45.37.65.77.2.37.4.91.57,1.45.6-.06,1.22-.11,1.67-.03.48.09.79.31,1.11.62.28.28.54.68.62,1.16.09.45-.03.99-.11,1.56-.14-.34-.31-.71-.57-.91-.26-.2-.65-.26-.99-.26-.34.03-.65.09-.88.23s-.34.37-.4.6c-.09.2-.09.43-.11.77,0,.34.03.77-.03,1.28-.06.48-.2,1.05-.48,1.56-.28.51-.71.99-1.28,1.39-.57.4-1.28.68-2.01.88-.77.2-1.56.26-2.3.28-.74,0-1.39-.03-1.98-.17-.62-.14-1.19-.34-1.7-.57-.51-.23-.99-.48-1.47-.85-.51-.34-1.02-.82-1.45-1.3-.4-.48-.71-.99-.96-1.62-.28-.62-.48-1.33-.51-2.07-.03-.71.11-1.47.37-2.13.23-.65.6-1.19.99-1.76.43-.57.88-1.11.88-1.39.03-.26-.4-.26-.91-.2-.54.03-1.13.14-1.76.43-.6.28-1.16.74-1.62,1.22-.48.48-.79.96-1.02,1.5-.23.54-.34,1.11-.31,1.53.06.43.23.74.4,1.02-.4-.06-.77-.09-1.11-.28-.34-.17-.65-.48-.85-.96-.17-.48-.23-1.13-.17-1.73.06-.57.2-1.08.37-1.59-.45.06-.94.11-1.25.28-.34.14-.54.4-.77.71-.23.34-.48.71-.62,1.11-.17.4-.23.79-.28,1.19-.31-.2-.62-.43-.88-.74-.23-.31-.37-.71-.45-1.13-.06-.43-.03-.85.03-1.3-.57.03-1.11.03-1.7-.03-.6-.09-1.22-.23-1.93-.57-.74-.37-1.56-.91-2.3-1.62-.71-.71-1.3-1.56-1.64-2.27-.34-.71-.43-1.25-.54-1.79.26.28.54.57.88.85.31.28.74.54,1.19.77.48.2.96.34,1.76.48s1.9.31,3.03.31c1.13.03,2.32-.09,3.4-.23,1.08-.11,2.04-.23,3.15-.48,1.11-.23,2.35-.57,3.88-.91,1.56-.34,3.34-.65,4.79-.82,1.45-.2,2.52-.23,3.37-.28.88-.06,1.56-.09,2.38,0,.79.06,1.73.23,2.61.45.88.26,1.73.6,2.49.96.79.37,1.5.79,2.07,1.22.54.45.91.94,1.28,1.39,0-.45,0-.91.09-1.3.06-.43.2-.79.45-1.28h0ZM477.21,18.31c-.65.88-1.33,1.76-1.98,2.52-.71.79-1.42,1.42-2.21,1.98-.79.54-1.67.99-2.64,1.36-.94.37-1.98.65-2.98.79-.96.11-1.9.09-2.78-.03-.88-.11-1.76-.31-2.95-.79-1.19-.45-2.72-1.19-4.48-2.15-1.76-.94-3.74-2.1-6.72-3.8-3-1.67-7-3.94-10.69-6.01s-7.06-3.97-9.41-5.19c-2.35-1.22-3.74-1.73-5.19-2.18-1.45-.43-3-.79-4.45-.96-1.47-.17-2.83-.17-4.03-.03-1.22.11-2.24.31-3.17.71-.94.4-1.79.96-2.49,1.64-.71.68-1.33,1.47-1.81,2.32-.48.85-.85,1.76-1.08,2.78-.23.99-.31,2.07-.2,3.09.11.99.43,1.93.88,2.78.45.82,1.02,1.59,1.73,2.21.68.6,1.5,1.08,2.15,1.39.65.28,1.13.4,1.73.43.57.03,1.25-.03,1.84-.2.6-.17,1.08-.43,1.47-.77.43-.34.79-.77.96-1.28.2-.54.26-1.16.23-1.73-.03-.54-.14-1.02-.34-1.45-.2-.4-.45-.77-.82-1.02-.37-.23-.85-.37-1.28-.34-.45.03-.88.17-1.13.48-.28.31-.4.77-.51,1.25-.2-.6-.43-1.16-.48-1.76-.06-.57.06-1.16.31-1.7s.65-1.02,1.16-1.33c.48-.31,1.08-.48,1.7-.45.6,0,1.22.2,1.84.37-.03-.34-.03-.68-.03-1.02s.06-.65.17-.99c.11-.34.28-.68.54-.99.26-.34.6-.62.91-.91.31.26.65.51.94.79.28.31.57.68.71,1.22.14.51.14,1.19.17,1.87.31-.09.65-.17,1.02-.23.37-.03.82-.06,1.22,0,.43.06.79.17,1.11.28.31.09.51.23.79.48.26.28.57.71.74,1.25.14.51.17,1.11.11,1.64-.09.51-.23.94-.37,1.39-.06-.4-.09-.77-.34-1.05-.26-.28-.71-.48-1.19-.57-.48-.06-.96,0-1.45.17-.45.2-.85.51-1.16,1.02-.28.51-.48,1.19-.48,1.98-.03.79.11,1.67.51,2.49.37.82.96,1.56,1.7,2.1.74.54,1.62.85,2.52,1.05.94.2,1.9.26,2.78.11.91-.14,1.73-.54,2.38-.99.65-.48,1.13-1.02,1.39-1.73.26-.71.31-1.59.28-2.41,0-.82-.11-1.62-.31-2.24-.23-.6-.57-1.02-.91-1.47.65.14,1.3.31,2.01.62.71.31,1.47.79,2.04,1.42s.94,1.42,1.11,2.32c.2.91.23,1.93.09,2.75-.11.85-.4,1.45-.65,2.07.54-.4,1.11-.79,1.73-1.05.62-.28,1.33-.4,2.18-.43.85-.03,1.87.06,2.83.34.96.28,1.87.79,2.72,1.3.74.43,1.45.94,2.15,1.42h0l.06.03.03.03.23.14c-.79.54-1.62,1.13-2.47,1.64-.85.54-1.76,1.02-2.72,1.3-.96.31-1.98.37-2.83.34-.85-.03-1.56-.14-2.18-.4-.62-.28-1.19-.68-1.73-1.08.26.62.54,1.25.65,2.07.14.82.11,1.87-.09,2.78-.17.91-.54,1.67-1.11,2.3s-1.33,1.11-2.04,1.45c-.71.31-1.36.45-2.01.6.34-.43.68-.88.91-1.47.2-.62.31-1.42.31-2.24.03-.82-.03-1.67-.28-2.38-.26-.71-.74-1.28-1.39-1.76-.65-.45-1.47-.82-2.38-.99-.88-.14-1.84-.09-2.78.11-.91.2-1.79.54-2.52,1.05-.74.54-1.33,1.28-1.7,2.1-.4.82-.54,1.73-.51,2.49,0,.79.2,1.47.48,1.98.31.51.71.82,1.16,1.02.48.2.96.26,1.45.17.48-.09.94-.28,1.19-.57.26-.28.28-.65.34-1.02.14.43.28.85.37,1.36.06.54.03,1.13-.11,1.67-.17.51-.48.94-.74,1.22-.28.28-.48.4-.79.51-.31.11-.68.23-1.11.26-.4.06-.85.06-1.22,0-.37-.06-.71-.14-1.02-.23-.03.68-.03,1.36-.17,1.9-.14.51-.43.88-.71,1.19-.28.31-.62.57-.94.82-.31-.31-.65-.6-.91-.94-.26-.31-.43-.65-.54-.99-.11-.34-.17-.65-.17-.99s0-.68.03-1.02c-.62.2-1.25.37-1.84.4-.62,0-1.22-.17-1.7-.48-.51-.31-.91-.79-1.16-1.33s-.37-1.13-.31-1.7c.06-.6.28-1.16.48-1.73.11.45.23.91.51,1.22.26.31.68.48,1.13.48.43.03.91-.11,1.28-.34.37-.26.62-.6.82-1.02s.31-.91.34-1.45c.03-.57-.03-1.19-.23-1.7-.17-.54-.54-.96-.96-1.3-.4-.34-.88-.6-1.47-.77s-1.28-.23-1.84-.2c-.6.03-1.08.14-1.73.45-.65.28-1.47.77-2.15,1.39-.71.6-1.28,1.36-1.73,2.21-.45.82-.77,1.76-.88,2.75-.11,1.02-.03,2.1.2,3.12.23.99.6,1.9,1.08,2.75.48.85,1.11,1.64,1.81,2.32.71.68,1.56,1.25,2.49,1.64s1.96.62,3.17.74c1.19.11,2.55.11,4.03-.06,1.45-.17,3-.51,4.45-.96,1.45-.43,2.83-.96,5.19-2.18,2.35-1.19,5.73-3.12,9.41-5.19,3.69-2.07,7.68-4.31,10.69-6.01,2.98-1.7,4.96-2.86,6.72-3.8s3.29-1.67,4.48-2.15c1.19-.45,2.07-.65,2.95-.77.88-.14,1.81-.17,2.78-.03.99.11,2.04.4,2.98.77.96.37,1.84.82,2.64,1.36.79.57,1.5,1.22,2.21,1.98.65.77,1.33,1.64,1.98,2.52.65-.88,1.33-1.76,1.98-2.52.71-.77,1.42-1.42,2.21-1.98.79-.54,1.67-.99,2.64-1.36.94-.37,1.98-.65,2.98-.77.96-.14,1.9-.11,2.78.03.88.11,1.76.31,2.95.77,1.19.48,2.72,1.22,4.48,2.15s3.74,2.1,6.72,3.8c3,1.7,7,3.94,10.69,6.01,3.69,2.07,7.06,4,9.41,5.19,2.35,1.22,3.74,1.76,5.19,2.18,1.45.45,3,.79,4.45.96,1.47.17,2.83.17,4.03.06,1.22-.11,2.24-.34,3.17-.74.94-.4,1.79-.96,2.49-1.64.71-.68,1.33-1.47,1.81-2.32.48-.85.85-1.76,1.08-2.75.23-1.02.31-2.1.2-3.12-.11-.99-.43-1.93-.88-2.75-.45-.85-1.02-1.62-1.73-2.21-.68-.62-1.5-1.11-2.15-1.39-.65-.31-1.13-.43-1.73-.45-.57-.03-1.25.03-1.84.2s-1.08.43-1.47.77c-.43.34-.79.77-.96,1.3-.2.51-.26,1.13-.23,1.7.03.54.14,1.02.34,1.45s.45.77.82,1.02c.37.23.85.37,1.28.34.45,0,.88-.17,1.13-.48.28-.31.4-.77.51-1.22.2.57.43,1.13.48,1.73.06.57-.06,1.16-.31,1.7s-.65,1.02-1.16,1.33c-.48.31-1.08.48-1.7.48-.6-.03-1.22-.2-1.84-.4.03.34.03.68.03,1.02s-.06.65-.17.99c-.11.34-.28.68-.54.99-.26.34-.6.62-.91.94-.31-.26-.65-.51-.94-.82-.28-.31-.57-.68-.71-1.19-.14-.54-.14-1.22-.17-1.9-.31.09-.65.17-1.02.23-.37.06-.82.06-1.22,0-.43-.03-.79-.14-1.11-.26-.31-.11-.51-.23-.79-.51-.26-.28-.57-.71-.74-1.22-.14-.54-.17-1.13-.11-1.67.06-.51.23-.94.37-1.36.06.37.09.74.34,1.02s.71.48,1.19.57c.48.09.96.03,1.45-.17.45-.2.85-.51,1.16-1.02.28-.51.48-1.19.48-1.98.03-.77-.11-1.67-.51-2.49-.37-.82-.96-1.56-1.7-2.1-.74-.51-1.62-.85-2.52-1.05-.94-.2-1.9-.26-2.78-.11-.91.17-1.73.54-2.38.99-.65.48-1.13,1.05-1.39,1.76-.26.71-.31,1.56-.28,2.38,0,.82.11,1.62.31,2.24.23.6.57,1.05.91,1.47-.65-.14-1.3-.28-2.01-.6-.71-.34-1.47-.82-2.04-1.45-.57-.62-.94-1.39-1.11-2.3-.2-.91-.23-1.96-.09-2.78.11-.82.4-1.45.65-2.07-.54.4-1.11.79-1.73,1.08-.62.26-1.33.37-2.18.4-.85.03-1.87-.03-2.83-.34-.96-.28-1.87-.77-2.72-1.3-.85-.51-1.67-1.11-2.47-1.64l.23-.14.03-.03.06-.03h0c.71-.48,1.42-.99,2.15-1.42.85-.51,1.76-1.02,2.72-1.3.96-.28,1.98-.37,2.83-.34.85.03,1.56.14,2.18.43.62.26,1.19.65,1.73,1.05-.26-.62-.54-1.22-.65-2.07-.14-.82-.11-1.84.09-2.75.17-.91.54-1.7,1.11-2.32.57-.62,1.33-1.11,2.04-1.42.71-.31,1.36-.48,2.01-.62-.34.45-.68.88-.91,1.47-.2.62-.31,1.42-.31,2.24-.03.82.03,1.7.28,2.41.26.71.74,1.25,1.39,1.73.65.45,1.47.85,2.38.99.88.14,1.84.09,2.78-.11.91-.2,1.79-.51,2.52-1.05.74-.54,1.33-1.28,1.7-2.1.4-.82.54-1.7.51-2.49,0-.79-.2-1.47-.48-1.98-.31-.51-.71-.82-1.16-1.02-.48-.17-.96-.23-1.45-.17-.48.09-.94.28-1.19.57-.26.28-.28.65-.34,1.05-.14-.45-.31-.88-.37-1.39-.06-.54-.03-1.13.11-1.64.17-.54.48-.96.74-1.25.28-.26.48-.4.79-.48.31-.11.68-.23,1.11-.28.4-.06.85-.03,1.22,0,.37.06.71.14,1.02.23.03-.68.03-1.36.17-1.87.14-.54.43-.91.71-1.22.28-.28.62-.54.94-.79.31.28.65.57.91.91.26.31.43.65.54.99.11.34.17.65.17.99s0,.68-.03,1.02c.62-.17,1.25-.37,1.84-.37.62-.03,1.22.14,1.7.45.51.31.91.79,1.16,1.33s.37,1.13.31,1.7c-.06.6-.28,1.16-.48,1.76-.11-.48-.23-.94-.51-1.25-.26-.31-.68-.45-1.13-.48-.43-.03-.91.11-1.28.34-.37.26-.62.62-.82,1.02-.2.43-.31.91-.34,1.45-.03.57.03,1.19.23,1.73.17.51.54.94.96,1.28.4.34.88.6,1.47.77.6.17,1.28.23,1.84.2.6-.03,1.08-.14,1.73-.43.65-.31,1.47-.79,2.15-1.39.71-.62,1.28-1.39,1.73-2.21.45-.85.77-1.79.88-2.78.11-1.02.03-2.1-.2-3.09-.23-1.02-.6-1.93-1.08-2.78-.48-.85-1.11-1.64-1.81-2.32-.71-.68-1.56-1.25-2.49-1.64-.94-.4-1.96-.6-3.17-.71-1.19-.14-2.55-.14-4.03.03-1.45.17-3,.54-4.45.96-1.45.45-2.83.96-5.19,2.18-2.35,1.22-5.73,3.12-9.41,5.19s-7.68,4.34-10.69,6.01c-2.98,1.7-4.96,2.86-6.72,3.8-1.76.96-3.29,1.7-4.48,2.15-1.19.48-2.07.68-2.95.79-.88.11-1.81.14-2.78.03-.99-.14-2.04-.43-2.98-.79-.96-.37-1.84-.82-2.64-1.36-.79-.57-1.5-1.19-2.21-1.98-.65-.77-1.33-1.64-1.98-2.52h0Z"/>
      <path class="cls-1" d="M42.32,2.49c-.26-.45-.62-.99-.99-1.45-.37-.43-.71-.74-1.08-1.05-.2.2-.43.43-.65.68-.26.26-.51.57-.79,1.02-.26.48-.57,1.08-.77,1.64-.2.57-.28,1.08-.37,1.59-.68-.65-1.33-1.3-1.98-1.81-.65-.54-1.3-.91-2.07-1.25-.79-.31-1.73-.54-2.75-.71-1.05-.14-2.15-.17-3.43-.11s-2.72.2-4.31.43c-1.62.26-3.37.6-5.3.94-1.93.37-4.03.74-5.75,1.02-1.7.26-3,.43-4.11.48s-1.98,0-2.81-.14c-.82-.17-1.62-.4-2.21-.85-.62-.43-1.11-1.05-1.59-1.7.03.45.06.91.17,1.33.11.43.31.79.6,1.22.26.43.57.88.96,1.33.4.48.88.96,1.3,1.33.43.37.82.62,1.28.85s.99.43,1.5.51c.54.11,1.02.11,1.42.09.4-.06.68-.14.96-.23-.09.51-.14,1.02-.06,1.53.09.48.34.96.6,1.28.26.34.54.51.85.71,0-.43.03-.85.17-1.28.14-.45.37-.88.62-1.19.26-.31.48-.51.82-.65.34-.11.74-.17,1.13-.23-.11.37-.23.77-.28,1.16-.03.43,0,.88.17,1.3.17.45.45.88.77,1.16.34.28.71.45,1.08.62-.14-.28-.26-.57-.28-.91-.03-.34.03-.77.2-1.22.14-.48.37-.99.68-1.47.31-.45.71-.85,1.13-1.16.43-.31.88-.57,1.36-.74.51-.17,1.08-.26,1.56-.31.48-.06.88-.09,1.28-.11-.4.4-.77.77-1.13,1.19-.34.4-.68.85-.96,1.33-.26.51-.48,1.02-.62,1.59-.11.57-.11,1.16-.06,1.76s.2,1.16.4,1.7c.23.54.51,1.05.88,1.53s.82.94,1.3,1.3c.48.4.96.68,1.56.94.57.28,1.19.54,1.84.71.62.2,1.28.28,1.9.28s1.19-.06,1.76-.14c.57-.11,1.13-.26,1.56-.45.45-.17.77-.37,1.13-.65.34-.28.74-.62.99-1.08.28-.43.45-.94.54-1.45.09-.51.09-1.02.09-1.42s0-.65.14-.91c.11-.28.4-.57.74-.65.37-.11.82-.03,1.19.2.37.2.65.54.94.88.06-.45.14-.94.11-1.33-.06-.4-.17-.74-.43-1.05-.23-.31-.54-.6-.91-.77-.4-.17-.82-.26-1.19-.28-.37-.03-.65-.03-.96,0-.03-.26-.03-.51-.11-.79-.09-.26-.23-.57-.43-.85s-.43-.57-.68-.85c-.28.23-.6.43-.82.68-.23.26-.37.54-.48.85-.14.31-.23.68-.34,1.02-.57-.03-1.13-.09-1.64,0-.48.09-.91.31-1.22.65-.34.34-.54.79-.6,1.25-.06.48.03.94.14,1.42.09-.23.14-.45.31-.65.17-.2.43-.4.77-.48.31-.09.71-.09,1.02.03.31.11.57.31.74.62.14.28.2.68.14,1.08-.03.4-.17.79-.43,1.13-.26.34-.65.62-1.16.79-.54.17-1.25.23-1.9.11-.68-.09-1.33-.37-1.84-.74-.51-.34-.88-.77-1.05-1.33-.2-.57-.23-1.3-.09-2.04.11-.74.4-1.47.82-2.13.43-.68,1.02-1.33,1.64-1.87.65-.57,1.33-1.02,2.13-1.33.82-.31,1.79-.45,2.66-.48.88,0,1.7.09,2.47.28.77.17,1.47.45,2.13.88.68.43,1.3.96,1.87,1.56.54.62,1.02,1.3,1.36,2.01.31.71.51,1.45.57,2.24.06.79,0,1.59-.2,2.41s-.51,1.62-.88,2.3c-.34.68-.74,1.22-1.19,1.7-.43.48-.94.91-1.47,1.3-.54.43-1.13.79-1.9,1.08s-1.67.43-2.61.45c-.96,0-1.96-.14-2.92-.37-.99-.23-1.98-.54-3.12-.96-1.11-.45-2.38-.99-3.77-1.59l-4.31-1.9c-1.39-.6-2.61-1.11-3.88-1.47-1.28-.37-2.61-.6-3.86-.65-1.28-.06-2.44.03-3.4.23-.94.2-1.67.48-2.32.91-.62.4-1.13.91-1.5,1.53-.37.6-.6,1.3-.71,2.01-.11.68-.11,1.36.03,2.04.14.65.4,1.33.96,1.98.54.68,1.39,1.39,2.21,2.04l9.24.03h-.03l-9.21-.03c-.82.65-1.67,1.42-2.21,2.07-.57.65-.82,1.33-.96,2.01-.14.65-.14,1.33-.03,2.04.11.68.34,1.39.71,1.98.37.62.88,1.13,1.5,1.53.65.43,1.39.71,2.32.91.96.2,2.13.28,3.4.23,1.25-.06,2.58-.28,3.86-.65,1.28-.37,2.49-.88,3.88-1.47l4.31-1.9c1.39-.6,2.66-1.13,3.77-1.56,1.13-.45,2.13-.77,3.12-.99.96-.23,1.96-.37,2.92-.37.94.03,1.84.17,2.61.45s1.36.68,1.9,1.08c.54.43,1.05.85,1.47,1.33.45.48.85,1.02,1.19,1.67.37.68.68,1.5.88,2.3.2.82.26,1.64.2,2.41-.06.79-.26,1.53-.57,2.24-.34.74-.82,1.39-1.36,2.01-.57.6-1.19,1.16-1.87,1.56-.65.43-1.36.71-2.13.91-.77.17-1.59.28-2.47.26-.88-.03-1.84-.17-2.66-.48-.79-.28-1.47-.77-2.13-1.33-.62-.54-1.22-1.16-1.64-1.84-.43-.68-.71-1.42-.82-2.15-.14-.71-.11-1.45.09-2.04.17-.57.54-.99,1.05-1.33.51-.34,1.16-.62,1.84-.74.65-.11,1.36-.06,1.9.11.51.17.91.45,1.16.79.26.34.4.74.43,1.13.06.4,0,.79-.14,1.11-.17.28-.43.48-.74.6-.31.11-.71.11-1.02.03-.34-.09-.6-.26-.77-.45-.17-.2-.23-.45-.31-.68-.11.48-.2.94-.14,1.42.06.45.26.94.6,1.28.31.34.74.54,1.22.62.51.09,1.08.06,1.64,0,.11.34.2.71.34,1.02.11.31.26.62.48.85.23.26.54.48.82.68.26-.28.48-.57.68-.85.2-.28.34-.57.43-.85.09-.28.09-.54.11-.79.31.03.6.06.96,0,.37-.03.79-.09,1.19-.28.37-.17.68-.45.91-.77.26-.31.37-.65.43-1.05.03-.4-.06-.85-.11-1.33-.28.34-.57.68-.94.91-.37.2-.82.28-1.19.17-.34-.09-.62-.37-.74-.62-.14-.28-.14-.54-.14-.94s0-.91-.09-1.42c-.09-.51-.26-1.02-.54-1.45-.26-.43-.65-.79-.99-1.08-.37-.28-.68-.48-1.13-.65-.43-.17-.99-.34-1.56-.43-.57-.11-1.16-.17-1.76-.17-.62.03-1.28.11-1.9.28-.65.17-1.28.43-1.84.71-.6.26-1.08.57-1.56.94s-.94.82-1.3,1.3c-.37.48-.65.99-.88,1.53-.2.54-.34,1.13-.4,1.7-.06.6-.06,1.19.06,1.76.14.57.37,1.08.62,1.59.28.48.62.94.96,1.33.37.43.74.79,1.13,1.19-.4-.03-.79-.06-1.28-.11s-1.05-.14-1.56-.31c-.48-.17-.94-.4-1.36-.74-.43-.31-.82-.71-1.13-1.16-.31-.45-.54-.99-.68-1.45-.17-.48-.23-.91-.2-1.25.03-.34.14-.62.28-.88-.37.14-.74.31-1.08.6-.31.31-.6.74-.77,1.16-.17.45-.2.88-.17,1.3.06.43.17.79.28,1.16-.4-.06-.79-.11-1.13-.23-.34-.14-.57-.34-.82-.65-.26-.31-.48-.74-.62-1.16-.14-.45-.17-.88-.17-1.3-.31.2-.6.37-.85.71-.26.31-.51.79-.6,1.28-.09.51-.03,1.02.06,1.53-.28-.09-.57-.17-.96-.2-.4-.06-.88-.03-1.42.06-.51.09-1.05.28-1.5.51s-.85.48-1.28.85c-.43.37-.91.88-1.3,1.33-.4.45-.71.91-.96,1.33-.28.43-.48.82-.6,1.22-.11.43-.14.88-.17,1.33.48-.62.96-1.28,1.59-1.7.6-.45,1.39-.68,2.21-.82.82-.17,1.7-.2,2.81-.17,1.11.06,2.41.23,4.11.51,1.73.26,3.83.62,5.75.99,1.93.34,3.69.68,5.3.94,1.59.23,3.03.4,4.31.45s2.38,0,3.43-.14c1.02-.14,1.96-.4,2.75-.71.77-.31,1.42-.71,2.07-1.22.65-.54,1.3-1.19,1.98-1.81.09.51.17.99.37,1.56s.51,1.19.77,1.64c.28.45.54.77.79,1.05.23.26.45.45.65.65.37-.31.71-.62,1.08-1.05s.74-.99.99-1.45c.23-.45.37-.85.43-1.25.09-.43.09-.88.11-1.33.37.48.74.94,1.28,1.39.54.45,1.25.85,2.04,1.22.79.37,1.62.71,2.52.96.88.26,1.79.4,2.61.48.79.06,1.47.03,2.35-.03.88-.03,1.93-.09,3.37-.28,1.45-.17,3.26-.48,4.79-.82,1.53-.31,2.78-.68,3.88-.91,1.11-.23,2.1-.37,3.17-.48s2.24-.23,3.37-.23c1.13.03,2.24.17,3.03.31.79.14,1.3.28,1.76.48.45.23.88.51,1.22.79.34.26.6.54.85.82-.09-.54-.2-1.08-.54-1.79-.34-.68-.94-1.56-1.64-2.27-.71-.71-1.56-1.25-2.27-1.59-.74-.37-1.36-.51-1.96-.6-.57-.06-1.13-.06-1.67-.03.03-.43.06-.88,0-1.3-.06-.4-.2-.82-.45-1.13-.23-.31-.57-.51-.88-.74-.06.4-.11.79-.26,1.19s-.4.79-.62,1.11c-.23.31-.43.57-.77.71-.34.17-.79.23-1.28.28.17-.51.34-.99.4-1.59.06-.6,0-1.25-.2-1.73-.17-.48-.48-.79-.85-.96-.34-.2-.71-.23-1.08-.28.17.31.34.6.37,1.02.03.43-.09,1.02-.28,1.53-.23.54-.57,1.05-1.02,1.5-.45.48-1.05.94-1.64,1.22-.6.28-1.22.4-1.73.45-.51.06-.94.06-.94-.23.03-.28.48-.82.88-1.39.4-.54.77-1.11,1.02-1.76.23-.65.37-1.39.34-2.13s-.23-1.45-.48-2.07c-.26-.6-.57-1.13-.99-1.62-.43-.48-.94-.96-1.42-1.3-.51-.37-.96-.62-1.47-.85-.54-.23-1.11-.43-1.7-.57-.62-.11-1.28-.17-2.01-.17-.71.03-1.53.11-2.27.28-.77.2-1.47.51-2.04.88-.57.4-.99.88-1.28,1.39-.28.51-.4,1.08-.45,1.56-.09.51-.06.96-.06,1.28,0,.34-.03.57-.09.79-.09.2-.2.43-.43.57-.2.14-.51.23-.88.23-.34,0-.71-.06-.99-.26-.26-.2-.4-.54-.54-.88-.11.54-.2,1.08-.11,1.56.06.45.31.85.62,1.16.28.28.62.51,1.08.6.48.09,1.08.03,1.7,0,.17.54.34,1.05.54,1.45.23.37.45.6.65.74l.48.37c.26-.31.54-.6.71-.88.17-.31.28-.57.34-.82.09-.28.11-.57.14-.85.48.06.94.09,1.42-.03.48-.09.99-.34,1.33-.6.34-.26.51-.54.65-.85.11-.34.14-.71.14-1.02-.03-.34-.09-.62-.14-.91-.17.26-.37.48-.65.71-.26.2-.62.4-.96.4-.37.03-.74-.14-.96-.37-.26-.23-.37-.51-.37-.91,0-.43.14-.96.37-1.36.2-.4.51-.65.88-.85.4-.17.88-.31,1.42-.37.54-.03,1.11,0,1.62.14.51.11.91.31,1.28.6.37.28.68.65.88,1.08.23.45.37.99.4,1.53s-.06,1.11-.2,1.59c-.17.51-.37.94-.74,1.42-.34.48-.85.99-1.3,1.42-.48.45-.91.82-1.39,1.11-.45.28-.99.48-1.56.65-.57.2-1.22.31-1.87.4-.68.06-1.39.06-2.15-.09-.77-.11-1.62-.34-2.35-.74-.77-.37-1.45-.94-2.04-1.53-.62-.6-1.16-1.25-1.56-1.87s-.68-1.25-.79-2.04c-.14-.82-.11-1.81.06-2.81.2-.96.6-1.93,1.19-2.83.62-.94,1.5-1.87,2.35-2.55.85-.68,1.7-1.13,2.41-1.39s1.28-.34,1.87-.37c.6-.03,1.22-.06,1.9.03.68.06,1.42.2,2.32.57.91.37,1.98.96,3.29,1.7,1.3.74,2.83,1.64,4.37,2.49,1.53.85,3.03,1.64,4.34,2.32,1.28.68,2.35,1.25,3.88,2.04,1.53.79,3.51,1.81,6.15,3.23s5.92,3.2,8.28,4.48c2.35,1.25,3.74,1.96,4.99,2.49,1.25.54,2.35.94,3.43,1.25,1.11.34,2.18.6,3.23.74,1.05.17,2.1.2,3.09.2s1.96-.06,2.83-.17c.85-.14,1.64-.31,2.49-.62.85-.31,1.79-.77,2.61-1.33s1.53-1.22,2.21-1.98c.65-.74,1.25-1.59,1.7-2.41.48-.85.79-1.7,1.05-2.52.23-.82.4-1.62.51-2.44.09-.82.14-1.67.11-2.47-.06-.79-.2-1.56-.37-2.27-.17-.74-.34-1.42-.62-2.1-.28-.71-.65-1.36-1.08-1.96-.43-.6-.91-1.11-1.45-1.62-.54-.48-1.13-.96-1.79-1.39-.65-.4-1.36-.71-2.04-1.02-.68-.34-1.87-.88-2.44-.99h0c.57-.14,1.76-.74,2.44-1.05.68-.31,1.39-.65,2.04-1.05.65-.4,1.25-.91,1.79-1.39.54-.51,1.02-.99,1.45-1.59.43-.6.79-1.28,1.08-1.96.28-.71.45-1.39.62-2.1.17-.74.31-1.5.37-2.3.03-.79-.03-1.62-.11-2.44-.11-.82-.28-1.62-.51-2.47-.26-.82-.57-1.67-1.05-2.49-.45-.85-1.05-1.7-1.7-2.44-.68-.77-1.39-1.42-2.21-1.98-.82-.54-1.76-.99-2.61-1.33-.85-.31-1.64-.48-2.49-.6-.88-.14-1.84-.2-2.83-.2s-2.04.06-3.09.2-2.13.4-3.23.74c-1.08.31-2.18.71-3.43,1.25-1.25.54-2.64,1.25-4.99,2.49-2.35,1.28-5.64,3.09-8.28,4.48-2.64,1.42-4.62,2.44-6.15,3.23s-2.61,1.36-3.88,2.04c-1.3.71-2.81,1.5-4.34,2.35-1.53.82-3.06,1.73-4.37,2.47-1.3.74-2.38,1.33-3.29,1.7-.91.37-1.64.51-2.32.57-.68.09-1.3.06-1.9.03-.6-.03-1.16-.11-1.87-.37-.71-.26-1.56-.71-2.41-1.39-.85-.68-1.73-1.59-2.35-2.52-.6-.94-.99-1.9-1.19-2.86-.17-.99-.2-1.98-.06-2.81.11-.79.4-1.42.79-2.04.4-.62.94-1.25,1.56-1.84.6-.62,1.28-1.16,2.04-1.56.74-.4,1.59-.62,2.35-.74.77-.11,1.47-.14,2.15-.09.65.09,1.3.23,1.87.4.57.17,1.11.37,1.56.65.48.28.91.65,1.39,1.11.45.43.96.96,1.3,1.42.37.48.57.91.74,1.42.14.48.23,1.05.2,1.59-.03.57-.17,1.08-.4,1.53-.2.43-.51.79-.88,1.08-.37.28-.77.48-1.28.6-.51.14-1.08.17-1.62.14-.54-.06-1.02-.17-1.42-.37-.37-.2-.68-.43-.88-.82-.23-.43-.37-.96-.37-1.39,0-.4.11-.68.37-.91.23-.23.6-.37.96-.37.34.03.71.2.96.43.28.2.48.43.65.68.06-.28.11-.57.14-.88,0-.34-.03-.71-.14-1.05-.14-.31-.31-.6-.65-.85s-.85-.51-1.33-.6c-.48-.11-.94-.09-1.42-.03-.03-.28-.06-.57-.14-.85-.06-.26-.17-.51-.34-.79s-.45-.6-.71-.91l-.48.37c-.2.17-.43.37-.65.77-.2.37-.37.91-.54,1.45-.62-.06-1.22-.11-1.7-.03-.45.09-.79.31-1.08.62-.31.28-.57.68-.62,1.16-.09.45,0,.99.11,1.56.14-.34.28-.71.54-.91.28-.2.65-.26.99-.26.37.03.68.09.88.23.23.14.34.37.43.6.06.2.09.43.09.77s-.03.77.06,1.28c.06.48.17,1.05.45,1.56.28.51.71.99,1.28,1.39s1.28.68,2.04.88c.74.2,1.56.26,2.27.28.74,0,1.39-.03,2.01-.17.6-.14,1.16-.34,1.7-.57.51-.23.96-.48,1.47-.85.48-.34.99-.82,1.42-1.3.43-.48.74-.99.99-1.62.26-.62.45-1.33.48-2.07.03-.71-.11-1.47-.34-2.13-.26-.65-.62-1.19-1.02-1.76-.4-.57-.85-1.11-.88-1.39,0-.26.43-.26.94-.2.51.03,1.13.14,1.73.43.6.28,1.19.74,1.64,1.22.45.48.79.96,1.02,1.5.2.54.31,1.11.28,1.53-.03.43-.2.74-.37,1.02.37-.06.74-.09,1.08-.28.37-.17.68-.48.85-.96.2-.48.26-1.13.2-1.73-.06-.57-.23-1.08-.4-1.59.48.06.94.11,1.28.28.34.14.54.4.77.71.23.34.48.71.62,1.11s.2.79.26,1.19c.31-.2.65-.43.88-.74.26-.31.4-.71.45-1.13.06-.43.03-.85,0-1.3.54.03,1.11.03,1.67-.03.6-.09,1.22-.23,1.96-.57.71-.37,1.56-.91,2.27-1.62s1.3-1.56,1.64-2.27c.34-.71.45-1.25.54-1.79-.26.28-.51.57-.85.85-.34.28-.77.54-1.22.77-.45.2-.96.34-1.76.48s-1.9.31-3.03.31c-1.13.03-2.3-.09-3.37-.23-1.08-.11-2.07-.23-3.17-.48-1.11-.23-2.35-.57-3.88-.91s-3.34-.65-4.79-.82c-1.45-.2-2.49-.23-3.37-.28-.88-.06-1.56-.09-2.35,0-.82.06-1.73.23-2.61.45-.91.26-1.73.6-2.52.96-.79.37-1.5.79-2.04,1.22-.54.45-.91.94-1.28,1.39-.03-.45-.03-.91-.11-1.3-.06-.43-.2-.79-.43-1.28h0ZM67.8,25.48c.77.54,1.59,1.13,2.44,1.64.85.54,1.79,1.02,2.75,1.3.94.31,1.96.37,2.81.34.85-.03,1.56-.14,2.18-.4.62-.28,1.19-.68,1.76-1.08-.28.62-.54,1.25-.68,2.07-.11.82-.11,1.87.09,2.78s.54,1.67,1.11,2.3c.57.62,1.36,1.11,2.07,1.45.71.31,1.36.45,1.98.6-.34-.43-.68-.88-.88-1.47-.23-.62-.31-1.42-.34-2.24,0-.82.06-1.67.31-2.38.26-.71.71-1.28,1.36-1.76.65-.45,1.47-.82,2.38-.99.91-.14,1.87-.09,2.78.11.94.2,1.79.54,2.52,1.05.74.54,1.36,1.28,1.73,2.1.37.82.51,1.73.51,2.49-.03.79-.2,1.47-.51,1.98-.28.51-.71.82-1.16,1.02-.45.2-.96.26-1.45.17-.48-.09-.91-.28-1.16-.57s-.31-.65-.37-1.02c-.14.43-.28.85-.34,1.36-.09.54-.06,1.13.11,1.67.14.51.45.94.74,1.22.26.28.48.4.79.51.28.11.68.23,1.08.26.43.06.85.06,1.22,0,.4-.06.71-.14,1.02-.23.03.68.06,1.36.2,1.9.14.51.4.88.71,1.19.28.31.6.57.91.82.34-.31.65-.6.91-.94.26-.31.45-.65.57-.99.11-.34.14-.65.14-.99.03-.34,0-.68-.03-1.02.62.2,1.25.37,1.87.4.6,0,1.19-.17,1.7-.48.48-.31.88-.79,1.13-1.33s.37-1.13.31-1.7c-.06-.6-.26-1.16-.48-1.73-.11.45-.23.91-.51,1.22-.26.31-.68.48-1.11.48-.45.03-.91-.11-1.28-.34-.37-.26-.65-.6-.85-1.02s-.28-.91-.34-1.45c-.03-.57.03-1.19.23-1.7.2-.54.54-.96.96-1.3.43-.34.91-.6,1.47-.77.6-.17,1.28-.23,1.87-.2.57.03,1.05.14,1.7.45.65.28,1.47.77,2.15,1.39.71.6,1.3,1.36,1.76,2.21.43.82.77,1.76.88,2.75.11,1.02,0,2.1-.23,3.12-.23.99-.6,1.9-1.08,2.75-.48.85-1.08,1.64-1.81,2.32-.71.68-1.53,1.25-2.47,1.64s-1.98.62-3.17.74c-1.22.11-2.58.11-4.03-.06-1.47-.17-3-.51-4.48-.96-1.45-.43-2.81-.96-5.19-2.18-2.35-1.19-5.73-3.12-9.41-5.19-3.69-2.07-7.68-4.31-10.69-6.01-2.98-1.7-4.96-2.86-6.72-3.8-1.73-.94-3.26-1.67-4.48-2.15-1.19-.45-2.04-.65-2.95-.77-.88-.14-1.79-.17-2.78-.03-.96.11-2.01.4-2.98.77-.96.37-1.84.82-2.64,1.36-.79.57-1.5,1.22-2.18,1.98-.71.79-1.42,1.73-2.1,2.66-.43-.65-.85-1.33-1.28-1.9-.45-.6-.91-1.11-1.39-1.59-.51-.51-1.02-1.02-1.64-1.47s-1.39-.85-2.27-1.22c-.88-.34-1.87-.65-3.17-.79-1.3-.14-2.89-.09-4.39.2-1.47.28-2.83.79-4.28,1.36-1.45.6-2.95,1.28-4.62,2.04-1.67.77-3.54,1.59-4.99,2.13-1.45.57-2.52.82-3.37.94-.85.11-1.5.06-2.04-.14-.51-.23-.94-.57-1.05-1.16-.11-.57.06-1.36.57-2.1.51-.77,1.36-1.45,2.47-2.04s2.47-1.11,3.86-1.59c-1.39-.48-2.75-.96-3.86-1.56-1.11-.57-1.96-1.28-2.47-2.04-.51-.74-.68-1.53-.57-2.1.11-.57.54-.94,1.05-1.13.54-.23,1.19-.26,2.04-.17.85.11,1.93.4,3.37.94,1.45.54,3.32,1.36,4.99,2.13,1.67.77,3.17,1.45,4.62,2.04s2.81,1.08,4.28,1.36c1.5.28,3.09.34,4.39.2,1.3-.11,2.3-.45,3.17-.79.88-.37,1.64-.77,2.27-1.22.62-.45,1.13-.96,1.64-1.45.48-.51.94-1.02,1.39-1.62.43-.57.85-1.25,1.28-1.9.68.94,1.39,1.87,2.1,2.66.68.79,1.39,1.42,2.18,1.98.79.54,1.67.99,2.64,1.36s2.01.65,2.98.79c.99.11,1.9.09,2.78-.03.91-.11,1.76-.31,2.95-.79,1.22-.45,2.75-1.19,4.48-2.15,1.76-.94,3.74-2.1,6.72-3.8,3-1.67,7-3.94,10.69-6.01,3.69-2.07,7.06-3.97,9.41-5.19,2.38-1.22,3.74-1.73,5.19-2.18,1.47-.43,3-.79,4.48-.96,1.45-.17,2.81-.17,4.03-.03,1.19.11,2.24.31,3.17.71.94.4,1.76.96,2.47,1.64.74.68,1.33,1.47,1.81,2.32.48.85.85,1.76,1.08,2.78.23.99.34,2.07.23,3.09-.11.99-.45,1.93-.88,2.78-.45.82-1.05,1.59-1.76,2.21-.68.6-1.5,1.08-2.15,1.39-.65.28-1.13.4-1.7.43-.6.03-1.28-.03-1.87-.2-.57-.17-1.05-.43-1.47-.77-.43-.34-.77-.77-.96-1.28-.2-.54-.26-1.16-.23-1.73.06-.54.14-1.02.34-1.45.2-.4.48-.77.85-1.02.37-.23.82-.37,1.28-.34.43.03.85.17,1.11.48.28.31.4.77.51,1.25.23-.6.43-1.16.48-1.76.06-.57-.06-1.16-.31-1.7s-.65-1.02-1.13-1.33c-.51-.31-1.11-.48-1.7-.45-.62,0-1.25.2-1.87.37.03-.34.06-.68.03-1.02,0-.34-.03-.65-.14-.99-.11-.34-.31-.68-.57-.99-.26-.34-.57-.62-.91-.91-.31.26-.62.51-.91.79-.31.31-.57.68-.71,1.22-.14.51-.17,1.19-.2,1.87-.31-.09-.62-.17-1.02-.23-.37-.03-.79-.06-1.22,0-.4.06-.79.17-1.08.28-.31.09-.54.23-.79.48-.28.28-.6.71-.74,1.25-.17.51-.2,1.11-.11,1.64.06.51.2.94.34,1.39.06-.4.11-.77.37-1.05.26-.28.68-.48,1.16-.57.48-.06.99,0,1.45.17.45.2.88.51,1.16,1.02.31.51.48,1.19.51,1.98,0,.79-.14,1.67-.51,2.49-.37.82-.99,1.56-1.73,2.1-.74.54-1.59.85-2.52,1.05-.91.2-1.87.26-2.78.11s-1.73-.54-2.38-.99c-.65-.48-1.11-1.02-1.36-1.73-.26-.71-.31-1.59-.31-2.41.03-.82.11-1.62.34-2.24.2-.6.54-1.02.88-1.47-.62.14-1.28.31-1.98.62-.71.31-1.5.79-2.07,1.42-.57.62-.91,1.42-1.11,2.32s-.2,1.93-.09,2.75c.14.85.4,1.45.68,2.07-.57-.4-1.13-.79-1.76-1.05-.62-.28-1.33-.4-2.18-.43-.85-.03-1.87.06-2.81.34-.96.28-1.9.79-2.75,1.3-.74.43-1.45.94-2.13,1.42h-.03l-.03.03-.06.03-.2.14Z"/>
    </g>
  </g>
</svg>